$MeshFormat
2.2 0 8
$EndMeshFormat
$PhysicalNames
3
2 1 "Tampa"
2 2 "Paredes"
3 3 "Dominio_3D"
$EndPhysicalNames
$Nodes
461
1 -1 -1 -1
2 1 -1 -1
3 1 1 -1
4 -1 1 -1
5 -1 -1 1
6 1 -1 1
7 1 1 1
8 -1 1 1
9 -0.7142857142865082 -1 -1
10 -0.4285714285730164 -1 -1
11 -0.1428571428595247 -1 -1
12 0.1428571428547603 -1 -1
13 0.4285714285698397 -1 -1
14 0.7142857142849199 -1 -1
15 1 -0.7142857142865082 -1
16 1 -0.4285714285730164 -1
17 1 -0.1428571428595247 -1
18 1 0.1428571428547603 -1
19 1 0.4285714285698397 -1
20 1 0.7142857142849199 -1
21 0.7142857142865082 1 -1
22 0.4285714285730164 1 -1
23 0.1428571428595247 1 -1
24 -0.1428571428547603 1 -1
25 -0.4285714285698397 1 -1
26 -0.7142857142849199 1 -1
27 -1 0.7142857142865082 -1
28 -1 0.4285714285730164 -1
29 -1 0.1428571428595247 -1
30 -1 -0.1428571428547603 -1
31 -1 -0.4285714285698397 -1
32 -1 -0.7142857142849199 -1
33 -0.7142857142865082 -1 1
34 -0.4285714285730164 -1 1
35 -0.1428571428595247 -1 1
36 0.1428571428547603 -1 1
37 0.4285714285698397 -1 1
38 0.7142857142849199 -1 1
39 1 -0.7142857142865082 1
40 1 -0.4285714285730164 1
41 1 -0.1428571428595247 1
42 1 0.1428571428547603 1
43 1 0.4285714285698397 1
44 1 0.7142857142849199 1
45 0.7142857142865082 1 1
46 0.4285714285730164 1 1
47 0.1428571428595247 1 1
48 -0.1428571428547603 1 1
49 -0.4285714285698397 1 1
50 -0.7142857142849199 1 1
51 -1 0.7142857142865082 1
52 -1 0.4285714285730164 1
53 -1 0.1428571428595247 1
54 -1 -0.1428571428547603 1
55 -1 -0.4285714285698397 1
56 -1 -0.7142857142849199 1
57 -1 -1 -0.7142857142865082
58 -1 -1 -0.4285714285730164
59 -1 -1 -0.1428571428595247
60 -1 -1 0.1428571428547603
61 -1 -1 0.4285714285698397
62 -1 -1 0.7142857142849199
63 1 -1 -0.7142857142865082
64 1 -1 -0.4285714285730164
65 1 -1 -0.1428571428595247
66 1 -1 0.1428571428547603
67 1 -1 0.4285714285698397
68 1 -1 0.7142857142849199
69 1 1 -0.7142857142865082
70 1 1 -0.4285714285730164
71 1 1 -0.1428571428595247
72 1 1 0.1428571428547603
73 1 1 0.4285714285698397
74 1 1 0.7142857142849199
75 -1 1 -0.7142857142865082
76 -1 1 -0.4285714285730164
77 -1 1 -0.1428571428595247
78 -1 1 0.1428571428547603
79 -1 1 0.4285714285698397
80 -1 1 0.7142857142849199
81 -0.02715954342742318 -0.7232593663773967 -1
82 -0.002104004042704962 0.7537789176491634 -1
83 -0.7282247490163161 0.01013222902921558 -1
84 0.7468594510781914 0.003895185539863233 -1
85 0.7436589792226614 0.5390312031674847 -1
86 -0.5603785329715569 0.7589439130234148 -1
87 0.560378532971592 -0.7589439130237381 -1
88 -0.7589439130237379 -0.560378532971596 -1
89 -0.284223279977161 0.7538299186768321 -1
90 -0.1429593092395293 0.5055417566332224 -1
91 0.1445508098522881 0.5140150649964587 -1
92 0.004615696145353712 0.2617542656084533 -1
93 -0.28496203075147 0.2584383727922346 -1
94 -0.1419624843360915 0.01105795077555245 -1
95 0.1481259813450231 0.01357891657497085 -1
96 0.01228986734547398 -0.2299894220588291 -1
97 0.2857142857188754 -0.2371791482620092 -1
98 -0.2761068123124734 -0.2644712149116296 -1
99 0.4437237063172337 0.01138649672742637 -1
100 0.5714285714331636 -0.2371791482613135 -1
101 0.5827914157276952 0.2745419536071222 -1
102 0.1516414813519036 -0.4822867621669433 -1
103 0.291878093062041 0.2682897249684261 -1
104 0.4336089008847428 0.5204388398709007 -1
105 -0.4263729064414974 0.5065958021428465 -1
106 -0.5651707581247397 0.2627109519591789 -1
107 -0.7359103633762953 0.535380674586308 -1
108 -0.7547830593035403 -0.29121164886062 -1
109 -0.5051283406937225 -0.4285714285698398 -1
110 -0.5344541171056715 -0.7371184112952098 -1
111 -0.2839740891767394 -0.5679380443511832 -1
112 0.280810078481752 -0.7449363970436311 -1
113 0.4277178681915852 -0.4973763960852454 -1
114 0.7366797604822085 -0.5301664318957147 -1
115 -0.4221380312714259 0.01347411673627534 -1
116 0.2855280206874452 0.7591892101406961 -1
117 0.5656838459978042 0.7669024383276533 -1
118 0.8063907243710783 -0.283965796631715 -1
119 -0.2845351931190029 -0.8071053955648959 -1
120 -0.8086077196882331 0.2857142857107253 -1
121 -0.5364013530874653 -0.1970235892268999 -1
122 0.8232284468014962 0.2857142857123 -1
123 0.7908426264084666 0.7908426264080409 -1
124 -0.7908426264080409 0.7908426264084666 -1
125 0.7908426264080409 -0.7908426264084666 -1
126 -0.7908426264084666 -0.7908426264080409 -1
127 -0.080067345724174 -0.4496760623600314 -1
128 -0.02715954342742318 -0.7232593663773967 1
129 -0.002104004042704962 0.7537789176491634 1
130 -0.7282247490163161 0.01013222902921558 1
131 0.7468594510781914 0.003895185539863233 1
132 0.7436589792226614 0.5390312031674847 1
133 -0.5603785329715569 0.7589439130234148 1
134 -0.7589439130237379 -0.560378532971596 1
135 0.560378532971592 -0.7589439130237381 1
136 -0.284223279977161 0.7538299186768321 1
137 -0.1429593092395293 0.5055417566332224 1
138 0.1445508098522881 0.5140150649964587 1
139 0.004615696145353712 0.2617542656084533 1
140 -0.28496203075147 0.2584383727922346 1
141 -0.1419624843360915 0.01105795077555245 1
142 0.1481259813450231 0.01357891657497085 1
143 0.01228986734547398 -0.2299894220588291 1
144 0.2857142857188754 -0.2371791482620092 1
145 -0.2761068123124734 -0.2644712149116296 1
146 0.4437237063172337 0.01138649672742637 1
147 0.5714285714331636 -0.2371791482613135 1
148 0.5827914157276952 0.2745419536071222 1
149 0.1516414813519036 -0.4822867621669433 1
150 0.291878093062041 0.2682897249684261 1
151 0.4336089008847428 0.5204388398709007 1
152 -0.4263729064414974 0.5065958021428465 1
153 -0.5651707581247397 0.2627109519591789 1
154 -0.7359103633762953 0.535380674586308 1
155 -0.7547830593035403 -0.29121164886062 1
156 -0.5051283406937225 -0.4285714285698398 1
157 -0.5344541171056715 -0.7371184112952098 1
158 -0.2839740891767394 -0.5679380443511832 1
159 0.280810078481752 -0.7449363970436311 1
160 0.4277178681915852 -0.4973763960852454 1
161 0.7366797604822085 -0.5301664318957147 1
162 -0.4221380312714259 0.01347411673627534 1
163 0.2855280206874452 0.7591892101406961 1
164 0.5656838459978042 0.7669024383276533 1
165 0.8063907243710783 -0.283965796631715 1
166 -0.2845351931190029 -0.8071053955648959 1
167 -0.8086077196882331 0.2857142857107253 1
168 -0.5364013530874653 -0.1970235892268999 1
169 0.8232284468014962 0.2857142857123 1
170 0.7908426264084666 0.7908426264080409 1
171 -0.7908426264080409 0.7908426264084666 1
172 0.7908426264080409 -0.7908426264084666 1
173 -0.7908426264084666 -0.7908426264080409 1
174 -0.080067345724174 -0.4496760623600314 1
175 -0.7506281829389975 -1 0.0001759955156726637
176 0.7537789176492772 -1 0.002104004042584789
177 0.001496861917784995 -1 0.7256375699931201
178 0.006111419250408827 -1 -0.7463716919920979
179 0.5390312031672307 -1 -0.7436589792223189
180 -0.7557611713096659 -1 0.5629501725402287
181 0.580865959265231 -1 0.7548993182357694
182 -0.7486872316342491 -1 -0.5603785329752323
183 0.7541148264933688 -1 0.2837298051634798
184 0.5055892412695485 -1 0.1428770634372381
185 0.514022979102251 -1 -0.1445645174858035
186 0.2617634987321494 -1 -0.004631688384100422
187 0.2538674286670987 -1 0.2763651034958448
188 0.01046557914836195 -1 0.1402361629728223
189 0.0134817268241489 -1 -0.1484163669446149
190 -0.2395343830880218 -1 -0.0006872629482307935
191 -0.2370341798274964 -1 -0.2867553668891434
192 -0.239519099166112 -1 0.2868406295189353
193 0.01176383212621562 -1 -0.4438643242639696
194 -0.2371791482619349 -1 -0.5714285714317725
195 0.2749742151250401 -1 -0.5827335588707958
196 -0.4878762869206895 -1 -0.1426441940768126
197 0.2684113173674931 -1 -0.2919452341556317
198 0.5205324678745324 -1 -0.4336127328629965
199 -0.4879071053543054 -1 -0.4268677775633845
200 -0.525132202167985 -1 -0.7360705598788925
201 -0.7390911104112019 -1 -0.2845967148188795
202 -0.4971528291960409 -1 0.1455039562021452
203 -0.4973860384856026 -1 0.4293405317465955
204 -0.2326441767076952 -1 0.5722509271502561
205 -0.7501547036550511 -1 0.284899871238207
206 -0.5289357201803978 -1 0.7373593536857392
207 0.3146870634320482 -1 0.7384664285698004
208 0.4855686466198256 -1 0.467920808230596
209 0.003811540191584889 -1 0.4205034412920565
210 0.7592061338255311 -1 -0.2855309439559772
211 0.7663047764997771 -1 0.5688157312750649
212 0.7669024383271262 -1 -0.5656838459971072
213 -0.2830588854918303 -1 0.806131217955054
214 0.2118863081656684 -1 0.5257786703162836
215 -0.2655257005224104 -1 -0.8107741646605526
216 0.283786650373159 -1 -0.8209701167343155
217 0.7908426264080409 -1 -0.7908426264084666
218 -0.7908426264084666 -1 0.7908426264080409
219 0.7908426264083108 -1 0.7908426264083108
220 -0.7908426264094734 -1 -0.7908426264094734
221 1 -0.7506281829389975 0.0001759955156726681
222 1 0.7537789176492772 0.002104004042584789
223 1 0.001496861917784995 0.7256375699931201
224 1 0.006111419250408827 -0.7463716919920979
225 1 -0.7557611713096659 0.5629501725402287
226 1 0.5390312031672307 -0.7436589792223189
227 1 0.580865959265231 0.7548993182357694
228 1 -0.7486872316342491 -0.5603785329752323
229 1 0.7541148264933688 0.2837298051634798
230 1 0.5055892412695485 0.1428770634372381
231 1 0.514022979102251 -0.1445645174858035
232 1 0.2617634987321494 -0.004631688384100422
233 1 0.2538674286670987 0.2763651034958448
234 1 0.01046557914836195 0.1402361629728223
235 1 0.0134817268241489 -0.1484163669446149
236 1 -0.2395343830880218 -0.0006872629482307935
237 1 -0.2370341798274964 -0.2867553668891434
238 1 -0.239519099166112 0.2868406295189353
239 1 0.01176383212621562 -0.4438643242639696
240 1 -0.2371791482619349 -0.5714285714317725
241 1 0.2749742151250401 -0.5827335588707958
242 1 -0.4878762869206895 -0.1426441940768126
243 1 0.2684113173674931 -0.2919452341556317
244 1 0.5205324678745324 -0.4336127328629965
245 1 -0.4879071053543054 -0.4268677775633845
246 1 -0.525132202167985 -0.7360705598788925
247 1 -0.7390911104112019 -0.2845967148188795
248 1 -0.4971528291960409 0.1455039562021452
249 1 -0.4973860384856026 0.4293405317465955
250 1 -0.2326441767076952 0.5722509271502561
251 1 -0.7501547036550511 0.284899871238207
252 1 -0.5289357201803978 0.7373593536857392
253 1 0.3146870634320482 0.7384664285698004
254 1 0.4855686466198256 0.467920808230596
255 1 0.003811540191584889 0.4205034412920565
256 1 0.7592061338255311 -0.2855309439559772
257 1 0.7663047764997771 0.5688157312750649
258 1 0.7669024383271262 -0.5656838459971072
259 1 -0.2830588854918303 0.806131217955054
260 1 0.2118863081656684 0.5257786703162836
261 1 -0.2655257005224104 -0.8107741646605526
262 1 0.283786650373159 -0.8209701167343155
263 1 0.7908426264080409 -0.7908426264084666
264 1 -0.7908426264084666 0.7908426264080409
265 1 0.7908426264083108 0.7908426264083108
266 1 -0.7908426264094734 -0.7908426264094734
267 0.7506281829389975 1 0.0001759955156726637
268 -0.7537789176492772 1 0.002104004042584789
269 -0.001496861917784995 1 0.7256375699931201
270 -0.006111419250408827 1 -0.7463716919920979
271 0.7557611713096659 1 0.5629501725402287
272 -0.5390312031672307 1 -0.7436589792223189
273 -0.580865959265231 1 0.7548993182357694
274 0.7486872316342491 1 -0.5603785329752323
275 -0.7541148264933688 1 0.2837298051634798
276 -0.5055892412695485 1 0.1428770634372381
277 -0.514022979102251 1 -0.1445645174858035
278 -0.2617634987321494 1 -0.004631688384100422
279 -0.2538674286670987 1 0.2763651034958448
280 -0.01046557914836195 1 0.1402361629728223
281 -0.0134817268241489 1 -0.1484163669446149
282 0.2395343830880218 1 -0.0006872629482307935
283 0.2370341798274964 1 -0.2867553668891434
284 0.239519099166112 1 0.2868406295189353
285 -0.01176383212621562 1 -0.4438643242639696
286 0.2371791482619349 1 -0.5714285714317725
287 -0.2749742151250401 1 -0.5827335588707958
288 0.4878762869206895 1 -0.1426441940768126
289 -0.2684113173674931 1 -0.2919452341556317
290 -0.5205324678745324 1 -0.4336127328629965
291 0.4879071053543054 1 -0.4268677775633845
292 0.525132202167985 1 -0.7360705598788925
293 0.7390911104112019 1 -0.2845967148188795
294 0.4971528291960409 1 0.1455039562021452
295 0.4973860384856026 1 0.4293405317465955
296 0.2326441767076952 1 0.5722509271502561
297 0.7501547036550511 1 0.284899871238207
298 0.5289357201803978 1 0.7373593536857392
299 -0.3146870634320482 1 0.7384664285698004
300 -0.4855686466198256 1 0.467920808230596
301 -0.003811540191584889 1 0.4205034412920565
302 -0.7592061338255311 1 -0.2855309439559772
303 -0.7663047764997771 1 0.5688157312750649
304 -0.7669024383271262 1 -0.5656838459971072
305 0.2830588854918303 1 0.806131217955054
306 -0.2118863081656684 1 0.5257786703162836
307 0.2655257005224104 1 -0.8107741646605526
308 -0.283786650373159 1 -0.8209701167343155
309 -0.7908426264080409 1 -0.7908426264084666
310 0.7908426264084666 1 0.7908426264080409
311 -0.7908426264083108 1 0.7908426264083108
312 0.7908426264094734 1 -0.7908426264094734
313 -1 0.7506281829389962 0.0001759955156705058
314 -1 -0.7537789176492764 0.00210400404258503
315 -1 -0.001496861917782921 0.7256375699931155
316 -1 -0.006111419250411305 -0.7463716919921031
317 -1 -0.5390312031672325 -0.7436589792223213
318 -1 0.7557611713096619 0.5629501725402245
319 -1 -0.7580651299835077 0.5702178944898691
320 -1 0.7486872316342469 -0.560378532975241
321 -1 -0.7536834548370483 0.2858631735633448
322 -1 -0.5055173459934915 0.1432326248372141
323 -1 -0.5140109965562429 -0.1445052572524756
324 -1 -0.261749519095137 -0.004562551445221052
325 -1 -0.2538531161815817 0.2764358865523176
326 -1 -0.01046086379460377 0.1402594829720407
327 -1 -0.01347861099235486 -0.1484009574549385
328 -1 0.2395356882856131 -0.0006808080334239769
329 -1 0.2370349166657252 -0.2867517228217383
330 -1 0.2395201025913391 0.2868455920045974
331 -1 -0.0117631900145475 -0.443861148671128
332 -1 0.2371791482619289 -0.5714285714317846
333 -1 -0.2749741081064312 -0.5827330296053255
334 -1 0.4878764605631901 -0.142643335319834
335 -1 -0.2684063461766457 -0.2919206489022659
336 -1 -0.5205296244152896 -0.4335986704043032
337 -1 0.4879072571010906 -0.4268670270926632
338 -1 0.5251322238460951 -0.7360704526687931
339 -1 0.739091138080358 -0.2845965779798
340 -1 0.4971530402730176 0.1455050000930763
341 -1 0.4973862409026323 0.4293415328093567
342 -1 0.2326441767077041 0.5722509271502431
343 -1 0.7501547725707181 0.2849002120638213
344 -1 0.5289357490971153 0.7373594966947015
345 -1 -0.3107790175697003 0.7394254355174679
346 -1 -0.4812169137066508 0.4710740899290504
347 -1 -0.003808201647497867 0.4205199522156123
348 -1 -0.7592036628246563 -0.2855187235073078
349 -1 -0.573995627659729 0.7615628702567822
350 -1 -0.7669024383271299 -0.5656838459971119
351 -1 0.2830588854918181 0.8061312179550455
352 -1 -0.2102308222046427 0.5266185868415127
353 -1 0.2655257048580308 -0.8107741432185362
354 -1 -0.2837866448015948 -0.8209700891798902
355 -1 -0.7908426264080409 -0.7908426264084666
356 -1 0.7908426264084666 0.7908426264080409
357 -1 -0.7908426264083106 0.7908426264083106
358 -1 0.7908426264094734 -0.7908426264094734
359 0.00418919376990512 -0.004102417258420511 -0.00417144226924468
360 -0.3724519640122773 0.3620499614895267 0.3696810581107918
361 -0.3697423110293286 0.3693574394107879 -0.3716384179596083
362 0.3614245967515123 0.3752942452867357 0.3708083553126302
363 0.3775645238341043 -0.355899657414307 0.3780943957173161
364 0.3719067396174527 0.3714726365315407 -0.3719320340200231
365 -0.3784690567928241 -0.3801873596120102 0.339964806127701
366 0.381705949312612 -0.3485019609833148 -0.3818226615636336
367 -0.3714418746947248 -0.3707671576221675 -0.3739742465816249
368 -0.5086272929201257 0.0364537083041096 -0.004576971200432656
369 -0.03897068771848772 0.5077577295388027 -0.003808008343467256
370 0.07300998868243221 -0.5120027174392249 -0.003452329636902007
371 0.5118570048814964 0.04714443274559886 -0.003722600389228836
372 0.002891574400675972 0.0342018380409174 0.5078973540735784
373 0.002772101442686137 0.0479496354452548 -0.511925603825701
374 0.5607976113643182 -0.5582779473964045 -0.0006872828364394568
375 -0.5655012753629099 0.5633695188335878 0.0002592085720438675
376 -0.004267262758790205 -0.5546667270388449 0.5535482026638963
377 0.5645074643040303 0.5673630832176129 -0.0008878337575286832
378 -0.0006398549725882552 0.5584903220342715 -0.5672970897311589
379 0.00897370266201661 -0.5536530236976804 -0.5596571102293633
380 -0.0009391602742005781 0.5686461312202997 0.5705420679826287
381 -0.5592838934303485 -0.01577349071566455 0.559513246042282
382 -0.5692852768837623 -0.572493027903237 -0.02151703720920906
383 0.566809544236198 0.01591460840165928 0.5613036161755729
384 -0.5590473175397659 0.0003312835841821279 -0.5639946044685218
385 0.5674957720588729 0.01669980684700643 -0.5675305268801853
386 -0.6099281235612557 0.6156697861094009 0.5984208493981457
387 0.616275948710037 0.6105778863480613 0.599068360791473
388 -0.6090568330551653 0.6190896694930432 -0.5984510690711954
389 0.6112092859375637 -0.6168649803150877 0.5996975726149985
390 -0.6099190994461706 -0.6020317049306428 0.6102578196401492
391 0.6087452241814285 -0.6188090685129274 -0.598052099295708
392 0.6199182515694952 0.6099769778370476 -0.5996291804408784
393 -0.620051738218784 -0.6101252154676734 -0.5998189771353689
394 -0.2483680258944042 -0.2969522993840127 -0.01472262911261468
395 0.01129898785096354 -0.2716867651405524 -0.2976911987889554
396 -0.01284305746147416 -0.2789023543836575 0.2879859929928428
397 -0.2339125182264651 -0.6475369909853563 -0.165698320272687
398 -0.2839140083484946 -0.02716256989123943 0.2823738683858766
399 -0.2551220766059312 -0.02310748979215652 -0.2619431187907267
400 0.2628721176271911 -0.02878990118089958 0.2557994534368332
401 0.3065087337652166 0.004790428146954684 -0.3071713949157535
402 0.2326049040049787 0.2728705965570636 0.04757425021736938
403 0.6544225007721155 -0.2451815216275101 0.1650934562530968
404 -0.6651291600440334 -0.2595973402016702 0.1359871380042127
405 0.2521749525138091 0.6530886591641535 -0.1712403297848086
406 -0.1985185772714646 -0.2495686699424936 0.6372558170357945
407 0.341998310077531 -0.2713351802965654 -0.01405778538344497
408 -0.1581168827497299 -0.6499281829435876 0.2394118716643453
409 0.1684678819680209 -0.2416356948395059 -0.6560311357931508
410 0.227847424025816 0.6544929128988211 0.187599885319487
411 0.1687655676592234 -0.252534744269353 0.6565916997037502
412 -0.009924016049386825 0.3288114623620715 0.3049008655128957
413 0.655903549579361 -0.2207059272139167 -0.191480549552842
414 -0.6525665038758104 -0.1735174955943188 -0.2611928737522467
415 -0.6637283221847616 0.2880178042635336 -0.1958762676574878
416 -0.1890748726467925 0.6520318602183647 0.282498165091437
417 -0.19032830081938 0.2857080112487093 0.6615999566309403
418 -0.1924432732367763 -0.2226619857879828 -0.6508639753289389
419 -0.664781888325423 0.2843614875769942 0.1900999896515244
420 -0.2902944927321257 0.6627420011367364 -0.1947953275635388
421 0.02889809237770713 0.3293296563442352 -0.3005877582163173
422 0.2202371990296669 -0.6500259458223756 -0.2934152274627035
423 0.1889367771237372 0.2880922883800635 0.6644509646041802
424 -0.1983265989886273 0.2884063279877867 -0.663910921469371
425 0.6585396329768702 0.2939692766608267 0.2001674022504759
426 0.2079889213244577 -0.6513957549580298 0.2900923219188795
427 -0.235091433710069 0.2334234917123472 0.06320946697124037
428 0.664707983983039 0.2955070136696868 -0.1965940007189386
429 0.2004879797460175 0.2910099743103792 -0.6644792749952455
430 -0.2795667658554714 -0.6875327180532814 0.6881633286025535
431 -0.3041703574591398 -0.6900778582628453 -0.684845951851631
432 0.3015084854811832 0.607680590306523 -0.7021803327049769
433 -0.5839018996215468 -0.7067540719420851 0.2873510639449505
434 -0.6892832613925056 0.3030855084938813 -0.6849744224335608
435 -0.2972767569935512 0.6009489695552208 -0.707091155313708
436 -0.6867849524108687 -0.3103837159070114 0.4658107715603437
437 -0.5131361403819399 -0.3064235409666861 -0.6860159911448346
438 -0.6846330314070105 0.2980893448895946 0.6860131952845898
439 -0.5975899555577073 0.7185931714246699 -0.2829232880545337
440 0.6904490438684969 -0.3042140678708917 -0.684840775071669
441 0.5960816213412083 -0.7159994241710258 -0.2855467364233305
442 0.3011143892797493 0.6035588755373648 0.7061113474303278
443 0.6823139364626081 -0.293696079585802 0.6824322087527466
444 0.7166734316884206 -0.5839018996215468 0.2873510639449504
445 0.6829822470247739 0.677456798020062 -0.2855390404859041
446 -0.2992739235803334 0.5980012267672727 0.7091794722062355
447 0.297105816022585 -0.5584545469837889 0.6983221475901411
448 -0.7143638832782645 0.5915637388362747 0.2897547765454025
449 0.5839018996215468 0.7191796453184696 0.2873510639449504
450 0.3066629694133188 -0.5366711102072237 -0.6972691184374444
451 0.7013835469295878 0.3151291397880881 -0.7025791963287276
452 -0.6891572548904841 -0.6841897280626105 -0.2963292004587353
453 0.693344547484956 0.3086283550415787 0.5195559459347899
454 -0.4953317903240722 -0.3093625025710701 0.7119871282386778
455 -0.01239331476499951 0.7242337367149534 -0.3093669840685351
456 -0.718003799302142 -0.0007463253987169552 0.2953546604592397
457 0.3077147193232025 0.01203040979426861 0.725207589806053
458 0.3009051224451068 -0.7043397303349033 -0.01139483656445417
459 0.3105568996730407 0.01603393805036577 -0.7279659140972037
460 0.7220705435339091 0.01614964334095602 0.301660232478671
461 0.3898904899256347 0.7140872178427884 -0.4333647137620334
$EndNodes
$Elements
2298
1 2 2 2 1 1 9 126
2 2 2 2 1 32 1 126
3 2 2 2 1 14 2 125
4 2 2 2 1 2 15 125
5 2 2 2 1 20 3 123
6 2 2 2 1 3 21 123
7 2 2 2 1 26 4 124
8 2 2 2 1 4 27 124
9 2 2 2 1 9 10 110
10 2 2 2 1 9 110 126
11 2 2 2 1 10 11 119
12 2 2 2 1 110 10 119
13 2 2 2 1 11 12 81
14 2 2 2 1 11 81 119
15 2 2 2 1 12 13 112
16 2 2 2 1 81 12 112
17 2 2 2 1 13 14 87
18 2 2 2 1 13 87 112
19 2 2 2 1 87 14 125
20 2 2 2 1 15 16 114
21 2 2 2 1 15 114 125
22 2 2 2 1 16 17 118
23 2 2 2 1 114 16 118
24 2 2 2 1 17 18 84
25 2 2 2 1 17 84 118
26 2 2 2 1 18 19 122
27 2 2 2 1 84 18 122
28 2 2 2 1 19 20 85
29 2 2 2 1 19 85 122
30 2 2 2 1 85 20 123
31 2 2 2 1 21 22 117
32 2 2 2 1 21 117 123
33 2 2 2 1 22 23 116
34 2 2 2 1 22 116 117
35 2 2 2 1 23 24 82
36 2 2 2 1 23 82 116
37 2 2 2 1 24 25 89
38 2 2 2 1 82 24 89
39 2 2 2 1 25 26 86
40 2 2 2 1 25 86 89
41 2 2 2 1 86 26 124
42 2 2 2 1 27 28 107
43 2 2 2 1 27 107 124
44 2 2 2 1 28 29 120
45 2 2 2 1 107 28 120
46 2 2 2 1 29 30 83
47 2 2 2 1 29 83 120
48 2 2 2 1 30 31 108
49 2 2 2 1 83 30 108
50 2 2 2 1 31 32 88
51 2 2 2 1 31 88 108
52 2 2 2 1 88 32 126
53 2 2 2 1 102 81 112
54 2 2 2 1 81 102 127
55 2 2 2 1 81 111 119
56 2 2 2 1 111 81 127
57 2 2 2 1 82 89 90
58 2 2 2 1 82 90 91
59 2 2 2 1 82 91 116
60 2 2 2 1 106 83 115
61 2 2 2 1 83 106 120
62 2 2 2 1 83 108 121
63 2 2 2 1 115 83 121
64 2 2 2 1 84 99 100
65 2 2 2 1 99 84 101
66 2 2 2 1 84 100 118
67 2 2 2 1 101 84 122
68 2 2 2 1 101 85 104
69 2 2 2 1 85 101 122
70 2 2 2 1 104 85 117
71 2 2 2 1 117 85 123
72 2 2 2 1 89 86 105
73 2 2 2 1 105 86 107
74 2 2 2 1 107 86 124
75 2 2 2 1 112 87 113
76 2 2 2 1 113 87 114
77 2 2 2 1 114 87 125
78 2 2 2 1 108 88 109
79 2 2 2 1 109 88 110
80 2 2 2 1 110 88 126
81 2 2 2 1 90 89 105
82 2 2 2 1 91 90 92
83 2 2 2 1 92 90 93
84 2 2 2 1 93 90 105
85 2 2 2 1 91 92 103
86 2 2 2 1 91 103 104
87 2 2 2 1 91 104 116
88 2 2 2 1 92 93 94
89 2 2 2 1 92 94 95
90 2 2 2 1 92 95 103
91 2 2 2 1 94 93 115
92 2 2 2 1 93 105 106
93 2 2 2 1 93 106 115
94 2 2 2 1 95 94 96
95 2 2 2 1 96 94 98
96 2 2 2 1 98 94 115
97 2 2 2 1 95 96 97
98 2 2 2 1 95 97 99
99 2 2 2 1 95 99 103
100 2 2 2 1 97 96 102
101 2 2 2 1 96 98 127
102 2 2 2 1 102 96 127
103 2 2 2 1 99 97 100
104 2 2 2 1 100 97 113
105 2 2 2 1 97 102 113
106 2 2 2 1 98 109 111
107 2 2 2 1 109 98 121
108 2 2 2 1 98 111 127
109 2 2 2 1 98 115 121
110 2 2 2 1 99 101 103
111 2 2 2 1 100 113 114
112 2 2 2 1 100 114 118
113 2 2 2 1 103 101 104
114 2 2 2 1 102 112 113
115 2 2 2 1 116 104 117
116 2 2 2 1 106 105 107
117 2 2 2 1 106 107 120
118 2 2 2 1 108 109 121
119 2 2 2 1 109 110 111
120 2 2 2 1 111 110 119
121 2 2 1 2 5 33 173
122 2 2 1 2 56 5 173
123 2 2 1 2 38 6 172
124 2 2 1 2 6 39 172
125 2 2 1 2 44 7 170
126 2 2 1 2 7 45 170
127 2 2 1 2 50 8 171
128 2 2 1 2 8 51 171
129 2 2 1 2 33 34 157
130 2 2 1 2 33 157 173
131 2 2 1 2 34 35 166
132 2 2 1 2 157 34 166
133 2 2 1 2 35 36 128
134 2 2 1 2 35 128 166
135 2 2 1 2 36 37 159
136 2 2 1 2 128 36 159
137 2 2 1 2 37 38 135
138 2 2 1 2 37 135 159
139 2 2 1 2 135 38 172
140 2 2 1 2 39 40 161
141 2 2 1 2 39 161 172
142 2 2 1 2 40 41 165
143 2 2 1 2 161 40 165
144 2 2 1 2 41 42 131
145 2 2 1 2 41 131 165
146 2 2 1 2 42 43 169
147 2 2 1 2 131 42 169
148 2 2 1 2 43 44 132
149 2 2 1 2 43 132 169
150 2 2 1 2 132 44 170
151 2 2 1 2 45 46 164
152 2 2 1 2 45 164 170
153 2 2 1 2 46 47 163
154 2 2 1 2 46 163 164
155 2 2 1 2 47 48 129
156 2 2 1 2 47 129 163
157 2 2 1 2 48 49 136
158 2 2 1 2 129 48 136
159 2 2 1 2 49 50 133
160 2 2 1 2 49 133 136
161 2 2 1 2 133 50 171
162 2 2 1 2 51 52 154
163 2 2 1 2 51 154 171
164 2 2 1 2 52 53 167
165 2 2 1 2 154 52 167
166 2 2 1 2 53 54 130
167 2 2 1 2 53 130 167
168 2 2 1 2 54 55 155
169 2 2 1 2 130 54 155
170 2 2 1 2 55 56 134
171 2 2 1 2 55 134 155
172 2 2 1 2 134 56 173
173 2 2 1 2 149 128 159
174 2 2 1 2 128 149 174
175 2 2 1 2 128 158 166
176 2 2 1 2 158 128 174
177 2 2 1 2 129 136 137
178 2 2 1 2 129 137 138
179 2 2 1 2 129 138 163
180 2 2 1 2 153 130 162
181 2 2 1 2 130 153 167
182 2 2 1 2 130 155 168
183 2 2 1 2 162 130 168
184 2 2 1 2 131 146 147
185 2 2 1 2 146 131 148
186 2 2 1 2 131 147 165
187 2 2 1 2 148 131 169
188 2 2 1 2 148 132 151
189 2 2 1 2 132 148 169
190 2 2 1 2 151 132 164
191 2 2 1 2 164 132 170
192 2 2 1 2 136 133 152
193 2 2 1 2 152 133 154
194 2 2 1 2 154 133 171
195 2 2 1 2 155 134 156
196 2 2 1 2 156 134 157
197 2 2 1 2 157 134 173
198 2 2 1 2 159 135 160
199 2 2 1 2 160 135 161
200 2 2 1 2 161 135 172
201 2 2 1 2 137 136 152
202 2 2 1 2 138 137 139
203 2 2 1 2 139 137 140
204 2 2 1 2 140 137 152
205 2 2 1 2 138 139 150
206 2 2 1 2 138 150 151
207 2 2 1 2 138 151 163
208 2 2 1 2 139 140 141
209 2 2 1 2 139 141 142
210 2 2 1 2 139 142 150
211 2 2 1 2 141 140 162
212 2 2 1 2 140 152 153
213 2 2 1 2 140 153 162
214 2 2 1 2 142 141 143
215 2 2 1 2 143 141 145
216 2 2 1 2 145 141 162
217 2 2 1 2 142 143 144
218 2 2 1 2 142 144 146
219 2 2 1 2 142 146 150
220 2 2 1 2 144 143 149
221 2 2 1 2 143 145 174
222 2 2 1 2 149 143 174
223 2 2 1 2 146 144 147
224 2 2 1 2 147 144 160
225 2 2 1 2 144 149 160
226 2 2 1 2 145 156 158
227 2 2 1 2 156 145 168
228 2 2 1 2 145 158 174
229 2 2 1 2 145 162 168
230 2 2 1 2 146 148 150
231 2 2 1 2 147 160 161
232 2 2 1 2 147 161 165
233 2 2 1 2 150 148 151
234 2 2 1 2 149 159 160
235 2 2 1 2 163 151 164
236 2 2 1 2 153 152 154
237 2 2 1 2 153 154 167
238 2 2 1 2 155 156 168
239 2 2 1 2 156 157 158
240 2 2 1 2 158 157 166
241 2 2 2 3 1 9 220
242 2 2 2 3 57 1 220
243 2 2 2 3 14 2 217
244 2 2 2 3 2 63 217
245 2 2 2 3 33 5 218
246 2 2 2 3 5 62 218
247 2 2 2 3 6 38 219
248 2 2 2 3 68 6 219
249 2 2 2 3 9 10 200
250 2 2 2 3 9 200 220
251 2 2 2 3 10 11 215
252 2 2 2 3 200 10 215
253 2 2 2 3 11 12 178
254 2 2 2 3 11 178 215
255 2 2 2 3 12 13 216
256 2 2 2 3 178 12 216
257 2 2 2 3 13 14 179
258 2 2 2 3 13 179 216
259 2 2 2 3 179 14 217
260 2 2 2 3 34 33 206
261 2 2 2 3 206 33 218
262 2 2 2 3 35 34 213
263 2 2 2 3 34 206 213
264 2 2 2 3 36 35 177
265 2 2 2 3 177 35 213
266 2 2 2 3 37 36 207
267 2 2 2 3 36 177 207
268 2 2 2 3 38 37 181
269 2 2 2 3 181 37 207
270 2 2 2 3 38 181 219
271 2 2 2 3 58 57 182
272 2 2 2 3 182 57 220
273 2 2 2 3 59 58 201
274 2 2 2 3 58 182 201
275 2 2 2 3 60 59 175
276 2 2 2 3 175 59 201
277 2 2 2 3 61 60 205
278 2 2 2 3 60 175 205
279 2 2 2 3 62 61 180
280 2 2 2 3 180 61 205
281 2 2 2 3 62 180 218
282 2 2 2 3 63 64 212
283 2 2 2 3 63 212 217
284 2 2 2 3 64 65 210
285 2 2 2 3 64 210 212
286 2 2 2 3 65 66 176
287 2 2 2 3 65 176 210
288 2 2 2 3 66 67 183
289 2 2 2 3 176 66 183
290 2 2 2 3 67 68 211
291 2 2 2 3 183 67 211
292 2 2 2 3 211 68 219
293 2 2 2 3 196 175 201
294 2 2 2 3 175 196 202
295 2 2 2 3 175 202 205
296 2 2 2 3 176 183 184
297 2 2 2 3 176 184 185
298 2 2 2 3 176 185 210
299 2 2 2 3 177 204 209
300 2 2 2 3 204 177 213
301 2 2 2 3 207 177 214
302 2 2 2 3 177 209 214
303 2 2 2 3 178 193 194
304 2 2 2 3 193 178 195
305 2 2 2 3 178 194 215
306 2 2 2 3 195 178 216
307 2 2 2 3 195 179 198
308 2 2 2 3 179 195 216
309 2 2 2 3 198 179 212
310 2 2 2 3 212 179 217
311 2 2 2 3 203 180 205
312 2 2 2 3 180 203 206
313 2 2 2 3 180 206 218
314 2 2 2 3 181 207 208
315 2 2 2 3 181 208 211
316 2 2 2 3 181 211 219
317 2 2 2 3 199 182 200
318 2 2 2 3 182 199 201
319 2 2 2 3 200 182 220
320 2 2 2 3 184 183 208
321 2 2 2 3 208 183 211
322 2 2 2 3 185 184 186
323 2 2 2 3 186 184 187
324 2 2 2 3 187 184 208
325 2 2 2 3 185 186 197
326 2 2 2 3 185 197 198
327 2 2 2 3 185 198 210
328 2 2 2 3 186 187 188
329 2 2 2 3 186 188 189
330 2 2 2 3 186 189 197
331 2 2 2 3 188 187 209
332 2 2 2 3 187 208 214
333 2 2 2 3 209 187 214
334 2 2 2 3 189 188 190
335 2 2 2 3 190 188 192
336 2 2 2 3 192 188 209
337 2 2 2 3 189 190 191
338 2 2 2 3 189 191 193
339 2 2 2 3 189 193 197
340 2 2 2 3 191 190 196
341 2 2 2 3 190 192 202
342 2 2 2 3 196 190 202
343 2 2 2 3 193 191 194
344 2 2 2 3 194 191 199
345 2 2 2 3 191 196 199
346 2 2 2 3 202 192 203
347 2 2 2 3 203 192 204
348 2 2 2 3 204 192 209
349 2 2 2 3 193 195 197
350 2 2 2 3 194 199 200
351 2 2 2 3 194 200 215
352 2 2 2 3 197 195 198
353 2 2 2 3 199 196 201
354 2 2 2 3 210 198 212
355 2 2 2 3 202 203 205
356 2 2 2 3 203 204 206
357 2 2 2 3 206 204 213
358 2 2 2 3 208 207 214
359 2 2 2 4 2 15 266
360 2 2 2 4 63 2 266
361 2 2 2 4 20 3 263
362 2 2 2 4 3 69 263
363 2 2 2 4 39 6 264
364 2 2 2 4 6 68 264
365 2 2 2 4 7 44 265
366 2 2 2 4 74 7 265
367 2 2 2 4 15 16 246
368 2 2 2 4 15 246 266
369 2 2 2 4 16 17 261
370 2 2 2 4 246 16 261
371 2 2 2 4 17 18 224
372 2 2 2 4 17 224 261
373 2 2 2 4 18 19 262
374 2 2 2 4 224 18 262
375 2 2 2 4 19 20 226
376 2 2 2 4 19 226 262
377 2 2 2 4 226 20 263
378 2 2 2 4 40 39 252
379 2 2 2 4 252 39 264
380 2 2 2 4 41 40 259
381 2 2 2 4 40 252 259
382 2 2 2 4 42 41 223
383 2 2 2 4 223 41 259
384 2 2 2 4 43 42 253
385 2 2 2 4 42 223 253
386 2 2 2 4 44 43 227
387 2 2 2 4 227 43 253
388 2 2 2 4 44 227 265
389 2 2 2 4 64 63 228
390 2 2 2 4 228 63 266
391 2 2 2 4 65 64 247
392 2 2 2 4 64 228 247
393 2 2 2 4 66 65 221
394 2 2 2 4 221 65 247
395 2 2 2 4 67 66 251
396 2 2 2 4 66 221 251
397 2 2 2 4 68 67 225
398 2 2 2 4 225 67 251
399 2 2 2 4 68 225 264
400 2 2 2 4 69 70 258
401 2 2 2 4 69 258 263
402 2 2 2 4 70 71 256
403 2 2 2 4 70 256 258
404 2 2 2 4 71 72 222
405 2 2 2 4 71 222 256
406 2 2 2 4 72 73 229
407 2 2 2 4 222 72 229
408 2 2 2 4 73 74 257
409 2 2 2 4 229 73 257
410 2 2 2 4 257 74 265
411 2 2 2 4 242 221 247
412 2 2 2 4 221 242 248
413 2 2 2 4 221 248 251
414 2 2 2 4 222 229 230
415 2 2 2 4 222 230 231
416 2 2 2 4 222 231 256
417 2 2 2 4 223 250 255
418 2 2 2 4 250 223 259
419 2 2 2 4 253 223 260
420 2 2 2 4 223 255 260
421 2 2 2 4 224 239 240
422 2 2 2 4 239 224 241
423 2 2 2 4 224 240 261
424 2 2 2 4 241 224 262
425 2 2 2 4 249 225 251
426 2 2 2 4 225 249 252
427 2 2 2 4 225 252 264
428 2 2 2 4 241 226 244
429 2 2 2 4 226 241 262
430 2 2 2 4 244 226 258
431 2 2 2 4 258 226 263
432 2 2 2 4 227 253 254
433 2 2 2 4 227 254 257
434 2 2 2 4 227 257 265
435 2 2 2 4 245 228 246
436 2 2 2 4 228 245 247
437 2 2 2 4 246 228 266
438 2 2 2 4 230 229 254
439 2 2 2 4 254 229 257
440 2 2 2 4 231 230 232
441 2 2 2 4 232 230 233
442 2 2 2 4 233 230 254
443 2 2 2 4 231 232 243
444 2 2 2 4 231 243 244
445 2 2 2 4 231 244 256
446 2 2 2 4 232 233 234
447 2 2 2 4 232 234 235
448 2 2 2 4 232 235 243
449 2 2 2 4 234 233 255
450 2 2 2 4 233 254 260
451 2 2 2 4 255 233 260
452 2 2 2 4 235 234 236
453 2 2 2 4 236 234 238
454 2 2 2 4 238 234 255
455 2 2 2 4 235 236 237
456 2 2 2 4 235 237 239
457 2 2 2 4 235 239 243
458 2 2 2 4 237 236 242
459 2 2 2 4 236 238 248
460 2 2 2 4 242 236 248
461 2 2 2 4 239 237 240
462 2 2 2 4 240 237 245
463 2 2 2 4 237 242 245
464 2 2 2 4 248 238 249
465 2 2 2 4 249 238 250
466 2 2 2 4 250 238 255
467 2 2 2 4 239 241 243
468 2 2 2 4 240 245 246
469 2 2 2 4 240 246 261
470 2 2 2 4 243 241 244
471 2 2 2 4 245 242 247
472 2 2 2 4 256 244 258
473 2 2 2 4 248 249 251
474 2 2 2 4 249 250 252
475 2 2 2 4 252 250 259
476 2 2 2 4 254 253 260
477 2 2 2 5 3 21 312
478 2 2 2 5 69 3 312
479 2 2 2 5 26 4 309
480 2 2 2 5 4 75 309
481 2 2 2 5 45 7 310
482 2 2 2 5 7 74 310
483 2 2 2 5 8 50 311
484 2 2 2 5 80 8 311
485 2 2 2 5 21 22 292
486 2 2 2 5 21 292 312
487 2 2 2 5 22 23 307
488 2 2 2 5 292 22 307
489 2 2 2 5 23 24 270
490 2 2 2 5 23 270 307
491 2 2 2 5 24 25 308
492 2 2 2 5 270 24 308
493 2 2 2 5 25 26 272
494 2 2 2 5 25 272 308
495 2 2 2 5 272 26 309
496 2 2 2 5 46 45 298
497 2 2 2 5 298 45 310
498 2 2 2 5 47 46 305
499 2 2 2 5 46 298 305
500 2 2 2 5 48 47 269
501 2 2 2 5 269 47 305
502 2 2 2 5 49 48 299
503 2 2 2 5 48 269 299
504 2 2 2 5 50 49 273
505 2 2 2 5 273 49 299
506 2 2 2 5 50 273 311
507 2 2 2 5 70 69 274
508 2 2 2 5 274 69 312
509 2 2 2 5 71 70 293
510 2 2 2 5 70 274 293
511 2 2 2 5 72 71 267
512 2 2 2 5 267 71 293
513 2 2 2 5 73 72 297
514 2 2 2 5 72 267 297
515 2 2 2 5 74 73 271
516 2 2 2 5 271 73 297
517 2 2 2 5 74 271 310
518 2 2 2 5 75 76 304
519 2 2 2 5 75 304 309
520 2 2 2 5 76 77 302
521 2 2 2 5 76 302 304
522 2 2 2 5 77 78 268
523 2 2 2 5 77 268 302
524 2 2 2 5 78 79 275
525 2 2 2 5 268 78 275
526 2 2 2 5 79 80 303
527 2 2 2 5 275 79 303
528 2 2 2 5 303 80 311
529 2 2 2 5 288 267 293
530 2 2 2 5 267 288 294
531 2 2 2 5 267 294 297
532 2 2 2 5 268 275 276
533 2 2 2 5 268 276 277
534 2 2 2 5 268 277 302
535 2 2 2 5 269 296 301
536 2 2 2 5 296 269 305
537 2 2 2 5 299 269 306
538 2 2 2 5 269 301 306
539 2 2 2 5 270 285 286
540 2 2 2 5 285 270 287
541 2 2 2 5 270 286 307
542 2 2 2 5 287 270 308
543 2 2 2 5 295 271 297
544 2 2 2 5 271 295 298
545 2 2 2 5 271 298 310
546 2 2 2 5 287 272 290
547 2 2 2 5 272 287 308
548 2 2 2 5 290 272 304
549 2 2 2 5 304 272 309
550 2 2 2 5 273 299 300
551 2 2 2 5 273 300 303
552 2 2 2 5 273 303 311
553 2 2 2 5 291 274 292
554 2 2 2 5 274 291 293
555 2 2 2 5 292 274 312
556 2 2 2 5 276 275 300
557 2 2 2 5 300 275 303
558 2 2 2 5 277 276 278
559 2 2 2 5 278 276 279
560 2 2 2 5 279 276 300
561 2 2 2 5 277 278 289
562 2 2 2 5 277 289 290
563 2 2 2 5 277 290 302
564 2 2 2 5 278 279 280
565 2 2 2 5 278 280 281
566 2 2 2 5 278 281 289
567 2 2 2 5 280 279 301
568 2 2 2 5 279 300 306
569 2 2 2 5 301 279 306
570 2 2 2 5 281 280 282
571 2 2 2 5 282 280 284
572 2 2 2 5 284 280 301
573 2 2 2 5 281 282 283
574 2 2 2 5 281 283 285
575 2 2 2 5 281 285 289
576 2 2 2 5 283 282 288
577 2 2 2 5 282 284 294
578 2 2 2 5 288 282 294
579 2 2 2 5 285 283 286
580 2 2 2 5 286 283 291
581 2 2 2 5 283 288 291
582 2 2 2 5 294 284 295
583 2 2 2 5 295 284 296
584 2 2 2 5 296 284 301
585 2 2 2 5 285 287 289
586 2 2 2 5 286 291 292
587 2 2 2 5 286 292 307
588 2 2 2 5 289 287 290
589 2 2 2 5 291 288 293
590 2 2 2 5 302 290 304
591 2 2 2 5 294 295 297
592 2 2 2 5 295 296 298
593 2 2 2 5 298 296 305
594 2 2 2 5 300 299 306
595 2 2 2 6 32 1 355
596 2 2 2 6 1 57 355
597 2 2 2 6 4 27 358
598 2 2 2 6 75 4 358
599 2 2 2 6 5 56 357
600 2 2 2 6 62 5 357
601 2 2 2 6 51 8 356
602 2 2 2 6 8 80 356
603 2 2 2 6 27 28 338
604 2 2 2 6 27 338 358
605 2 2 2 6 28 29 353
606 2 2 2 6 338 28 353
607 2 2 2 6 29 30 316
608 2 2 2 6 29 316 353
609 2 2 2 6 30 31 354
610 2 2 2 6 316 30 354
611 2 2 2 6 31 32 317
612 2 2 2 6 31 317 354
613 2 2 2 6 317 32 355
614 2 2 2 6 52 51 344
615 2 2 2 6 344 51 356
616 2 2 2 6 53 52 351
617 2 2 2 6 52 344 351
618 2 2 2 6 54 53 315
619 2 2 2 6 315 53 351
620 2 2 2 6 55 54 345
621 2 2 2 6 54 315 345
622 2 2 2 6 56 55 349
623 2 2 2 6 55 345 349
624 2 2 2 6 56 349 357
625 2 2 2 6 57 58 350
626 2 2 2 6 57 350 355
627 2 2 2 6 58 59 348
628 2 2 2 6 58 348 350
629 2 2 2 6 59 60 314
630 2 2 2 6 59 314 348
631 2 2 2 6 60 61 321
632 2 2 2 6 314 60 321
633 2 2 2 6 61 62 319
634 2 2 2 6 61 319 321
635 2 2 2 6 319 62 357
636 2 2 2 6 76 75 320
637 2 2 2 6 320 75 358
638 2 2 2 6 77 76 339
639 2 2 2 6 76 320 339
640 2 2 2 6 78 77 313
641 2 2 2 6 313 77 339
642 2 2 2 6 79 78 343
643 2 2 2 6 78 313 343
644 2 2 2 6 80 79 318
645 2 2 2 6 318 79 343
646 2 2 2 6 80 318 356
647 2 2 2 6 334 313 339
648 2 2 2 6 313 334 340
649 2 2 2 6 313 340 343
650 2 2 2 6 314 321 322
651 2 2 2 6 314 322 323
652 2 2 2 6 314 323 348
653 2 2 2 6 315 342 347
654 2 2 2 6 342 315 351
655 2 2 2 6 345 315 352
656 2 2 2 6 315 347 352
657 2 2 2 6 316 331 332
658 2 2 2 6 331 316 333
659 2 2 2 6 316 332 353
660 2 2 2 6 333 316 354
661 2 2 2 6 333 317 336
662 2 2 2 6 317 333 354
663 2 2 2 6 336 317 350
664 2 2 2 6 350 317 355
665 2 2 2 6 341 318 343
666 2 2 2 6 318 341 344
667 2 2 2 6 318 344 356
668 2 2 2 6 321 319 346
669 2 2 2 6 346 319 349
670 2 2 2 6 349 319 357
671 2 2 2 6 337 320 338
672 2 2 2 6 320 337 339
673 2 2 2 6 338 320 358
674 2 2 2 6 322 321 346
675 2 2 2 6 323 322 324
676 2 2 2 6 324 322 325
677 2 2 2 6 325 322 346
678 2 2 2 6 323 324 335
679 2 2 2 6 323 335 336
680 2 2 2 6 323 336 348
681 2 2 2 6 324 325 326
682 2 2 2 6 324 326 327
683 2 2 2 6 324 327 335
684 2 2 2 6 326 325 347
685 2 2 2 6 325 346 352
686 2 2 2 6 347 325 352
687 2 2 2 6 327 326 328
688 2 2 2 6 328 326 330
689 2 2 2 6 330 326 347
690 2 2 2 6 327 328 329
691 2 2 2 6 327 329 331
692 2 2 2 6 327 331 335
693 2 2 2 6 329 328 334
694 2 2 2 6 328 330 340
695 2 2 2 6 334 328 340
696 2 2 2 6 331 329 332
697 2 2 2 6 332 329 337
698 2 2 2 6 329 334 337
699 2 2 2 6 340 330 341
700 2 2 2 6 341 330 342
701 2 2 2 6 342 330 347
702 2 2 2 6 331 333 335
703 2 2 2 6 332 337 338
704 2 2 2 6 332 338 353
705 2 2 2 6 335 333 336
706 2 2 2 6 337 334 339
707 2 2 2 6 348 336 350
708 2 2 2 6 340 341 343
709 2 2 2 6 341 342 344
710 2 2 2 6 344 342 351
711 2 2 2 6 345 346 349
712 2 2 2 6 346 345 352
713 4 2 3 1 148 423 442 453
714 4 2 3 1 393 431 397 452
715 4 2 3 1 199 397 431 452
716 4 2 3 1 239 385 413 428
717 4 2 3 1 162 406 381 417
718 4 2 3 1 245 413 391 441
719 4 2 3 1 333 414 393 437
720 4 2 3 1 193 379 191 397
721 4 2 3 1 148 423 453 457
722 4 2 3 1 239 413 235 428
723 4 2 3 1 287 435 420 439
724 4 2 3 1 393 397 367 452
725 4 2 3 1 148 442 387 453
726 4 2 3 1 333 336 393 414
727 4 2 3 1 199 431 393 452
728 4 2 3 1 367 397 393 431
729 4 2 3 1 148 453 383 457
730 4 2 3 1 141 406 162 417
731 4 2 3 1 190 382 202 408
732 4 2 3 1 393 414 336 452
733 4 2 3 1 278 416 375 420
734 4 2 3 1 190 397 382 408
735 4 2 3 1 245 391 413 440
736 4 2 3 1 345 381 155 454
737 4 2 3 1 287 290 435 439
738 4 2 3 1 115 384 418 424
739 4 2 3 1 290 388 435 439
740 4 2 3 1 296 442 410 449
741 4 2 3 1 300 416 386 448
742 4 2 3 1 391 413 366 441
743 4 2 3 1 381 406 372 417
744 4 2 3 1 276 375 416 448
745 4 2 3 1 155 345 315 381
746 4 2 3 1 372 398 381 417
747 4 2 3 1 281 280 369 405
748 4 2 3 1 191 193 194 379
749 4 2 3 1 369 405 280 410
750 4 2 3 1 130 155 315 381
751 4 2 3 1 245 242 413 441
752 4 2 3 1 324 404 323 414
753 4 2 3 1 384 399 373 424
754 4 2 3 1 300 276 416 448
755 4 2 3 1 323 404 382 414
756 4 2 3 1 371 413 401 428
757 4 2 3 1 401 413 385 428
758 4 2 3 1 281 280 278 369
759 4 2 3 1 202 408 382 433
760 4 2 3 1 188 370 189 397
761 4 2 3 1 241 385 239 428
762 4 2 3 1 243 241 239 428
763 4 2 3 1 316 333 354 437
764 4 2 3 1 193 379 397 422
765 4 2 3 1 381 398 372 406
766 4 2 3 1 369 416 375 427
767 4 2 3 1 373 418 384 424
768 4 2 3 1 234 371 235 413
769 4 2 3 1 278 276 375 416
770 4 2 3 1 296 295 442 449
771 4 2 3 1 287 420 435 455
772 4 2 3 1 83 384 316 437
773 4 2 3 1 370 397 188 408
774 4 2 3 1 234 403 371 413
775 4 2 3 1 280 278 369 416
776 4 2 3 1 199 397 191 431
777 4 2 3 1 323 414 382 452
778 4 2 3 1 345 436 381 454
779 4 2 3 1 331 414 384 415
780 4 2 3 1 223 131 169 453
781 4 2 3 1 366 413 391 440
782 4 2 3 1 148 151 387 442
783 4 2 3 1 332 329 331 415
784 4 2 3 1 162 417 381 438
785 4 2 3 1 232 235 234 371
786 4 2 3 1 373 399 384 418
787 4 2 3 1 184 426 374 458
788 4 2 3 1 384 414 399 415
789 4 2 3 1 241 385 428 451
790 4 2 3 1 130 155 381 454
791 4 2 3 1 368 399 414 415
792 4 2 3 1 278 281 369 420
793 4 2 3 1 115 418 94 424
794 4 2 3 1 281 282 280 405
795 4 2 3 1 327 328 326 368
796 4 2 3 1 282 280 405 410
797 4 2 3 1 184 374 426 444
798 4 2 3 1 316 384 333 437
799 4 2 3 1 296 380 410 442
800 4 2 3 1 208 426 389 444
801 4 2 3 1 332 331 384 415
802 4 2 3 1 367 414 393 452
803 4 2 3 1 238 443 403 444
804 4 2 3 1 184 426 208 444
805 4 2 3 1 142 372 139 423
806 4 2 3 1 141 372 142 411
807 4 2 3 1 148 169 131 453
808 4 2 3 1 327 368 326 404
809 4 2 3 1 223 383 131 453
810 4 2 3 1 335 414 323 452
811 4 2 3 1 142 141 139 372
812 4 2 3 1 223 169 253 453
813 4 2 3 1 141 142 143 411
814 4 2 3 1 232 371 234 425
815 4 2 3 1 410 442 362 449
816 4 2 3 1 361 384 399 415
817 4 2 3 1 192 408 203 430
818 4 2 3 1 374 413 242 441
819 4 2 3 1 203 430 408 433
820 4 2 3 1 375 415 361 427
821 4 2 3 1 143 406 141 411
822 4 2 3 1 141 139 372 417
823 4 2 3 1 375 416 360 427
824 4 2 3 1 361 420 375 427
825 4 2 3 1 278 369 416 420
826 4 2 3 1 326 368 328 419
827 4 2 3 1 337 415 388 439
828 4 2 3 1 95 373 94 409
829 4 2 3 1 141 406 372 411
830 4 2 3 1 141 372 406 417
831 4 2 3 1 106 384 115 424
832 4 2 3 1 362 442 423 453
833 4 2 3 1 235 371 232 428
834 4 2 3 1 148 131 383 453
835 4 2 3 1 327 328 368 415
836 4 2 3 1 140 162 153 417
837 4 2 3 1 333 384 414 437
838 4 2 3 1 139 372 417 423
839 4 2 3 1 162 153 417 438
840 4 2 3 1 106 384 424 434
841 4 2 3 1 195 422 391 450
842 4 2 3 1 386 416 360 448
843 4 2 3 1 244 428 392 451
844 4 2 3 1 361 399 384 424
845 4 2 3 1 386 416 300 446
846 4 2 3 1 234 236 403 413
847 4 2 3 1 234 235 236 413
848 4 2 3 1 92 94 95 373
849 4 2 3 1 193 397 189 422
850 4 2 3 1 336 414 335 452
851 4 2 3 1 249 443 238 444
852 4 2 3 1 393 414 367 437
853 4 2 3 1 92 373 95 429
854 4 2 3 1 368 404 327 414
855 4 2 3 1 192 203 408 433
856 4 2 3 1 375 416 369 420
857 4 2 3 1 214 208 426 447
858 4 2 3 1 216 112 178 450
859 4 2 3 1 384 332 415 434
860 4 2 3 1 362 423 400 457
861 4 2 3 1 306 300 416 446
862 4 2 3 1 94 409 373 418
863 4 2 3 1 97 440 409 450
864 4 2 3 1 317 88 108 437
865 4 2 3 1 81 379 178 450
866 4 2 3 1 337 388 415 434
867 4 2 3 1 331 327 414 415
868 4 2 3 1 362 400 383 457
869 4 2 3 1 317 393 88 437
870 4 2 3 1 198 391 195 422
871 4 2 3 1 96 95 94 409
872 4 2 3 1 375 420 369 427
873 4 2 3 1 94 373 92 424
874 4 2 3 1 403 443 238 460
875 4 2 3 1 188 397 190 408
876 4 2 3 1 362 400 425 460
877 4 2 3 1 178 379 195 450
878 4 2 3 1 333 335 336 414
879 4 2 3 1 296 380 301 410
880 4 2 3 1 354 317 108 437
881 4 2 3 1 331 329 327 415
882 4 2 3 1 362 383 400 460
883 4 2 3 1 144 411 443 447
884 4 2 3 1 371 235 413 428
885 4 2 3 1 198 391 422 441
886 4 2 3 1 188 189 190 397
887 4 2 3 1 216 178 195 450
888 4 2 3 1 379 397 367 431
889 4 2 3 1 361 399 421 427
890 4 2 3 1 278 375 277 420
891 4 2 3 1 245 413 237 440
892 4 2 3 1 196 202 190 382
893 4 2 3 1 106 115 93 424
894 4 2 3 1 282 288 294 405
895 4 2 3 1 375 360 416 448
896 4 2 3 1 389 426 208 447
897 4 2 3 1 189 370 188 458
898 4 2 3 1 96 409 94 418
899 4 2 3 1 368 419 326 456
900 4 2 3 1 139 137 138 380
901 4 2 3 1 196 382 190 397
902 4 2 3 1 408 430 365 433
903 4 2 3 1 374 403 242 413
904 4 2 3 1 354 333 317 437
905 4 2 3 1 361 421 369 427
906 4 2 3 1 177 214 376 447
907 4 2 3 1 144 443 411 457
908 4 2 3 1 392 428 244 445
909 4 2 3 1 382 404 394 414
910 4 2 3 1 381 398 360 417
911 4 2 3 1 236 242 403 413
912 4 2 3 1 361 368 399 427
913 4 2 3 1 91 90 92 378
914 4 2 3 1 395 397 379 422
915 4 2 3 1 232 371 425 428
916 4 2 3 1 375 419 415 427
917 4 2 3 1 112 81 178 450
918 4 2 3 1 137 380 139 417
919 4 2 3 1 368 361 415 427
920 4 2 3 1 429 432 364 451
921 4 2 3 1 361 369 420 427
922 4 2 3 1 288 377 294 405
923 4 2 3 1 373 92 424 429
924 4 2 3 1 155 134 345 390
925 4 2 3 1 242 374 248 403
926 4 2 3 1 362 387 442 453
927 4 2 3 1 328 368 415 419
928 4 2 3 1 221 374 176 444
929 4 2 3 1 369 281 405 455
930 4 2 3 1 301 410 380 416
931 4 2 3 1 150 423 148 457
932 4 2 3 1 322 433 404 436
933 4 2 3 1 268 313 375 448
934 4 2 3 1 415 419 368 427
935 4 2 3 1 295 387 442 449
936 4 2 3 1 138 139 380 423
937 4 2 3 1 359 398 372 412
938 4 2 3 1 127 379 418 431
939 4 2 3 1 370 189 397 422
940 4 2 3 1 128 177 376 447
941 4 2 3 1 221 176 374 441
942 4 2 3 1 92 378 90 424
943 4 2 3 1 296 301 284 410
944 4 2 3 1 336 335 323 452
945 4 2 3 1 234 425 371 460
946 4 2 3 1 236 242 248 403
947 4 2 3 1 175 382 314 433
948 4 2 3 1 382 394 367 414
949 4 2 3 1 368 414 327 415
950 4 2 3 1 289 420 287 455
951 4 2 3 1 359 396 370 407
952 4 2 3 1 392 364 432 451
953 4 2 3 1 287 435 378 455
954 4 2 3 1 270 378 82 432
955 4 2 3 1 392 428 364 451
956 4 2 3 1 268 375 313 439
957 4 2 3 1 369 420 281 455
958 4 2 3 1 91 378 92 429
959 4 2 3 1 244 241 428 451
960 4 2 3 1 359 401 373 421
961 4 2 3 1 254 449 425 453
962 4 2 3 1 333 393 317 437
963 4 2 3 1 139 417 380 423
964 4 2 3 1 373 94 418 424
965 4 2 3 1 195 379 422 450
966 4 2 3 1 234 371 403 460
967 4 2 3 1 367 382 414 452
968 4 2 3 1 144 443 160 447
969 4 2 3 1 244 241 243 428
970 4 2 3 1 359 401 371 407
971 4 2 3 1 345 155 390 454
972 4 2 3 1 334 415 337 439
973 4 2 3 1 361 415 388 434
974 4 2 3 1 385 364 428 451
975 4 2 3 1 334 415 375 419
976 4 2 3 1 380 362 410 442
977 4 2 3 1 362 371 400 402
978 4 2 3 1 372 400 359 412
979 4 2 3 1 403 443 363 444
980 4 2 3 1 199 196 397 452
981 4 2 3 1 364 401 371 402
982 4 2 3 1 359 370 395 407
983 4 2 3 1 359 368 394 398
984 4 2 3 1 82 378 270 435
985 4 2 3 1 382 394 365 408
986 4 2 3 1 334 375 340 419
987 4 2 3 1 368 326 404 456
988 4 2 3 1 134 390 155 454
989 4 2 3 1 142 411 372 457
990 4 2 3 1 280 369 410 416
991 4 2 3 1 370 397 395 422
992 4 2 3 1 402 425 371 428
993 4 2 3 1 169 148 132 453
994 4 2 3 1 377 402 364 428
995 4 2 3 1 371 364 402 428
996 4 2 3 1 359 368 398 427
997 4 2 3 1 242 221 374 441
998 4 2 3 1 362 371 402 425
999 4 2 3 1 424 434 361 435
1000 4 2 3 1 378 424 92 429
1001 4 2 3 1 362 400 371 425
1002 4 2 3 1 334 313 375 439
1003 4 2 3 1 382 397 394 408
1004 4 2 3 1 400 411 363 457
1005 4 2 3 1 278 276 277 375
1006 4 2 3 1 363 403 400 460
1007 4 2 3 1 400 423 372 457
1008 4 2 3 1 364 385 429 451
1009 4 2 3 1 383 400 363 457
1010 4 2 3 1 368 359 394 399
1011 4 2 3 1 267 377 222 449
1012 4 2 3 1 388 415 361 439
1013 4 2 3 1 374 426 407 458
1014 4 2 3 1 360 419 398 456
1015 4 2 3 1 162 381 406 454
1016 4 2 3 1 419 438 360 448
1017 4 2 3 1 269 129 380 442
1018 4 2 3 1 361 399 368 415
1019 4 2 3 1 142 372 423 457
1020 4 2 3 1 376 214 426 447
1021 4 2 3 1 349 345 134 390
1022 4 2 3 1 359 371 401 402
1023 4 2 3 1 333 384 331 414
1024 4 2 3 1 363 407 374 426
1025 4 2 3 1 389 426 363 444
1026 4 2 3 1 362 372 400 423
1027 4 2 3 1 360 381 417 438
1028 4 2 3 1 230 231 232 428
1029 4 2 3 1 101 451 429 459
1030 4 2 3 1 129 269 380 446
1031 4 2 3 1 367 379 395 397
1032 4 2 3 1 387 362 442 449
1033 4 2 3 1 363 400 383 460
1034 4 2 3 1 130 168 155 454
1035 4 2 3 1 359 402 421 427
1036 4 2 3 1 359 395 373 401
1037 4 2 3 1 127 418 111 431
1038 4 2 3 1 359 373 399 421
1039 4 2 3 1 192 203 204 430
1040 4 2 3 1 360 398 381 456
1041 4 2 3 1 300 276 279 416
1042 4 2 3 1 148 387 132 453
1043 4 2 3 1 230 425 254 449
1044 4 2 3 1 334 328 415 419
1045 4 2 3 1 369 421 402 427
1046 4 2 3 1 360 438 417 446
1047 4 2 3 1 377 425 402 428
1048 4 2 3 1 95 373 409 459
1049 4 2 3 1 359 371 400 407
1050 4 2 3 1 169 132 253 453
1051 4 2 3 1 364 402 377 405
1052 4 2 3 1 368 359 399 427
1053 4 2 3 1 95 429 373 459
1054 4 2 3 1 363 370 396 407
1055 4 2 3 1 361 399 373 421
1056 4 2 3 1 362 400 372 412
1057 4 2 3 1 359 396 372 398
1058 4 2 3 1 101 429 103 459
1059 4 2 3 1 175 314 205 433
1060 4 2 3 1 360 416 386 446
1061 4 2 3 1 359 421 399 427
1062 4 2 3 1 127 379 409 418
1063 4 2 3 1 100 440 97 450
1064 4 2 3 1 193 195 379 422
1065 4 2 3 1 176 374 184 444
1066 4 2 3 1 370 359 394 396
1067 4 2 3 1 368 394 404 414
1068 4 2 3 1 82 116 307 432
1069 4 2 3 1 334 340 328 419
1070 4 2 3 1 359 370 394 395
1071 4 2 3 1 359 402 401 421
1072 4 2 3 1 361 384 415 434
1073 4 2 3 1 370 408 188 426
1074 4 2 3 1 374 363 426 444
1075 4 2 3 1 370 426 188 458
1076 4 2 3 1 128 159 177 447
1077 4 2 3 1 324 327 404 414
1078 4 2 3 1 390 365 430 433
1079 4 2 3 1 181 135 389 447
1080 4 2 3 1 361 373 399 424
1081 4 2 3 1 372 360 398 417
1082 4 2 3 1 360 372 398 412
1083 4 2 3 1 276 268 375 448
1084 4 2 3 1 189 422 370 458
1085 4 2 3 1 378 361 421 455
1086 4 2 3 1 193 191 189 397
1087 4 2 3 1 372 396 359 400
1088 4 2 3 1 384 361 424 434
1089 4 2 3 1 250 238 443 460
1090 4 2 3 1 270 82 307 432
1091 4 2 3 1 305 163 129 442
1092 4 2 3 1 324 323 335 414
1093 4 2 3 1 375 415 334 439
1094 4 2 3 1 314 382 322 433
1095 4 2 3 1 327 326 324 404
1096 4 2 3 1 360 372 412 417
1097 4 2 3 1 199 191 194 431
1098 4 2 3 1 330 419 342 456
1099 4 2 3 1 420 421 361 455
1100 4 2 3 1 371 425 400 460
1101 4 2 3 1 221 176 251 444
1102 4 2 3 1 230 377 231 428
1103 4 2 3 1 376 406 174 411
1104 4 2 3 1 345 390 436 454
1105 4 2 3 1 287 270 378 435
1106 4 2 3 1 144 147 443 457
1107 4 2 3 1 388 361 434 435
1108 4 2 3 1 235 243 239 428
1109 4 2 3 1 111 431 418 437
1110 4 2 3 1 129 136 269 446
1111 4 2 3 1 121 83 108 437
1112 4 2 3 1 346 433 322 436
1113 4 2 3 1 268 343 313 448
1114 4 2 3 1 380 306 416 446
1115 4 2 3 1 322 382 404 433
1116 4 2 3 1 409 440 366 450
1117 4 2 3 1 369 361 420 421
1118 4 2 3 1 177 207 214 447
1119 4 2 3 1 179 391 87 450
1120 4 2 3 1 366 395 370 407
1121 4 2 3 1 181 207 135 447
1122 4 2 3 1 368 419 398 427
1123 4 2 3 1 365 398 404 456
1124 4 2 3 1 365 381 398 456
1125 4 2 3 1 297 267 222 449
1126 4 2 3 1 130 381 168 454
1127 4 2 3 1 373 395 359 399
1128 4 2 3 1 366 374 407 422
1129 4 2 3 1 319 390 180 433
1130 4 2 3 1 398 419 360 427
1131 4 2 3 1 195 179 216 450
1132 4 2 3 1 242 247 221 441
1133 4 2 3 1 374 366 413 441
1134 4 2 3 1 221 210 176 441
1135 4 2 3 1 306 380 269 446
1136 4 2 3 1 359 400 371 402
1137 4 2 3 1 144 147 160 443
1138 4 2 3 1 334 339 313 439
1139 4 2 3 1 370 395 366 422
1140 4 2 3 1 222 377 230 449
1141 4 2 3 1 102 127 379 409
1142 4 2 3 1 177 159 207 447
1143 4 2 3 1 174 149 376 411
1144 4 2 3 1 287 378 285 455
1145 4 2 3 1 240 245 237 440
1146 4 2 3 1 364 401 385 428
1147 4 2 3 1 329 332 337 415
1148 4 2 3 1 385 429 451 459
1149 4 2 3 1 385 413 366 440
1150 4 2 3 1 115 418 384 437
1151 4 2 3 1 268 313 302 439
1152 4 2 3 1 363 396 370 426
1153 4 2 3 1 366 407 370 422
1154 4 2 3 1 342 419 438 456
1155 4 2 3 1 373 361 421 424
1156 4 2 3 1 407 422 374 458
1157 4 2 3 1 386 360 438 448
1158 4 2 3 1 222 377 267 445
1159 4 2 3 1 175 314 382 452
1160 4 2 3 1 174 406 376 430
1161 4 2 3 1 360 419 375 427
1162 4 2 3 1 178 193 195 379
1163 4 2 3 1 365 436 381 456
1164 4 2 3 1 359 395 401 407
1165 4 2 3 1 121 384 83 437
1166 4 2 3 1 305 129 269 442
1167 4 2 3 1 195 391 179 450
1168 4 2 3 1 366 409 401 459
1169 4 2 3 1 363 443 411 447
1170 4 2 3 1 394 398 368 404
1171 4 2 3 1 280 410 301 416
1172 4 2 3 1 346 390 319 433
1173 4 2 3 1 372 362 412 423
1174 4 2 3 1 304 302 320 439
1175 4 2 3 1 249 250 238 443
1176 4 2 3 1 370 407 363 426
1177 4 2 3 1 382 408 365 433
1178 4 2 3 1 207 208 214 447
1179 4 2 3 1 359 398 412 427
1180 4 2 3 1 366 401 385 459
1181 4 2 3 1 385 401 364 429
1182 4 2 3 1 270 285 287 378
1183 4 2 3 1 212 210 228 441
1184 4 2 3 1 371 401 364 428
1185 4 2 3 1 365 404 436 456
1186 4 2 3 1 254 387 449 453
1187 4 2 3 1 323 322 382 404
1188 4 2 3 1 370 407 426 458
1189 4 2 3 1 401 402 364 421
1190 4 2 3 1 247 210 221 441
1191 4 2 3 1 364 405 378 421
1192 4 2 3 1 337 415 332 434
1193 4 2 3 1 364 428 392 445
1194 4 2 3 1 320 339 337 439
1195 4 2 3 1 401 429 385 459
1196 4 2 3 1 382 397 196 452
1197 4 2 3 1 368 399 394 414
1198 4 2 3 1 199 196 191 397
1199 4 2 3 1 302 313 339 439
1200 4 2 3 1 364 378 405 461
1201 4 2 3 1 360 386 438 446
1202 4 2 3 1 205 314 321 433
1203 4 2 3 1 320 337 388 439
1204 4 2 3 1 333 316 331 384
1205 4 2 3 1 304 320 388 439
1206 4 2 3 1 190 202 192 408
1207 4 2 3 1 247 245 228 441
1208 4 2 3 1 90 91 82 378
1209 4 2 3 1 320 302 339 439
1210 4 2 3 1 323 324 322 404
1211 4 2 3 1 183 251 176 444
1212 4 2 3 1 379 367 418 431
1213 4 2 3 1 365 398 394 404
1214 4 2 3 1 384 399 367 418
1215 4 2 3 1 359 400 396 407
1216 4 2 3 1 247 228 210 441
1217 4 2 3 1 343 268 275 448
1218 4 2 3 1 376 365 408 430
1219 4 2 3 1 82 378 91 432
1220 4 2 3 1 98 111 418 437
1221 4 2 3 1 181 389 207 447
1222 4 2 3 1 222 229 297 449
1223 4 2 3 1 382 367 397 452
1224 4 2 3 1 286 378 270 432
1225 4 2 3 1 209 376 214 426
1226 4 2 3 1 158 406 174 430
1227 4 2 3 1 225 211 389 444
1228 4 2 3 1 245 391 228 441
1229 4 2 3 1 90 378 82 435
1230 4 2 3 1 368 398 419 456
1231 4 2 3 1 212 228 391 441
1232 4 2 3 1 208 184 187 426
1233 4 2 3 1 257 387 271 449
1234 4 2 3 1 178 379 81 431
1235 4 2 3 1 127 409 96 418
1236 4 2 3 1 176 185 374 441
1237 4 2 3 1 192 408 202 433
1238 4 2 3 1 278 279 276 416
1239 4 2 3 1 129 138 137 380
1240 4 2 3 1 303 386 318 448
1241 4 2 3 1 146 148 383 457
1242 4 2 3 1 214 209 177 376
1243 4 2 3 1 319 180 321 433
1244 4 2 3 1 402 405 364 421
1245 4 2 3 1 357 173 218 390
1246 4 2 3 1 221 248 242 374
1247 4 2 3 1 312 117 123 392
1248 4 2 3 1 373 421 401 429
1249 4 2 3 1 367 394 399 414
1250 4 2 3 1 237 245 242 413
1251 4 2 3 1 207 389 208 447
1252 4 2 3 1 401 421 364 429
1253 4 2 3 1 380 410 362 412
1254 4 2 3 1 346 319 321 433
1255 4 2 3 1 124 86 309 388
1256 4 2 3 1 378 286 455 461
1257 4 2 3 1 362 377 402 410
1258 4 2 3 1 339 334 337 439
1259 4 2 3 1 299 269 136 446
1260 4 2 3 1 277 375 268 439
1261 4 2 3 1 205 321 180 433
1262 4 2 3 1 366 374 422 441
1263 4 2 3 1 365 376 406 430
1264 4 2 3 1 141 162 140 417
1265 4 2 3 1 133 386 273 446
1266 4 2 3 1 130 381 315 438
1267 4 2 3 1 309 358 124 388
1268 4 2 3 1 143 174 406 411
1269 4 2 3 1 230 377 425 449
1270 4 2 3 1 363 426 389 447
1271 4 2 3 1 183 225 251 444
1272 4 2 3 1 400 402 359 412
1273 4 2 3 1 263 312 123 392
1274 4 2 3 1 218 180 319 390
1275 4 2 3 1 131 146 148 383
1276 4 2 3 1 81 379 127 431
1277 4 2 3 1 203 390 430 433
1278 4 2 3 1 365 430 406 454
1279 4 2 3 1 245 247 242 441
1280 4 2 3 1 217 266 125 391
1281 4 2 3 1 346 390 433 436
1282 4 2 3 1 88 355 126 393
1283 4 2 3 1 334 313 340 375
1284 4 2 3 1 356 311 171 386
1285 4 2 3 1 362 402 377 425
1286 4 2 3 1 306 301 380 416
1287 4 2 3 1 271 297 229 449
1288 4 2 3 1 100 97 113 450
1289 4 2 3 1 115 94 93 424
1290 4 2 3 1 128 376 177 430
1291 4 2 3 1 225 183 211 444
1292 4 2 3 1 316 384 83 434
1293 4 2 3 1 218 319 357 390
1294 4 2 3 1 389 363 443 444
1295 4 2 3 1 231 377 222 445
1296 4 2 3 1 170 164 310 387
1297 4 2 3 1 355 220 126 393
1298 4 2 3 1 303 275 386 448
1299 4 2 3 1 183 176 184 444
1300 4 2 3 1 159 135 207 447
1301 4 2 3 1 129 138 380 442
1302 4 2 3 1 178 194 193 379
1303 4 2 3 1 162 381 130 438
1304 4 2 3 1 128 174 149 376
1305 4 2 3 1 148 151 132 387
1306 4 2 3 1 222 230 229 449
1307 4 2 3 1 310 265 170 387
1308 4 2 3 1 137 129 380 446
1309 4 2 3 1 418 431 367 437
1310 4 2 3 1 176 185 184 374
1311 4 2 3 1 405 378 421 455
1312 4 2 3 1 99 385 101 459
1313 4 2 3 1 275 318 343 448
1314 4 2 3 1 366 385 401 413
1315 4 2 3 1 158 406 430 454
1316 4 2 3 1 87 217 125 391
1317 4 2 3 1 257 271 229 449
1318 4 2 3 1 323 382 314 452
1319 4 2 3 1 378 432 286 461
1320 4 2 3 1 107 124 358 388
1321 4 2 3 1 224 239 241 385
1322 4 2 3 1 218 173 157 390
1323 4 2 3 1 365 394 382 404
1324 4 2 3 1 127 98 111 418
1325 4 2 3 1 372 411 400 457
1326 4 2 3 1 365 398 381 406
1327 4 2 3 1 110 126 220 393
1328 4 2 3 1 295 387 298 442
1329 4 2 3 1 385 451 101 459
1330 4 2 3 1 377 405 402 410
1331 4 2 3 1 219 172 264 389
1332 4 2 3 1 392 432 104 451
1333 4 2 3 1 294 410 377 449
1334 4 2 3 1 263 123 85 392
1335 4 2 3 1 425 449 362 453
1336 4 2 3 1 391 422 366 450
1337 4 2 3 1 303 318 275 448
1338 4 2 3 1 276 275 268 448
1339 4 2 3 1 309 304 358 388
1340 4 2 3 1 102 379 81 450
1341 4 2 3 1 358 304 320 388
1342 4 2 3 1 263 258 312 392
1343 4 2 3 1 84 101 99 385
1344 4 2 3 1 224 385 84 440
1345 4 2 3 1 410 412 380 416
1346 4 2 3 1 274 312 258 392
1347 4 2 3 1 366 422 391 441
1348 4 2 3 1 363 396 400 407
1349 4 2 3 1 321 314 322 433
1350 4 2 3 1 194 379 178 431
1351 4 2 3 1 377 405 288 445
1352 4 2 3 1 89 272 86 435
1353 4 2 3 1 183 389 211 444
1354 4 2 3 1 257 229 387 449
1355 4 2 3 1 217 212 266 391
1356 4 2 3 1 84 385 224 451
1357 4 2 3 1 268 277 276 375
1358 4 2 3 1 221 248 374 444
1359 4 2 3 1 209 408 376 426
1360 4 2 3 1 272 388 86 435
1361 4 2 3 1 228 266 212 391
1362 4 2 3 1 404 433 365 436
1363 4 2 3 1 154 356 171 386
1364 4 2 3 1 365 390 430 454
1365 4 2 3 1 313 340 375 448
1366 4 2 3 1 86 272 309 388
1367 4 2 3 1 173 349 134 390
1368 4 2 3 1 223 131 383 443
1369 4 2 3 1 355 350 220 393
1370 4 2 3 1 241 224 385 451
1371 4 2 3 1 267 294 288 377
1372 4 2 3 1 171 273 133 386
1373 4 2 3 1 220 350 182 393
1374 4 2 3 1 352 347 315 381
1375 4 2 3 1 370 422 407 458
1376 4 2 3 1 288 267 377 445
1377 4 2 3 1 105 388 434 435
1378 4 2 3 1 377 364 405 445
1379 4 2 3 1 128 376 149 447
1380 4 2 3 1 196 175 202 382
1381 4 2 3 1 260 383 223 453
1382 4 2 3 1 102 127 81 379
1383 4 2 3 1 308 272 89 435
1384 4 2 3 1 101 385 84 451
1385 4 2 3 1 362 402 400 412
1386 4 2 3 1 239 237 235 413
1387 4 2 3 1 317 355 88 393
1388 4 2 3 1 299 133 273 446
1389 4 2 3 1 367 399 384 414
1390 4 2 3 1 367 395 394 397
1391 4 2 3 1 286 285 378 455
1392 4 2 3 1 196 175 382 452
1393 4 2 3 1 318 303 356 386
1394 4 2 3 1 378 455 405 461
1395 4 2 3 1 286 285 270 378
1396 4 2 3 1 394 395 370 397
1397 4 2 3 1 396 400 372 411
1398 4 2 3 1 125 266 114 391
1399 4 2 3 1 269 380 296 442
1400 4 2 3 1 357 349 173 390
1401 4 2 3 1 367 395 379 418
1402 4 2 3 1 369 405 402 421
1403 4 2 3 1 202 382 175 433
1404 4 2 3 1 174 376 128 430
1405 4 2 3 1 83 115 106 384
1406 4 2 3 1 371 400 403 460
1407 4 2 3 1 230 254 229 449
1408 4 2 3 1 363 400 396 411
1409 4 2 3 1 171 311 273 386
1410 4 2 3 1 184 208 183 444
1411 4 2 3 1 306 300 279 416
1412 4 2 3 1 300 386 275 448
1413 4 2 3 1 257 310 271 387
1414 4 2 3 1 263 85 226 392
1415 4 2 3 1 375 361 415 439
1416 4 2 3 1 356 303 311 386
1417 4 2 3 1 197 198 195 422
1418 4 2 3 1 363 396 376 411
1419 4 2 3 1 179 217 87 391
1420 4 2 3 1 254 387 229 449
1421 4 2 3 1 208 389 183 444
1422 4 2 3 1 299 306 269 446
1423 4 2 3 1 162 130 153 438
1424 4 2 3 1 162 168 130 381
1425 4 2 3 1 265 227 170 387
1426 4 2 3 1 367 394 382 397
1427 4 2 3 1 269 306 301 380
1428 4 2 3 1 146 383 147 457
1429 4 2 3 1 303 275 300 386
1430 4 2 3 1 222 231 230 377
1431 4 2 3 1 106 83 384 434
1432 4 2 3 1 248 403 374 444
1433 4 2 3 1 382 365 404 433
1434 4 2 3 1 310 257 265 387
1435 4 2 3 1 363 376 396 426
1436 4 2 3 1 257 229 254 387
1437 4 2 3 1 225 211 264 389
1438 4 2 3 1 149 376 411 447
1439 4 2 3 1 100 113 440 450
1440 4 2 3 1 208 211 183 389
1441 4 2 3 1 83 121 115 384
1442 4 2 3 1 181 172 219 389
1443 4 2 3 1 332 331 316 384
1444 4 2 3 1 181 135 172 389
1445 4 2 3 1 360 380 416 446
1446 4 2 3 1 342 381 347 456
1447 4 2 3 1 322 314 323 382
1448 4 2 3 1 131 147 146 383
1449 4 2 3 1 162 406 145 454
1450 4 2 3 1 287 308 270 435
1451 4 2 3 1 307 286 270 432
1452 4 2 3 1 219 264 211 389
1453 4 2 3 1 366 401 395 407
1454 4 2 3 1 172 161 264 389
1455 4 2 3 1 405 445 364 461
1456 4 2 3 1 341 386 438 448
1457 4 2 3 1 177 209 204 376
1458 4 2 3 1 364 432 378 461
1459 4 2 3 1 175 348 314 452
1460 4 2 3 1 368 404 398 456
1461 4 2 3 1 387 362 449 453
1462 4 2 3 1 312 292 117 392
1463 4 2 3 1 385 100 440 459
1464 4 2 3 1 239 224 240 385
1465 4 2 3 1 260 255 223 383
1466 4 2 3 1 256 222 267 445
1467 4 2 3 1 306 299 300 446
1468 4 2 3 1 299 386 300 446
1469 4 2 3 1 189 188 186 458
1470 4 2 3 1 373 401 395 409
1471 4 2 3 1 133 299 136 446
1472 4 2 3 1 99 100 385 459
1473 4 2 3 1 277 420 375 439
1474 4 2 3 1 102 409 379 450
1475 4 2 3 1 300 275 276 448
1476 4 2 3 1 359 412 402 427
1477 4 2 3 1 370 394 397 408
1478 4 2 3 1 117 392 292 432
1479 4 2 3 1 288 445 405 461
1480 4 2 3 1 366 395 379 422
1481 4 2 3 1 299 273 386 446
1482 4 2 3 1 381 436 352 456
1483 4 2 3 1 374 366 407 413
1484 4 2 3 1 315 347 342 381
1485 4 2 3 1 342 438 381 456
1486 4 2 3 1 346 321 322 433
1487 4 2 3 1 121 115 384 437
1488 4 2 3 1 395 401 366 409
1489 4 2 3 1 141 145 162 406
1490 4 2 3 1 280 284 301 410
1491 4 2 3 1 267 294 377 449
1492 4 2 3 1 158 145 406 454
1493 4 2 3 1 365 396 376 408
1494 4 2 3 1 158 145 174 406
1495 4 2 3 1 333 336 317 393
1496 4 2 3 1 102 96 127 409
1497 4 2 3 1 370 396 394 408
1498 4 2 3 1 378 421 361 424
1499 4 2 3 1 274 392 258 445
1500 4 2 3 1 347 381 352 456
1501 4 2 3 1 379 395 366 409
1502 4 2 3 1 250 383 255 460
1503 4 2 3 1 198 179 195 391
1504 4 2 3 1 376 396 365 406
1505 4 2 3 1 152 438 386 446
1506 4 2 3 1 253 260 223 453
1507 4 2 3 1 100 84 99 385
1508 4 2 3 1 244 428 231 445
1509 4 2 3 1 322 404 325 436
1510 4 2 3 1 296 295 298 442
1511 4 2 3 1 363 403 374 407
1512 4 2 3 1 98 418 115 437
1513 4 2 3 1 381 365 406 454
1514 4 2 3 1 147 383 443 457
1515 4 2 3 1 338 107 358 388
1516 4 2 3 1 197 185 441 458
1517 4 2 3 1 132 170 227 387
1518 4 2 3 1 220 200 110 393
1519 4 2 3 1 332 384 316 434
1520 4 2 3 1 184 374 185 458
1521 4 2 3 1 250 443 383 460
1522 4 2 3 1 345 390 346 436
1523 4 2 3 1 365 394 396 408
1524 4 2 3 1 412 416 369 427
1525 4 2 3 1 177 376 204 430
1526 4 2 3 1 360 416 412 427
1527 4 2 3 1 364 377 428 445
1528 4 2 3 1 380 360 417 446
1529 4 2 3 1 88 393 109 437
1530 4 2 3 1 162 168 381 454
1531 4 2 3 1 249 389 443 444
1532 4 2 3 1 333 331 335 414
1533 4 2 3 1 274 258 256 445
1534 4 2 3 1 360 412 380 417
1535 4 2 3 1 175 201 348 452
1536 4 2 3 1 361 375 420 439
1537 4 2 3 1 359 394 396 398
1538 4 2 3 1 256 267 293 445
1539 4 2 3 1 121 98 115 437
1540 4 2 3 1 369 421 420 455
1541 4 2 3 1 231 428 377 445
1542 4 2 3 1 164 298 310 387
1543 4 2 3 1 224 240 385 440
1544 4 2 3 1 349 346 345 390
1545 4 2 3 1 90 424 378 435
1546 4 2 3 1 147 383 131 443
1547 4 2 3 1 218 157 206 390
1548 4 2 3 1 402 412 369 427
1549 4 2 3 1 188 408 209 426
1550 4 2 3 1 367 384 418 437
1551 4 2 3 1 273 300 299 386
1552 4 2 3 1 373 429 401 459
1553 4 2 3 1 367 399 395 418
1554 4 2 3 1 197 441 422 458
1555 4 2 3 1 362 377 410 449
1556 4 2 3 1 223 255 250 383
1557 4 2 3 1 360 412 398 427
1558 4 2 3 1 360 380 412 416
1559 4 2 3 1 378 429 91 432
1560 4 2 3 1 340 419 375 448
1561 4 2 3 1 371 403 400 407
1562 4 2 3 1 360 375 419 448
1563 4 2 3 1 109 393 431 437
1564 4 2 3 1 315 381 342 438
1565 4 2 3 1 402 405 369 410
1566 4 2 3 1 207 181 208 389
1567 4 2 3 1 255 383 260 460
1568 4 2 3 1 363 374 403 444
1569 4 2 3 1 174 143 149 411
1570 4 2 3 1 84 385 100 440
1571 4 2 3 1 137 380 417 446
1572 4 2 3 1 383 453 260 460
1573 4 2 3 1 116 117 292 432
1574 4 2 3 1 114 266 246 391
1575 4 2 3 1 154 344 356 386
1576 4 2 3 1 377 362 425 449
1577 4 2 3 1 198 422 197 441
1578 4 2 3 1 369 412 410 416
1579 4 2 3 1 363 389 443 447
1580 4 2 3 1 400 403 363 407
1581 4 2 3 1 164 298 387 442
1582 4 2 3 1 421 424 378 429
1583 4 2 3 1 182 393 350 452
1584 4 2 3 1 293 274 256 445
1585 4 2 3 1 301 296 269 380
1586 4 2 3 1 373 424 421 429
1587 4 2 3 1 390 156 430 454
1588 4 2 3 1 395 399 373 418
1589 4 2 3 1 138 423 380 442
1590 4 2 3 1 361 378 424 435
1591 4 2 3 1 380 412 362 423
1592 4 2 3 1 116 292 307 432
1593 4 2 3 1 187 214 208 426
1594 4 2 3 1 111 109 431 437
1595 4 2 3 1 371 407 401 413
1596 4 2 3 1 378 364 429 432
1597 4 2 3 1 164 163 298 442
1598 4 2 3 1 160 443 389 447
1599 4 2 3 1 156 390 134 454
1600 4 2 3 1 269 296 305 442
1601 4 2 3 1 182 350 348 452
1602 4 2 3 1 370 396 408 426
1603 4 2 3 1 88 109 108 437
1604 4 2 3 1 393 367 431 437
1605 4 2 3 1 175 60 205 314
1606 4 2 3 1 268 78 313 343
1607 4 2 3 1 72 222 297 267
1608 4 2 3 1 221 176 66 251
1609 4 2 3 1 376 408 396 426
1610 4 2 3 1 401 407 366 413
1611 4 2 3 1 112 102 81 450
1612 4 2 3 1 401 409 373 459
1613 4 2 3 1 156 157 390 430
1614 4 2 3 1 384 367 414 437
1615 4 2 3 1 113 391 440 450
1616 4 2 3 1 184 187 426 458
1617 4 2 3 1 109 393 110 431
1618 4 2 3 1 280 279 278 416
1619 4 2 3 1 129 48 269 136
1620 4 2 3 1 123 117 85 392
1621 4 2 3 1 363 376 426 447
1622 4 2 3 1 372 398 396 406
1623 4 2 3 1 391 366 440 450
1624 4 2 3 1 264 161 252 389
1625 4 2 3 1 185 374 441 458
1626 4 2 3 1 362 410 402 412
1627 4 2 3 1 353 83 120 434
1628 4 2 3 1 402 410 369 412
1629 4 2 3 1 223 383 250 443
1630 4 2 3 1 175 348 59 314
1631 4 2 3 1 268 77 302 313
1632 4 2 3 1 71 222 267 256
1633 4 2 3 1 65 176 221 210
1634 4 2 3 1 105 388 107 434
1635 4 2 3 1 187 188 426 458
1636 4 2 3 1 104 392 117 432
1637 4 2 3 1 351 167 130 438
1638 4 2 3 1 98 109 111 437
1639 4 2 3 1 362 380 423 442
1640 4 2 3 1 243 231 244 428
1641 4 2 3 1 316 83 353 434
1642 4 2 3 1 379 366 422 450
1643 4 2 3 1 396 398 365 406
1644 4 2 3 1 156 134 155 454
1645 4 2 3 1 395 409 379 418
1646 4 2 3 1 187 186 188 458
1647 4 2 3 1 107 86 124 388
1648 4 2 3 1 364 421 378 429
1649 4 2 3 1 105 86 388 435
1650 4 2 3 1 348 201 182 452
1651 4 2 3 1 376 363 411 447
1652 4 2 3 1 308 287 272 435
1653 4 2 3 1 291 392 274 445
1654 4 2 3 1 132 164 170 387
1655 4 2 3 1 85 392 104 451
1656 4 2 3 1 118 261 84 440
1657 4 2 3 1 126 110 88 393
1658 4 2 3 1 180 390 203 433
1659 4 2 3 1 289 287 285 455
1660 4 2 3 1 305 298 163 442
1661 4 2 3 1 84 262 122 451
1662 4 2 3 1 87 391 113 450
1663 4 2 3 1 224 84 261 440
1664 4 2 3 1 203 390 206 430
1665 4 2 3 1 165 131 259 443
1666 4 2 3 1 215 81 119 431
1667 4 2 3 1 171 133 154 386
1668 4 2 3 1 146 150 148 457
1669 4 2 3 1 366 379 409 450
1670 4 2 3 1 81 127 111 431
1671 4 2 3 1 77 339 302 313
1672 4 2 3 1 256 267 71 293
1673 4 2 3 1 247 65 221 210
1674 4 2 3 1 201 348 59 175
1675 4 2 3 1 380 417 412 423
1676 4 2 3 1 422 441 374 458
1677 4 2 3 1 152 154 386 438
1678 4 2 3 1 412 417 372 423
1679 4 2 3 1 351 130 315 438
1680 4 2 3 1 396 406 376 411
1681 4 2 3 1 365 396 394 398
1682 4 2 3 1 158 430 156 454
1683 4 2 3 1 372 406 396 411
1684 4 2 3 1 292 432 392 461
1685 4 2 3 1 193 197 195 422
1686 4 2 3 1 134 157 173 390
1687 4 2 3 1 367 394 395 399
1688 4 2 3 1 160 389 135 447
1689 4 2 3 1 322 325 346 436
1690 4 2 3 1 286 283 455 461
1691 4 2 3 1 117 104 85 392
1692 4 2 3 1 359 395 394 399
1693 4 2 3 1 357 319 349 390
1694 4 2 3 1 197 422 189 458
1695 4 2 3 1 315 130 54 155
1696 4 2 3 1 381 436 365 454
1697 4 2 3 1 215 178 81 431
1698 4 2 3 1 133 152 386 446
1699 4 2 3 1 182 199 393 452
1700 4 2 3 1 182 350 58 348
1701 4 2 3 1 210 64 212 228
1702 4 2 3 1 70 256 274 258
1703 4 2 3 1 76 320 304 302
1704 4 2 3 1 110 109 88 393
1705 4 2 3 1 107 105 86 388
1706 4 2 3 1 164 387 151 442
1707 4 2 3 1 115 98 94 418
1708 4 2 3 1 268 78 343 275
1709 4 2 3 1 183 66 176 251
1710 4 2 3 1 222 297 229 72
1711 4 2 3 1 186 197 189 458
1712 4 2 3 1 259 131 223 443
1713 4 2 3 1 294 284 410 449
1714 4 2 3 1 156 158 157 430
1715 4 2 3 1 258 392 244 445
1716 4 2 3 1 90 93 424 435
1717 4 2 3 1 373 409 395 418
1718 4 2 3 1 309 272 304 388
1719 4 2 3 1 327 329 328 415
1720 4 2 3 1 238 403 248 444
1721 4 2 3 1 321 205 60 314
1722 4 2 3 1 132 151 164 387
1723 4 2 3 1 113 391 114 440
1724 4 2 3 1 227 387 254 453
1725 4 2 3 1 226 258 263 392
1726 4 2 3 1 87 125 114 391
1727 4 2 3 1 99 101 103 459
1728 4 2 3 1 212 217 179 391
1729 4 2 3 1 155 54 315 345
1730 4 2 3 1 390 365 433 436
1731 4 2 3 1 133 152 154 386
1732 4 2 3 1 82 91 116 432
1733 4 2 3 1 299 269 48 136
1734 4 2 3 1 218 206 180 390
1735 4 2 3 1 230 233 254 425
1736 4 2 3 1 84 224 262 451
1737 4 2 3 1 348 58 182 201
1738 4 2 3 1 70 256 293 274
1739 4 2 3 1 64 210 247 228
1740 4 2 3 1 302 76 320 339
1741 4 2 3 1 161 389 160 443
1742 4 2 3 1 244 392 226 451
1743 4 2 3 1 392 364 445 461
1744 4 2 3 1 317 350 355 393
1745 4 2 3 1 200 393 199 431
1746 4 2 3 1 232 234 233 425
1747 4 2 3 1 166 128 213 430
1748 4 2 3 1 254 425 233 453
1749 4 2 3 1 273 311 303 386
1750 4 2 3 1 338 358 320 388
1751 4 2 3 1 338 388 337 434
1752 4 2 3 1 137 417 140 446
1753 4 2 3 1 312 274 292 392
1754 4 2 3 1 91 429 103 432
1755 4 2 3 1 330 326 328 419
1756 4 2 3 1 290 304 388 439
1757 4 2 3 1 246 266 228 391
1758 4 2 3 1 189 197 193 422
1759 4 2 3 1 265 257 227 387
1760 4 2 3 1 135 161 172 389
1761 4 2 3 1 250 255 238 460
1762 4 2 3 1 369 405 421 455
1763 4 2 3 1 340 330 419 448
1764 4 2 3 1 318 386 341 448
1765 4 2 3 1 162 145 168 454
1766 4 2 3 1 220 182 200 393
1767 4 2 3 1 291 392 445 461
1768 4 2 3 1 129 163 138 442
1769 4 2 3 1 114 113 87 391
1770 4 2 3 1 219 211 181 389
1771 4 2 3 1 275 79 343 318
1772 4 2 3 1 251 183 67 225
1773 4 2 3 1 271 297 73 229
1774 4 2 3 1 350 393 336 452
1775 4 2 3 1 90 82 89 435
1776 4 2 3 1 245 246 391 440
1777 4 2 3 1 212 391 198 441
1778 4 2 3 1 249 225 389 444
1779 4 2 3 1 318 356 344 386
1780 4 2 3 1 344 341 386 438
1781 4 2 3 1 271 387 295 449
1782 4 2 3 1 128 149 159 447
1783 4 2 3 1 337 334 329 415
1784 4 2 3 1 137 136 129 446
1785 4 2 3 1 157 134 156 390
1786 4 2 3 1 323 314 348 452
1787 4 2 3 1 292 286 307 432
1788 4 2 3 1 196 201 175 452
1789 4 2 3 1 252 249 389 443
1790 4 2 3 1 206 390 157 430
1791 4 2 3 1 310 298 271 387
1792 4 2 3 1 292 286 432 461
1793 4 2 3 1 138 150 423 442
1794 4 2 3 1 79 275 303 318
1795 4 2 3 1 225 183 67 211
1796 4 2 3 1 73 257 271 229
1797 4 2 3 1 226 392 85 451
1798 4 2 3 1 160 161 135 389
1799 4 2 3 1 90 105 93 435
1800 4 2 3 1 180 321 205 61
1801 4 2 3 1 206 203 180 390
1802 4 2 3 1 30 354 108 83
1803 4 2 3 1 324 335 327 414
1804 4 2 3 1 143 145 141 406
1805 4 2 3 1 374 407 403 413
1806 4 2 3 1 110 393 200 431
1807 4 2 3 1 330 326 419 456
1808 4 2 3 1 284 282 294 410
1809 4 2 3 1 264 252 225 389
1810 4 2 3 1 321 180 319 61
1811 4 2 3 1 82 24 89 308
1812 4 2 3 1 330 342 347 456
1813 4 2 3 1 94 92 93 424
1814 4 2 3 1 286 283 285 455
1815 4 2 3 1 107 388 338 434
1816 4 2 3 1 256 231 222 445
1817 4 2 3 1 128 177 213 430
1818 4 2 3 1 288 405 283 461
1819 4 2 3 1 274 291 292 392
1820 4 2 3 1 288 293 267 445
1821 4 2 3 1 36 128 159 177
1822 4 2 3 1 192 188 190 408
1823 4 2 3 1 141 140 139 417
1824 4 2 3 1 320 337 338 388
1825 4 2 3 1 340 341 330 448
1826 4 2 3 1 177 159 36 207
1827 4 2 3 1 253 227 254 453
1828 4 2 3 1 235 232 243 428
1829 4 2 3 1 354 30 316 83
1830 4 2 3 1 91 103 104 432
1831 4 2 3 1 111 109 110 431
1832 4 2 3 1 278 289 281 420
1833 4 2 3 1 296 298 305 442
1834 4 2 3 1 182 199 200 393
1835 4 2 3 1 228 245 246 391
1836 4 2 3 1 282 281 283 405
1837 4 2 3 1 187 188 209 426
1838 4 2 3 1 92 95 103 429
1839 4 2 3 1 237 242 236 413
1840 4 2 3 1 216 112 12 178
1841 4 2 3 1 99 97 100 459
1842 4 2 3 1 146 147 144 457
1843 4 2 3 1 258 226 244 392
1844 4 2 3 1 144 149 411 447
1845 4 2 3 1 364 392 432 461
1846 4 2 3 1 272 290 304 388
1847 4 2 3 1 192 202 203 433
1848 4 2 3 1 137 140 152 446
1849 4 2 3 1 233 425 234 460
1850 4 2 3 1 292 392 291 461
1851 4 2 3 1 305 47 129 163
1852 4 2 3 1 167 351 130 53
1853 4 2 3 1 196 190 191 397
1854 4 2 3 1 198 212 179 391
1855 4 2 3 1 350 317 336 393
1856 4 2 3 1 190 189 191 397
1857 4 2 3 1 299 49 133 136
1858 4 2 3 1 405 455 283 461
1859 4 2 3 1 289 420 277 439
1860 4 2 3 1 349 319 346 390
1861 4 2 3 1 166 213 206 430
1862 4 2 3 1 238 234 236 403
1863 4 2 3 1 154 344 386 438
1864 4 2 3 1 158 174 128 430
1865 4 2 3 1 371 403 407 413
1866 4 2 3 1 142 139 150 423
1867 4 2 3 1 24 82 270 308
1868 4 2 3 1 145 143 174 406
1869 4 2 3 1 122 84 18 262
1870 4 2 3 1 341 318 344 386
1871 4 2 3 1 112 87 113 450
1872 4 2 3 1 271 298 295 387
1873 4 2 3 1 144 143 142 411
1874 4 2 3 1 248 238 236 403
1875 4 2 3 1 176 210 185 441
1876 4 2 3 1 205 202 175 433
1877 4 2 3 1 102 97 409 450
1878 4 2 3 1 280 282 284 410
1879 4 2 3 1 47 129 269 305
1880 4 2 3 1 114 391 246 440
1881 4 2 3 1 252 249 225 389
1882 4 2 3 1 283 405 281 455
1883 4 2 3 1 55 345 155 134
1884 4 2 3 1 192 209 188 408
1885 4 2 3 1 259 165 41 131
1886 4 2 3 1 53 351 130 315
1887 4 2 3 1 352 436 325 456
1888 4 2 3 1 138 151 150 442
1889 4 2 3 1 291 445 288 461
1890 4 2 3 1 42 169 223 131
1891 4 2 3 1 293 291 274 445
1892 4 2 3 1 307 82 23 116
1893 4 2 3 1 327 335 331 414
1894 4 2 3 1 390 365 436 454
1895 4 2 3 1 280 301 279 416
1896 4 2 3 1 289 281 420 455
1897 4 2 3 1 200 215 119 431
1898 4 2 3 1 256 258 244 445
1899 4 2 3 1 277 268 302 439
1900 4 2 3 1 345 55 349 134
1901 4 2 3 1 307 22 292 116
1902 4 2 3 1 238 248 249 444
1903 4 2 3 1 97 95 96 409
1904 4 2 3 1 234 403 238 460
1905 4 2 3 1 35 213 166 128
1906 4 2 3 1 158 156 145 454
1907 4 2 3 1 236 235 237 413
1908 4 2 3 1 252 389 161 443
1909 4 2 3 1 303 300 273 386
1910 4 2 3 1 127 96 98 418
1911 4 2 3 1 206 157 166 430
1912 4 2 3 1 137 139 140 417
1913 4 2 3 1 257 254 227 387
1914 4 2 3 1 117 292 22 116
1915 4 2 3 1 313 343 340 448
1916 4 2 3 1 95 103 429 459
1917 4 2 3 1 93 92 90 424
1918 4 2 3 1 142 144 411 457
1919 4 2 3 1 260 453 233 460
1920 4 2 3 1 294 295 284 449
1921 4 2 3 1 244 226 241 451
1922 4 2 3 1 208 181 211 389
1923 4 2 3 1 49 133 273 299
1924 4 2 3 1 223 259 41 131
1925 4 2 3 1 283 288 282 405
1926 4 2 3 1 112 81 12 178
1927 4 2 3 1 187 209 214 426
1928 4 2 3 1 306 279 301 416
1929 4 2 3 1 160 135 159 447
1930 4 2 3 1 106 105 107 434
1931 4 2 3 1 224 18 84 262
1932 4 2 3 1 142 423 150 457
1933 4 2 3 1 29 120 353 83
1934 4 2 3 1 205 180 203 433
1935 4 2 3 1 152 153 154 438
1936 4 2 3 1 221 251 248 444
1937 4 2 3 1 270 82 23 307
1938 4 2 3 1 85 104 101 451
1939 4 2 3 1 290 302 304 439
1940 4 2 3 1 186 185 197 458
1941 4 2 3 1 289 278 277 420
1942 4 2 3 1 212 198 210 441
1943 4 2 3 1 118 17 84 261
1944 4 2 3 1 102 97 96 409
1945 4 2 3 1 95 409 97 459
1946 4 2 3 1 207 159 37 135
1947 4 2 3 1 42 169 253 223
1948 4 2 3 1 96 94 98 418
1949 4 2 3 1 119 110 200 431
1950 4 2 3 1 91 92 103 429
1951 4 2 3 1 267 297 294 449
1952 4 2 3 1 122 262 226 451
1953 4 2 3 1 179 13 216 87
1954 4 2 3 1 326 325 324 404
1955 4 2 3 1 233 453 425 460
1956 4 2 3 1 120 338 353 434
1957 4 2 3 1 181 207 37 135
1958 4 2 3 1 252 165 259 443
1959 4 2 3 1 347 352 325 456
1960 4 2 3 1 144 160 149 447
1961 4 2 3 1 182 201 199 452
1962 4 2 3 1 138 150 139 423
1963 4 2 3 1 232 231 243 428
1964 4 2 3 1 325 436 404 456
1965 4 2 3 1 351 344 167 438
1966 4 2 3 1 353 316 29 83
1967 4 2 3 1 289 277 290 439
1968 4 2 3 1 116 104 117 432
1969 4 2 3 1 198 197 185 441
1970 4 2 3 1 143 144 149 411
1971 4 2 3 1 35 213 128 177
1972 4 2 3 1 350 336 348 452
1973 4 2 3 1 325 404 326 456
1974 4 2 3 1 224 84 17 261
1975 4 2 3 1 119 215 11 81
1976 4 2 3 1 328 340 330 419
1977 4 2 3 1 13 112 216 87
1978 4 2 3 1 118 246 261 440
1979 4 2 3 1 204 203 206 430
1980 4 2 3 1 105 89 86 435
1981 4 2 3 1 249 251 225 444
1982 4 2 3 1 343 318 341 448
1983 4 2 3 1 19 226 122 262
1984 4 2 3 1 164 151 163 442
1985 4 2 3 1 253 169 43 132
1986 4 2 3 1 184 186 187 458
1987 4 2 3 1 194 178 215 431
1988 4 2 3 1 334 328 329 415
1989 4 2 3 1 271 295 297 449
1990 4 2 3 1 215 10 200 119
1991 4 2 3 1 226 85 122 451
1992 4 2 3 1 107 338 120 434
1993 4 2 3 1 154 167 344 438
1994 4 2 3 1 133 136 152 446
1995 4 2 3 1 132 43 253 227
1996 4 2 3 1 332 316 353 434
1997 4 2 3 1 213 206 34 166
1998 4 2 3 1 291 293 288 445
1999 4 2 3 1 224 261 240 440
2000 4 2 3 1 81 215 11 178
2001 4 2 3 1 161 160 147 443
2002 4 2 3 1 201 196 199 452
2003 4 2 3 1 233 230 232 425
2004 4 2 3 1 241 262 224 451
2005 4 2 3 1 19 226 85 122
2006 4 2 3 1 113 114 100 440
2007 4 2 3 1 102 113 97 450
2008 4 2 3 1 252 250 249 443
2009 4 2 3 1 291 288 283 461
2010 4 2 3 1 252 161 165 443
2011 4 2 3 1 344 342 341 438
2012 4 2 3 1 10 110 200 119
2013 4 2 3 1 353 120 28 338
2014 4 2 3 1 261 118 16 246
2015 4 2 3 1 200 199 194 431
2016 4 2 3 1 101 84 122 451
2017 4 2 3 1 325 322 324 404
2018 4 2 3 1 119 81 111 431
2019 4 2 3 1 338 337 332 434
2020 4 2 3 1 206 157 34 166
2021 4 2 3 1 173 157 33 218
2022 4 2 3 1 118 84 100 440
2023 4 2 3 1 106 120 83 434
2024 4 2 3 1 154 51 171 356
2025 4 2 3 1 123 85 20 263
2026 4 2 3 1 165 40 252 259
2027 4 2 3 1 52 351 344 167
2028 4 2 3 1 126 220 9 110
2029 4 2 3 1 292 291 286 461
2030 4 2 3 1 186 184 185 458
2031 4 2 3 1 118 114 246 440
2032 4 2 3 1 124 358 27 107
2033 4 2 3 1 352 345 346 436
2034 4 2 3 1 256 244 231 445
2035 4 2 3 1 245 240 246 440
2036 4 2 3 1 255 260 233 460
2037 4 2 3 1 39 264 172 161
2038 4 2 3 1 348 336 323 452
2039 4 2 3 1 125 15 114 266
2040 4 2 3 1 130 167 153 438
2041 4 2 3 1 147 131 165 443
2042 4 2 3 1 85 226 20 263
2043 4 2 3 1 107 28 120 338
2044 4 2 3 1 351 315 342 438
2045 4 2 3 1 344 154 52 167
2046 4 2 3 1 259 223 250 443
2047 4 2 3 1 157 158 166 430
2048 4 2 3 1 110 220 9 200
2049 4 2 3 1 246 118 16 114
2050 4 2 3 1 107 358 27 338
2051 4 2 3 1 218 157 33 206
2052 4 2 3 1 161 40 252 165
2053 4 2 3 1 158 128 166 430
2054 4 2 3 1 218 62 319 180
2055 4 2 3 1 51 154 344 356
2056 4 2 3 1 260 254 233 453
2057 4 2 3 1 15 246 114 266
2058 4 2 3 1 109 121 108 437
2059 4 2 3 1 119 111 110 431
2060 4 2 3 1 26 86 309 124
2061 4 2 3 1 32 355 126 88
2062 4 2 3 1 357 218 62 319
2063 4 2 3 1 264 39 252 161
2064 4 2 3 1 213 177 204 430
2065 4 2 3 1 309 86 26 272
2066 4 2 3 1 32 355 88 317
2067 4 2 3 1 50 171 273 133
2068 4 2 3 1 358 320 304 75
2069 4 2 3 1 228 63 212 266
2070 4 2 3 1 69 258 274 312
2071 4 2 3 1 57 182 220 350
2072 4 2 3 1 125 87 14 217
2073 4 2 3 1 98 121 109 437
2074 4 2 3 1 87 179 14 217
2075 4 2 3 1 318 303 80 356
2076 4 2 3 1 68 225 211 264
2077 4 2 3 1 74 257 310 271
2078 4 2 3 1 56 349 134 173
2079 4 2 3 1 309 358 304 75
2080 4 2 3 1 258 69 263 312
2081 4 2 3 1 217 212 63 266
2082 4 2 3 1 220 355 57 350
2083 4 2 3 1 172 181 38 135
2084 4 2 3 1 219 68 211 264
2085 4 2 3 1 310 265 257 74
2086 4 2 3 1 356 303 80 311
2087 4 2 3 1 219 181 38 172
2088 4 2 3 1 311 171 273 50
2089 4 2 3 1 107 120 106 434
2090 4 2 3 1 56 349 173 357
2091 4 2 3 1 153 167 154 438
2092 4 2 3 1 253 254 260 453
2093 4 2 3 1 289 285 281 455
2094 4 2 3 1 352 346 325 436
2095 4 2 3 1 213 204 206 430
2096 4 2 3 1 168 156 155 454
2097 4 2 3 1 116 91 104 432
2098 4 2 3 1 146 142 150 457
2099 4 2 3 1 255 234 238 460
2100 4 2 3 1 283 281 285 455
2101 4 2 3 1 347 325 326 456
2102 4 2 3 1 132 170 44 227
2103 4 2 3 1 89 105 90 435
2104 4 2 3 1 310 45 164 170
2105 4 2 3 1 95 99 103 459
2106 4 2 3 1 142 146 144 457
2107 4 2 3 1 200 194 215 431
2108 4 2 3 1 330 347 326 456
2109 4 2 3 1 161 147 165 443
2110 4 2 3 1 95 97 99 459
2111 4 2 3 1 312 21 123 117
2112 4 2 3 1 353 338 332 434
2113 4 2 3 1 259 250 252 443
2114 4 2 3 1 170 265 44 227
2115 4 2 3 1 113 102 112 450
2116 4 2 3 1 138 163 151 442
2117 4 2 3 1 137 152 136 446
2118 4 2 3 1 292 21 312 117
2119 4 2 3 1 342 344 351 438
2120 4 2 3 1 100 114 118 440
2121 4 2 3 1 261 246 240 440
2122 4 2 3 1 205 203 202 433
2123 4 2 3 1 226 262 241 451
2124 4 2 3 1 54 53 130 315
2125 4 2 3 1 164 45 310 298
2126 4 2 3 1 233 234 255 460
2127 4 2 3 1 159 149 160 447
2128 4 2 3 1 122 85 101 451
2129 4 2 3 1 340 343 341 448
2130 4 2 3 1 185 210 198 441
2131 4 2 3 1 290 277 302 439
2132 4 2 3 1 128 36 35 177
2133 4 2 3 1 248 251 249 444
2134 4 2 3 1 58 348 59 201
2135 4 2 3 1 210 247 65 64
2136 4 2 3 1 71 70 256 293
2137 4 2 3 1 339 302 76 77
2138 4 2 3 1 175 59 60 314
2139 4 2 3 1 77 268 78 313
2140 4 2 3 1 267 72 222 71
2141 4 2 3 1 66 176 221 65
2142 4 2 3 1 286 291 283 461
2143 4 2 3 1 294 297 295 449
2144 4 2 3 1 20 19 226 85
2145 4 2 3 1 269 48 129 47
2146 4 2 3 1 82 23 24 270
2147 4 2 3 1 168 145 156 454
2148 4 2 3 1 62 319 180 61
2149 4 2 3 1 49 299 48 136
2150 4 2 3 1 110 9 10 200
2151 4 2 3 1 133 273 50 49
2152 4 2 3 1 107 27 28 338
2153 4 2 3 1 316 30 29 83
2154 4 2 3 1 86 25 26 272
2155 4 2 3 1 88 31 32 317
2156 4 2 3 1 34 33 157 206
2157 4 2 3 1 344 154 51 52
2158 4 2 3 1 41 42 223 131
2159 4 2 3 1 81 11 12 178
2160 4 2 3 1 183 67 66 251
2161 4 2 3 1 297 73 229 72
2162 4 2 3 1 79 343 78 275
2163 4 2 3 1 84 17 18 224
2164 4 2 3 1 55 56 349 134
2165 4 2 3 1 181 37 38 135
2166 4 2 3 1 246 16 15 114
2167 4 2 3 1 44 43 132 227
2168 4 2 3 1 345 155 54 55
2169 4 2 3 1 321 205 61 60
2170 4 2 3 1 258 274 70 69
2171 4 2 3 1 63 212 64 228
2172 4 2 3 1 350 57 182 58
2173 4 2 3 1 320 304 75 76
2174 4 2 3 1 303 80 79 318
2175 4 2 3 1 67 225 211 68
2176 4 2 3 1 271 74 257 73
2177 4 2 3 1 179 14 13 87
2178 4 2 3 1 37 36 159 207
2179 4 2 3 1 39 40 252 161
2180 4 2 3 1 264 219 6 172
2181 4 2 3 1 7 310 265 170
2182 4 2 3 1 8 171 356 311
2183 4 2 3 1 357 173 5 218
2184 4 2 3 1 1 355 220 126
2185 4 2 3 1 4 309 358 124
2186 4 2 3 1 217 2 125 266
2187 4 2 3 1 3 123 263 312
2188 4 2 3 1 292 22 21 117
2189 4 2 3 1 45 164 46 298
2190 4 2 3 1 23 22 307 116
2191 4 2 3 1 89 24 25 308
2192 4 2 3 1 173 5 56 357
2193 4 2 3 1 38 6 219 172
2194 4 2 3 1 8 171 311 50
2195 4 2 3 1 218 5 357 62
2196 4 2 3 1 6 68 219 264
2197 4 2 3 1 265 310 7 74
2198 4 2 3 1 356 80 8 311
2199 4 2 3 1 358 309 4 75
2200 4 2 3 1 263 69 3 312
2201 4 2 3 1 63 2 217 266
2202 4 2 3 1 220 355 1 57
2203 4 2 3 1 163 305 47 46
2204 4 2 3 1 43 42 169 253
2205 4 2 3 1 44 7 265 170
2206 4 2 3 1 355 1 32 126
2207 4 2 3 1 125 14 2 217
2208 4 2 3 1 4 26 309 124
2209 4 2 3 1 20 3 123 263
2210 4 2 3 1 171 51 8 356
2211 4 2 3 1 173 33 5 218
2212 4 2 3 1 264 6 39 172
2213 4 2 3 1 310 7 45 170
2214 4 2 3 1 31 30 354 108
2215 4 2 3 1 9 1 220 126
2216 4 2 3 1 123 3 21 312
2217 4 2 3 1 125 2 15 266
2218 4 2 3 1 358 27 4 124
2219 4 2 3 1 112 12 13 216
2220 4 2 3 1 215 11 10 119
2221 4 2 3 1 118 16 17 261
2222 4 2 3 1 28 29 120 353
2223 4 2 3 1 34 35 213 166
2224 4 2 3 1 167 52 351 53
2225 4 2 3 1 41 40 165 259
2226 4 2 3 1 122 18 19 262
2227 4 2 3 1 453 457 362 383
2228 4 2 3 1 362 457 453 423
2229 4 2 3 1 435 439 361 420
2230 4 2 3 1 361 439 435 388
2231 4 2 3 1 431 191 379 397
2232 4 2 3 1 431 379 191 194
2233 4 2 3 1 290 435 272 287
2234 4 2 3 1 272 435 290 388
2235 4 2 3 1 381 352 345 315
2236 4 2 3 1 381 345 352 436
2237 4 2 3 1 294 405 410 282
2238 4 2 3 1 410 405 294 377
2239 4 2 3 1 449 284 296 295
2240 4 2 3 1 449 296 284 410
2241 4 2 3 1 440 97 459 100
2242 4 2 3 1 440 459 97 409
2243 4 2 3 1 460 362 453 425
2244 4 2 3 1 460 453 362 383
2245 4 2 3 1 430 192 376 204
2246 4 2 3 1 430 376 192 408
2247 4 2 3 1 209 376 192 204
2248 4 2 3 1 209 192 376 408
2249 4 2 3 1 460 363 443 383
2250 4 2 3 1 460 443 363 403
2251 4 2 3 1 428 230 425 232
2252 4 2 3 1 428 425 230 377
2253 4 2 3 1 237 440 385 240
2254 4 2 3 1 385 440 237 413
2255 4 2 3 1 385 239 237 240
2256 4 2 3 1 237 239 385 413
2257 4 2 3 1 455 361 435 378
2258 4 2 3 1 455 435 361 420
2259 4 2 3 1 82 308 435 270
2260 4 2 3 1 435 308 82 89
2261 4 2 3 1 459 366 440 385
2262 4 2 3 1 459 440 366 409
2263 4 2 3 1 456 360 438 381
2264 4 2 3 1 456 438 360 419
2265 4 2 3 1 363 457 443 383
2266 4 2 3 1 443 457 363 411
2267 4 2 3 1 453 227 132 253
2268 4 2 3 1 453 132 227 387
2269 4 2 3 1 442 150 148 151
2270 4 2 3 1 442 148 150 423
2271 4 2 3 1 439 289 287 290
2272 4 2 3 1 439 287 289 420
2273 4 2 3 1 216 87 450 179
2274 4 2 3 1 450 87 216 112
2275 4 2 3 1 272 89 25 308
2276 4 2 3 1 272 25 89 86
2277 4 2 3 1 354 83 437 108
2278 4 2 3 1 437 83 354 316
2279 4 2 3 1 438 446 153 417
2280 4 2 3 1 438 153 446 152
2281 4 2 3 1 140 153 446 417
2282 4 2 3 1 140 446 153 152
2283 4 2 3 1 451 432 101 429
2284 4 2 3 1 451 101 432 104
2285 4 2 3 1 103 101 432 429
2286 4 2 3 1 103 432 101 104
2287 4 2 3 1 434 435 106 105
2288 4 2 3 1 434 106 435 424
2289 4 2 3 1 93 106 435 105
2290 4 2 3 1 93 435 106 424
2291 4 2 3 1 438 448 342 341
2292 4 2 3 1 438 342 448 419
2293 4 2 3 1 330 342 448 341
2294 4 2 3 1 330 448 342 419
2295 4 2 3 1 108 317 31 88
2296 4 2 3 1 108 31 317 354
2297 4 2 3 1 163 298 46 164
2298 4 2 3 1 46 298 163 305
$EndElements
