$MeshFormat
2.2 0 8
$EndMeshFormat
$PhysicalNames
3
2 1 "Tampa"
2 2 "Paredes"
3 3 "Dominio_3D"
$EndPhysicalNames
$Nodes
141
1 -1 -1 -1
2 1 -1 -1
3 1 1 -1
4 -1 1 -1
5 -1 -1 1
6 1 -1 1
7 1 1 1
8 -1 1 1
9 -0.5000000000013864 -1 -1
10 -2.752353900348226e-12 -1 -1
11 0.4999999999986131 -1 -1
12 1 -0.5000000000013864 -1
13 1 -2.752353900348226e-12 -1
14 1 0.4999999999986131 -1
15 0.5000000000013864 1 -1
16 2.752353900348226e-12 1 -1
17 -0.4999999999986131 1 -1
18 -1 0.5000000000013864 -1
19 -1 2.752353900348226e-12 -1
20 -1 -0.4999999999986131 -1
21 -0.5000000000013864 -1 1
22 -2.752353900348226e-12 -1 1
23 0.4999999999986131 -1 1
24 1 -0.5000000000013864 1
25 1 -2.752353900348226e-12 1
26 1 0.4999999999986131 1
27 0.5000000000013864 1 1
28 2.752353900348226e-12 1 1
29 -0.4999999999986131 1 1
30 -1 0.5000000000013864 1
31 -1 2.752353900348226e-12 1
32 -1 -0.4999999999986131 1
33 -1 -1 -0.5000000000013864
34 -1 -1 -2.752353900348226e-12
35 -1 -1 0.4999999999986131
36 1 -1 -0.5000000000013864
37 1 -1 -2.752353900348226e-12
38 1 -1 0.4999999999986131
39 1 1 -0.5000000000013864
40 1 1 -2.752353900348226e-12
41 1 1 0.4999999999986131
42 -1 1 -0.5000000000013864
43 -1 1 -2.752353900348226e-12
44 -1 1 0.4999999999986131
45 -0.2487379079113685 0.6161019229199871 -1
46 0.24933251660933 -0.5779153563609323 -1
47 0.4910260041788556 0.2292007466719702 -1
48 -0.5735375664458846 -0.2718135742324125 -1
49 -0.2431343535814014 -0.6041579905485965 -1
50 -0.01130054539955318 -0.138381937170369 -1
51 0.2289120456547993 0.6225483133472571 -1
52 -0.4957630049326825 0.2279848031448106 -1
53 0.5664019861043331 -0.2574077876513176 -1
54 -0.007172681681989868 0.3114907697827312 -1
55 0.6339745962141987 -0.6339745962149419 -1
56 -0.6339745962141987 0.6339745962149419 -1
57 -0.6339745962149419 -0.6339745962141987 -1
58 0.6439876099670083 0.6703498120035681 -1
59 -0.2487379079113685 0.6161019229199871 1
60 0.24933251660933 -0.5779153563609323 1
61 0.4910260041788556 0.2292007466719702 1
62 -0.5735375664458846 -0.2718135742324125 1
63 -0.2431343535814014 -0.6041579905485965 1
64 -0.01130054539955318 -0.138381937170369 1
65 0.2289120456547993 0.6225483133472571 1
66 -0.4957630049326825 0.2279848031448106 1
67 0.5664019861043331 -0.2574077876513176 1
68 -0.007172681681989868 0.3114907697827312 1
69 0.6339745962141987 -0.6339745962149419 1
70 -0.6339745962141987 0.6339745962149419 1
71 -0.6339745962149419 -0.6339745962141987 1
72 0.6439876099670083 0.6703498120035681 1
73 0.2306624327008143 -1 0.5781518477925589
74 0.2341834757754471 -1 -0.54859045134572
75 -0.6046468816088673 -1 -0.2816196531675532
76 -0.249055851761276 -1 0.5772920963791365
77 -0.006136527556584452 -1 0.1904823070907853
78 0.5390805729734655 -1 0.2115262851669315
79 -0.5529431294636478 -1 0.2139417216727224
80 -0.2819533947439606 -1 -0.6107109318016728
81 0.6369909862050813 -1 -0.2624126748017075
82 0.2452623058547485 -1 -0.1361321334023535
83 0.6339745962146701 -1 0.63397459621467
84 -0.6339745962165696 -1 -0.6339745962165697
85 -0.6339745962164106 -1 0.6339745962156674
86 0.6369841345491891 -1 -0.636984134549949
87 -0.1872823664096354 -1 -0.2000808900801945
88 1 0.5781518477927002 0.2306624327001785
89 1 -0.5485904513457418 0.2341834757751285
90 1 -0.2816196531675604 -0.6046468816088773
91 1 0.5772920963798813 -0.2490558517620315
92 1 0.1904823070907951 -0.006136527557442821
93 1 0.2115262851669437 0.5390805729729461
94 1 0.2139417216728386 -0.5529431294638053
95 1 -0.6107109318016926 -0.2819533947440298
96 1 -0.2624126748017137 0.6369909862048504
97 1 -0.1361321334023859 0.2452623058538332
98 1 0.63397459621467 0.6339745962146701
99 1 -0.6339745962165697 -0.6339745962165697
100 1 0.6339745962162977 -0.6339745962170409
101 1 -0.6369841345499463 0.6369841345491865
102 1 -0.2000808900802835 -0.1872823664097213
103 -0.2306624327008143 1 0.578151847792559
104 -0.2341834757754471 1 -0.54859045134572
105 0.6046468816088673 1 -0.2816196531675532
106 0.249055851761276 1 0.5772920963791365
107 0.00613652755658448 1 0.1904823070907854
108 -0.5390805729734655 1 0.2115262851669316
109 0.5529431294636477 1 0.2139417216727225
110 0.2819533947439607 1 -0.6107109318016728
111 -0.6369909862050813 1 -0.2624126748017075
112 -0.2452623058547485 1 -0.1361321334023535
113 -0.6339745962146701 1 0.63397459621467
114 0.6339745962165696 1 -0.6339745962165697
115 0.6339745962164105 1 0.6339745962156673
116 -0.6369841345491892 1 -0.6369841345499491
117 0.1872823664096354 1 -0.2000808900801946
118 -1 -0.2306624327008143 0.5781518477925589
119 -1 -0.2341834757754471 -0.54859045134572
120 -1 0.6046468816088673 -0.2816196531675532
121 -1 0.249055851761276 0.5772920963791365
122 -1 0.006136527556584452 0.1904823070907853
123 -1 -0.5390805729734655 0.2115262851669315
124 -1 0.5529431294636478 0.2139417216727224
125 -1 0.2819533947439606 -0.6107109318016728
126 -1 -0.6369909862050813 -0.2624126748017075
127 -1 -0.2452623058547485 -0.1361321334023535
128 -1 -0.6339745962146701 0.63397459621467
129 -1 0.6339745962165696 -0.6339745962165697
130 -1 0.6339745962164106 0.6339745962156674
131 -1 -0.6369841345491891 -0.636984134549949
132 -1 0.1872823664096354 -0.2000808900801945
133 -0.05063690055080106 0.05126220723371158 -0.02587802709394357
134 0.3928304231794699 -0.3787290511257531 -0.3798963604536633
135 -0.4158683466834093 -0.3936664698142776 -0.3464962914256636
136 0.3373391046025373 -0.3511871093298354 0.3605599218323858
137 -0.3727055964074397 -0.3770835491472939 0.3719533735403517
138 0.3699119049821027 0.4020354157592066 -0.3742037839249879
139 0.19605269649716 0.4023678101713598 0.4214724333570778
140 -0.3936664698142776 0.4443713060592966 -0.3464962914256636
141 -0.4644066886583926 0.4644066886570856 0.4501823011908824
$EndNodes
$Elements
636
1 2 2 2 1 1 9 57
2 2 2 2 1 20 1 57
3 2 2 2 1 11 2 55
4 2 2 2 1 2 12 55
5 2 2 2 1 14 3 58
6 2 2 2 1 3 15 58
7 2 2 2 1 17 4 56
8 2 2 2 1 4 18 56
9 2 2 2 1 9 10 49
10 2 2 2 1 9 49 57
11 2 2 2 1 10 11 46
12 2 2 2 1 10 46 49
13 2 2 2 1 46 11 55
14 2 2 2 1 12 13 53
15 2 2 2 1 12 53 55
16 2 2 2 1 13 14 47
17 2 2 2 1 13 47 53
18 2 2 2 1 47 14 58
19 2 2 2 1 15 16 51
20 2 2 2 1 15 51 58
21 2 2 2 1 16 17 45
22 2 2 2 1 16 45 51
23 2 2 2 1 45 17 56
24 2 2 2 1 18 19 52
25 2 2 2 1 18 52 56
26 2 2 2 1 19 20 48
27 2 2 2 1 19 48 52
28 2 2 2 1 48 20 57
29 2 2 2 1 51 45 54
30 2 2 2 1 45 52 54
31 2 2 2 1 52 45 56
32 2 2 2 1 49 46 50
33 2 2 2 1 50 46 53
34 2 2 2 1 53 46 55
35 2 2 2 1 47 50 53
36 2 2 2 1 50 47 54
37 2 2 2 1 47 51 54
38 2 2 2 1 51 47 58
39 2 2 2 1 48 49 50
40 2 2 2 1 49 48 57
41 2 2 2 1 48 50 52
42 2 2 2 1 52 50 54
43 2 2 1 2 5 21 71
44 2 2 1 2 32 5 71
45 2 2 1 2 23 6 69
46 2 2 1 2 6 24 69
47 2 2 1 2 26 7 72
48 2 2 1 2 7 27 72
49 2 2 1 2 29 8 70
50 2 2 1 2 8 30 70
51 2 2 1 2 21 22 63
52 2 2 1 2 21 63 71
53 2 2 1 2 22 23 60
54 2 2 1 2 22 60 63
55 2 2 1 2 60 23 69
56 2 2 1 2 24 25 67
57 2 2 1 2 24 67 69
58 2 2 1 2 25 26 61
59 2 2 1 2 25 61 67
60 2 2 1 2 61 26 72
61 2 2 1 2 27 28 65
62 2 2 1 2 27 65 72
63 2 2 1 2 28 29 59
64 2 2 1 2 28 59 65
65 2 2 1 2 59 29 70
66 2 2 1 2 30 31 66
67 2 2 1 2 30 66 70
68 2 2 1 2 31 32 62
69 2 2 1 2 31 62 66
70 2 2 1 2 62 32 71
71 2 2 1 2 65 59 68
72 2 2 1 2 59 66 68
73 2 2 1 2 66 59 70
74 2 2 1 2 63 60 64
75 2 2 1 2 64 60 67
76 2 2 1 2 67 60 69
77 2 2 1 2 61 64 67
78 2 2 1 2 64 61 68
79 2 2 1 2 61 65 68
80 2 2 1 2 65 61 72
81 2 2 1 2 62 63 64
82 2 2 1 2 63 62 71
83 2 2 1 2 62 64 66
84 2 2 1 2 66 64 68
85 2 2 2 3 1 9 84
86 2 2 2 3 33 1 84
87 2 2 2 3 11 2 86
88 2 2 2 3 2 36 86
89 2 2 2 3 21 5 85
90 2 2 2 3 5 35 85
91 2 2 2 3 6 23 83
92 2 2 2 3 38 6 83
93 2 2 2 3 9 10 80
94 2 2 2 3 9 80 84
95 2 2 2 3 10 11 74
96 2 2 2 3 10 74 80
97 2 2 2 3 74 11 86
98 2 2 2 3 22 21 76
99 2 2 2 3 76 21 85
100 2 2 2 3 23 22 73
101 2 2 2 3 73 22 76
102 2 2 2 3 23 73 83
103 2 2 2 3 34 33 75
104 2 2 2 3 75 33 84
105 2 2 2 3 35 34 79
106 2 2 2 3 34 75 79
107 2 2 2 3 35 79 85
108 2 2 2 3 36 37 81
109 2 2 2 3 36 81 86
110 2 2 2 3 37 38 78
111 2 2 2 3 37 78 81
112 2 2 2 3 78 38 83
113 2 2 2 3 73 76 77
114 2 2 2 3 73 77 78
115 2 2 2 3 73 78 83
116 2 2 2 3 80 74 87
117 2 2 2 3 74 81 82
118 2 2 2 3 81 74 86
119 2 2 2 3 74 82 87
120 2 2 2 3 79 75 87
121 2 2 2 3 80 75 84
122 2 2 2 3 75 80 87
123 2 2 2 3 77 76 79
124 2 2 2 3 79 76 85
125 2 2 2 3 78 77 82
126 2 2 2 3 77 79 87
127 2 2 2 3 82 77 87
128 2 2 2 3 81 78 82
129 2 2 2 4 2 12 99
130 2 2 2 4 36 2 99
131 2 2 2 4 14 3 100
132 2 2 2 4 3 39 100
133 2 2 2 4 24 6 101
134 2 2 2 4 6 38 101
135 2 2 2 4 7 26 98
136 2 2 2 4 41 7 98
137 2 2 2 4 12 13 90
138 2 2 2 4 12 90 99
139 2 2 2 4 13 14 94
140 2 2 2 4 90 13 94
141 2 2 2 4 94 14 100
142 2 2 2 4 25 24 96
143 2 2 2 4 96 24 101
144 2 2 2 4 26 25 93
145 2 2 2 4 93 25 96
146 2 2 2 4 26 93 98
147 2 2 2 4 37 36 95
148 2 2 2 4 95 36 99
149 2 2 2 4 38 37 89
150 2 2 2 4 89 37 95
151 2 2 2 4 38 89 101
152 2 2 2 4 39 40 91
153 2 2 2 4 39 91 100
154 2 2 2 4 40 41 88
155 2 2 2 4 40 88 91
156 2 2 2 4 88 41 98
157 2 2 2 4 91 88 92
158 2 2 2 4 92 88 93
159 2 2 2 4 93 88 98
160 2 2 2 4 89 95 102
161 2 2 2 4 96 89 97
162 2 2 2 4 89 96 101
163 2 2 2 4 97 89 102
164 2 2 2 4 90 94 102
165 2 2 2 4 90 95 99
166 2 2 2 4 95 90 102
167 2 2 2 4 91 92 94
168 2 2 2 4 91 94 100
169 2 2 2 4 92 93 97
170 2 2 2 4 94 92 102
171 2 2 2 4 92 97 102
172 2 2 2 4 93 96 97
173 2 2 2 5 3 15 114
174 2 2 2 5 39 3 114
175 2 2 2 5 17 4 116
176 2 2 2 5 4 42 116
177 2 2 2 5 27 7 115
178 2 2 2 5 7 41 115
179 2 2 2 5 8 29 113
180 2 2 2 5 44 8 113
181 2 2 2 5 15 16 110
182 2 2 2 5 15 110 114
183 2 2 2 5 16 17 104
184 2 2 2 5 16 104 110
185 2 2 2 5 104 17 116
186 2 2 2 5 28 27 106
187 2 2 2 5 106 27 115
188 2 2 2 5 29 28 103
189 2 2 2 5 103 28 106
190 2 2 2 5 29 103 113
191 2 2 2 5 40 39 105
192 2 2 2 5 105 39 114
193 2 2 2 5 41 40 109
194 2 2 2 5 40 105 109
195 2 2 2 5 41 109 115
196 2 2 2 5 42 43 111
197 2 2 2 5 42 111 116
198 2 2 2 5 43 44 108
199 2 2 2 5 43 108 111
200 2 2 2 5 108 44 113
201 2 2 2 5 103 106 107
202 2 2 2 5 103 107 108
203 2 2 2 5 103 108 113
204 2 2 2 5 110 104 117
205 2 2 2 5 104 111 112
206 2 2 2 5 111 104 116
207 2 2 2 5 104 112 117
208 2 2 2 5 109 105 117
209 2 2 2 5 110 105 114
210 2 2 2 5 105 110 117
211 2 2 2 5 107 106 109
212 2 2 2 5 109 106 115
213 2 2 2 5 108 107 112
214 2 2 2 5 107 109 117
215 2 2 2 5 112 107 117
216 2 2 2 5 111 108 112
217 2 2 2 6 20 1 131
218 2 2 2 6 1 33 131
219 2 2 2 6 4 18 129
220 2 2 2 6 42 4 129
221 2 2 2 6 5 32 128
222 2 2 2 6 35 5 128
223 2 2 2 6 30 8 130
224 2 2 2 6 8 44 130
225 2 2 2 6 18 19 125
226 2 2 2 6 18 125 129
227 2 2 2 6 19 20 119
228 2 2 2 6 19 119 125
229 2 2 2 6 119 20 131
230 2 2 2 6 31 30 121
231 2 2 2 6 121 30 130
232 2 2 2 6 32 31 118
233 2 2 2 6 118 31 121
234 2 2 2 6 32 118 128
235 2 2 2 6 33 34 126
236 2 2 2 6 33 126 131
237 2 2 2 6 34 35 123
238 2 2 2 6 34 123 126
239 2 2 2 6 123 35 128
240 2 2 2 6 43 42 120
241 2 2 2 6 120 42 129
242 2 2 2 6 44 43 124
243 2 2 2 6 43 120 124
244 2 2 2 6 44 124 130
245 2 2 2 6 118 121 122
246 2 2 2 6 118 122 123
247 2 2 2 6 118 123 128
248 2 2 2 6 125 119 132
249 2 2 2 6 119 126 127
250 2 2 2 6 126 119 131
251 2 2 2 6 119 127 132
252 2 2 2 6 124 120 132
253 2 2 2 6 125 120 129
254 2 2 2 6 120 125 132
255 2 2 2 6 122 121 124
256 2 2 2 6 124 121 130
257 2 2 2 6 123 122 127
258 2 2 2 6 122 124 132
259 2 2 2 6 127 122 132
260 2 2 2 6 126 123 127
261 4 2 3 1 92 136 97 139
262 4 2 3 1 92 102 97 136
263 4 2 3 1 132 122 127 135
264 4 2 3 1 87 77 82 134
265 4 2 3 1 92 134 133 138
266 4 2 3 1 92 133 134 136
267 4 2 3 1 107 112 117 140
268 4 2 3 1 133 136 92 139
269 4 2 3 1 93 92 97 139
270 4 2 3 1 92 138 133 139
271 4 2 3 1 54 51 45 138
272 4 2 3 1 93 97 136 139
273 4 2 3 1 45 51 104 138
274 4 2 3 1 127 135 122 137
275 4 2 3 1 76 63 73 137
276 4 2 3 1 133 135 136 137
277 4 2 3 1 112 140 107 141
278 4 2 3 1 80 74 49 135
279 4 2 3 1 92 134 102 136
280 4 2 3 1 133 135 134 136
281 4 2 3 1 77 82 134 136
282 4 2 3 1 92 88 138 139
283 4 2 3 1 133 138 54 140
284 4 2 3 1 74 46 49 134
285 4 2 3 1 109 138 88 139
286 4 2 3 1 50 133 54 140
287 4 2 3 1 132 133 122 135
288 4 2 3 1 121 66 118 137
289 4 2 3 1 74 134 49 135
290 4 2 3 1 50 54 133 138
291 4 2 3 1 60 73 63 136
292 4 2 3 1 109 91 88 138
293 4 2 3 1 121 118 122 137
294 4 2 3 1 45 54 138 140
295 4 2 3 1 107 140 139 141
296 4 2 3 1 133 140 122 141
297 4 2 3 1 132 122 133 140
298 4 2 3 1 64 139 137 141
299 4 2 3 1 132 122 140 141
300 4 2 3 1 122 135 133 137
301 4 2 3 1 68 139 64 141
302 4 2 3 1 50 135 133 140
303 4 2 3 1 45 138 104 140
304 4 2 3 1 63 136 73 137
305 4 2 3 1 125 132 119 140
306 4 2 3 1 104 51 110 138
307 4 2 3 1 109 105 91 138
308 4 2 3 1 88 92 93 139
309 4 2 3 1 81 89 95 134
310 4 2 3 1 96 93 97 136
311 4 2 3 1 133 135 132 140
312 4 2 3 1 122 137 133 141
313 4 2 3 1 66 137 121 141
314 4 2 3 1 92 102 134 138
315 4 2 3 1 122 121 137 141
316 4 2 3 1 76 73 77 137
317 4 2 3 1 50 133 134 138
318 4 2 3 1 139 140 133 141
319 4 2 3 1 132 135 119 140
320 4 2 3 1 67 93 96 136
321 4 2 3 1 92 88 91 138
322 4 2 3 1 50 52 135 140
323 4 2 3 1 81 78 89 134
324 4 2 3 1 136 137 64 139
325 4 2 3 1 53 90 94 134
326 4 2 3 1 137 139 133 141
327 4 2 3 1 49 46 50 134
328 4 2 3 1 50 134 133 135
329 4 2 3 1 115 88 98 139
330 4 2 3 1 61 93 136 139
331 4 2 3 1 133 137 136 139
332 4 2 3 1 87 74 80 135
333 4 2 3 1 79 75 126 135
334 4 2 3 1 118 66 62 137
335 4 2 3 1 49 134 50 135
336 4 2 3 1 50 54 52 140
337 4 2 3 1 64 137 66 141
338 4 2 3 1 87 134 74 135
339 4 2 3 1 94 47 134 138
340 4 2 3 1 48 52 119 135
341 4 2 3 1 98 72 115 139
342 4 2 3 1 68 64 66 141
343 4 2 3 1 88 115 109 139
344 4 2 3 1 79 126 123 135
345 4 2 3 1 111 124 120 140
346 4 2 3 1 98 88 93 139
347 4 2 3 1 117 138 109 139
348 4 2 3 1 89 134 78 136
349 4 2 3 1 94 134 102 138
350 4 2 3 1 73 136 77 137
351 4 2 3 1 53 94 47 134
352 4 2 3 1 81 82 78 134
353 4 2 3 1 132 140 124 141
354 4 2 3 1 67 61 93 136
355 4 2 3 1 108 124 111 140
356 4 2 3 1 89 97 102 136
357 4 2 3 1 108 140 112 141
358 4 2 3 1 123 79 135 137
359 4 2 3 1 64 60 63 136
360 4 2 3 1 90 102 94 134
361 4 2 3 1 132 124 122 141
362 4 2 3 1 78 134 82 136
363 4 2 3 1 127 123 135 137
364 4 2 3 1 50 134 47 138
365 4 2 3 1 98 61 72 139
366 4 2 3 1 87 82 74 134
367 4 2 3 1 103 65 59 139
368 4 2 3 1 119 132 127 135
369 4 2 3 1 108 124 140 141
370 4 2 3 1 106 72 65 139
371 4 2 3 1 79 87 135 137
372 4 2 3 1 127 123 126 135
373 4 2 3 1 92 94 102 138
374 4 2 3 1 63 64 136 137
375 4 2 3 1 89 102 134 136
376 4 2 3 1 108 112 107 141
377 4 2 3 1 65 103 106 139
378 4 2 3 1 104 138 117 140
379 4 2 3 1 48 50 52 135
380 4 2 3 1 98 93 61 139
381 4 2 3 1 104 110 117 138
382 4 2 3 1 107 117 109 139
383 4 2 3 1 117 105 109 138
384 4 2 3 1 102 95 89 134
385 4 2 3 1 50 47 54 138
386 4 2 3 1 106 115 72 139
387 4 2 3 1 104 117 112 140
388 4 2 3 1 61 136 64 139
389 4 2 3 1 79 77 87 137
390 4 2 3 1 112 108 111 140
391 4 2 3 1 101 69 96 136
392 4 2 3 1 127 122 123 137
393 4 2 3 1 75 79 87 135
394 4 2 3 1 53 47 50 134
395 4 2 3 1 132 120 124 140
396 4 2 3 1 59 103 139 141
397 4 2 3 1 101 83 69 136
398 4 2 3 1 83 73 60 136
399 4 2 3 1 91 109 40 105
400 4 2 3 1 40 88 109 91
401 4 2 3 1 83 101 89 136
402 4 2 3 1 103 59 65 28
403 4 2 3 1 69 83 60 136
404 4 2 3 1 86 55 46 134
405 4 2 3 1 104 45 16 51
406 4 2 3 1 63 22 76 73
407 4 2 3 1 37 81 89 95
408 4 2 3 1 77 78 82 136
409 4 2 3 1 62 66 64 137
410 4 2 3 1 28 65 103 106
411 4 2 3 1 85 63 76 137
412 4 2 3 1 90 55 99 134
413 4 2 3 1 22 63 60 73
414 4 2 3 1 31 121 66 118
415 4 2 3 1 99 55 86 134
416 4 2 3 1 81 89 78 37
417 4 2 3 1 110 51 58 138
418 4 2 3 1 78 83 89 136
419 4 2 3 1 74 10 49 46
420 4 2 3 1 86 46 74 134
421 4 2 3 1 79 128 85 137
422 4 2 3 1 67 64 61 136
423 4 2 3 1 71 63 85 137
424 4 2 3 1 126 34 75 79
425 4 2 3 1 43 120 111 124
426 4 2 3 1 49 80 10 74
427 4 2 3 1 58 100 114 138
428 4 2 3 1 59 65 68 139
429 4 2 3 1 85 128 71 137
430 4 2 3 1 69 67 96 136
431 4 2 3 1 45 116 56 140
432 4 2 3 1 51 16 104 110
433 4 2 3 1 125 119 19 52
434 4 2 3 1 91 105 100 138
435 4 2 3 1 58 47 100 138
436 4 2 3 1 68 59 139 141
437 4 2 3 1 57 80 49 135
438 4 2 3 1 80 57 84 135
439 4 2 3 1 79 123 128 137
440 4 2 3 1 110 58 114 138
441 4 2 3 1 129 125 56 140
442 4 2 3 1 57 131 84 135
443 4 2 3 1 126 34 79 123
444 4 2 3 1 108 43 111 124
445 4 2 3 1 106 109 115 139
446 4 2 3 1 107 139 103 141
447 4 2 3 1 75 131 126 135
448 4 2 3 1 96 67 25 93
449 4 2 3 1 105 114 100 138
450 4 2 3 1 104 116 45 140
451 4 2 3 1 118 62 128 137
452 4 2 3 1 68 61 64 139
453 4 2 3 1 53 55 90 134
454 4 2 3 1 97 89 96 136
455 4 2 3 1 75 84 131 135
456 4 2 3 1 71 128 62 137
457 4 2 3 1 116 129 56 140
458 4 2 3 1 66 31 118 62
459 4 2 3 1 119 48 19 52
460 4 2 3 1 96 89 101 136
461 4 2 3 1 45 52 54 140
462 4 2 3 1 65 72 61 139
463 4 2 3 1 90 94 13 53
464 4 2 3 1 57 48 131 135
465 4 2 3 1 47 94 100 138
466 4 2 3 1 111 120 116 140
467 4 2 3 1 92 91 94 138
468 4 2 3 1 50 48 49 135
469 4 2 3 1 118 123 122 137
470 4 2 3 1 56 125 52 140
471 4 2 3 1 116 120 129 140
472 4 2 3 1 119 131 48 135
473 4 2 3 1 106 103 107 139
474 4 2 3 1 77 79 76 137
475 4 2 3 1 73 78 77 136
476 4 2 3 1 46 53 50 134
477 4 2 3 1 78 73 83 136
478 4 2 3 1 108 107 103 141
479 4 2 3 1 74 82 81 134
480 4 2 3 1 106 107 109 139
481 4 2 3 1 67 25 93 61
482 4 2 3 1 124 121 122 141
483 4 2 3 1 118 128 123 137
484 4 2 3 1 81 86 74 134
485 4 2 3 1 95 90 99 134
486 4 2 3 1 106 72 27 65
487 4 2 3 1 51 47 58 138
488 4 2 3 1 85 76 79 137
489 4 2 3 1 103 59 113 141
490 4 2 3 1 100 94 91 138
491 4 2 3 1 54 47 51 138
492 4 2 3 1 64 67 60 136
493 4 2 3 1 94 47 13 53
494 4 2 3 1 63 62 64 137
495 4 2 3 1 69 60 67 136
496 4 2 3 1 45 56 52 140
497 4 2 3 1 70 121 130 141
498 4 2 3 1 53 46 55 134
499 4 2 3 1 57 49 48 135
500 4 2 3 1 14 100 58 47
501 4 2 3 1 26 61 72 98
502 4 2 3 1 113 130 124 141
503 4 2 3 1 113 59 70 141
504 4 2 3 1 84 75 80 135
505 4 2 3 1 72 106 27 115
506 4 2 3 1 113 44 124 130
507 4 2 3 1 35 128 85 79
508 4 2 3 1 113 124 108 141
509 4 2 3 1 68 66 59 141
510 4 2 3 1 60 23 73 83
511 4 2 3 1 129 120 125 140
512 4 2 3 1 62 63 71 137
513 4 2 3 1 98 115 41 88
514 4 2 3 1 101 89 38 83
515 4 2 3 1 127 126 119 135
516 4 2 3 1 102 90 95 134
517 4 2 3 1 44 124 108 113
518 4 2 3 1 79 35 128 123
519 4 2 3 1 66 121 70 141
520 4 2 3 1 105 110 114 138
521 4 2 3 1 61 26 93 98
522 4 2 3 1 60 23 83 69
523 4 2 3 1 131 119 126 135
524 4 2 3 1 120 132 125 140
525 4 2 3 1 89 78 38 83
526 4 2 3 1 115 41 88 109
527 4 2 3 1 14 100 47 94
528 4 2 3 1 103 29 113 59
529 4 2 3 1 75 87 80 135
530 4 2 3 1 11 46 86 55
531 4 2 3 1 21 76 85 63
532 4 2 3 1 46 74 11 86
533 4 2 3 1 29 70 113 59
534 4 2 3 1 85 71 21 63
535 4 2 3 1 121 70 130 30
536 4 2 3 1 110 105 117 138
537 4 2 3 1 56 45 17 116
538 4 2 3 1 105 39 91 100
539 4 2 3 1 104 112 111 140
540 4 2 3 1 45 104 17 116
541 4 2 3 1 118 62 32 128
542 4 2 3 1 111 116 104 140
543 4 2 3 1 51 58 15 110
544 4 2 3 1 65 61 68 139
545 4 2 3 1 121 66 70 30
546 4 2 3 1 70 130 113 141
547 4 2 3 1 71 32 62 128
548 4 2 3 1 39 105 114 100
549 4 2 3 1 99 90 12 55
550 4 2 3 1 86 81 36 99
551 4 2 3 1 101 69 24 96
552 4 2 3 1 131 57 20 48
553 4 2 3 1 20 119 131 48
554 4 2 3 1 81 95 36 99
555 4 2 3 1 9 57 80 49
556 4 2 3 1 9 57 84 80
557 4 2 3 1 58 114 15 110
558 4 2 3 1 38 78 89 37
559 4 2 3 1 22 60 23 73
560 4 2 3 1 124 108 43 44
561 4 2 3 1 34 35 79 123
562 4 2 3 1 53 12 90 55
563 4 2 3 1 41 88 109 40
564 4 2 3 1 74 11 10 46
565 4 2 3 1 39 91 40 105
566 4 2 3 1 26 93 25 61
567 4 2 3 1 106 28 65 27
568 4 2 3 1 59 103 29 28
569 4 2 3 1 69 24 96 67
570 4 2 3 1 30 121 66 31
571 4 2 3 1 103 113 108 141
572 4 2 3 1 21 22 76 63
573 4 2 3 1 18 125 52 56
574 4 2 3 1 16 45 104 17
575 4 2 3 1 130 121 124 141
576 4 2 3 1 130 113 8 70
577 4 2 3 1 85 5 71 128
578 4 2 3 1 6 101 83 69
579 4 2 3 1 131 1 57 84
580 4 2 3 1 2 86 99 55
581 4 2 3 1 129 56 4 116
582 4 2 3 1 100 114 3 58
583 4 2 3 1 98 72 7 115
584 4 2 3 1 18 125 56 129
585 4 2 3 1 47 13 14 94
586 4 2 3 1 70 59 66 141
587 4 2 3 1 31 118 62 32
588 4 2 3 1 19 18 125 52
589 4 2 3 1 48 20 119 19
590 4 2 3 1 51 15 16 110
591 4 2 3 1 33 126 34 75
592 4 2 3 1 111 42 120 43
593 4 2 3 1 80 10 9 49
594 4 2 3 1 90 13 12 53
595 4 2 3 1 85 71 5 21
596 4 2 3 1 3 39 114 100
597 4 2 3 1 1 9 57 84
598 4 2 3 1 99 12 2 55
599 4 2 3 1 83 23 6 69
600 4 2 3 1 70 113 8 29
601 4 2 3 1 5 32 71 128
602 4 2 3 1 69 6 101 24
603 4 2 3 1 84 131 1 33
604 4 2 3 1 86 36 2 99
605 4 2 3 1 4 129 116 42
606 4 2 3 1 95 37 81 36
607 4 2 3 1 56 17 4 116
608 4 2 3 1 131 57 1 20
609 4 2 3 1 86 2 11 55
610 4 2 3 1 7 98 115 41
611 4 2 3 1 15 3 114 58
612 4 2 3 1 72 27 7 115
613 4 2 3 1 8 44 113 130
614 4 2 3 1 128 85 5 35
615 4 2 3 1 101 38 6 83
616 4 2 3 1 24 96 67 25
617 4 2 3 1 70 8 130 30
618 4 2 3 1 56 4 18 129
619 4 2 3 1 72 7 26 98
620 4 2 3 1 100 3 14 58
621 4 2 3 1 119 140 52 125
622 4 2 3 1 52 140 119 135
623 4 2 3 1 137 87 136 77
624 4 2 3 1 137 136 87 135
625 4 2 3 1 134 136 87 77
626 4 2 3 1 134 87 136 135
627 4 2 3 1 139 133 117 138
628 4 2 3 1 140 117 133 138
629 4 2 3 1 139 140 117 133
630 4 2 3 1 117 140 139 107
631 4 2 3 1 75 131 33 126
632 4 2 3 1 75 33 131 84
633 4 2 3 1 116 120 42 129
634 4 2 3 1 42 120 116 111
635 4 2 3 1 81 99 134 95
636 4 2 3 1 134 99 81 86
$EndElements
