$MeshFormat
2.2 0 8
$EndMeshFormat
$PhysicalNames
3
2 1 "Tampa"
2 2 "Paredes"
3 3 "Dominio_3D"
$EndPhysicalNames
$Nodes
228
1 -1 -1 -1
2 1 -1 -1
3 1 1 -1
4 -1 1 -1
5 -1 -1 1
6 1 -1 1
7 1 1 1
8 -1 1 1
9 -0.6000000000011096 -1 -1
10 -0.2000000000022192 -1 -1
11 0.1999999999977808 -1 -1
12 0.5999999999988903 -1 -1
13 1 -0.6000000000011096 -1
14 1 -0.2000000000022192 -1
15 1 0.1999999999977808 -1
16 1 0.5999999999988903 -1
17 0.6000000000011096 1 -1
18 0.2000000000022192 1 -1
19 -0.1999999999977808 1 -1
20 -0.5999999999988903 1 -1
21 -1 0.6000000000011096 -1
22 -1 0.2000000000022192 -1
23 -1 -0.1999999999977808 -1
24 -1 -0.5999999999988903 -1
25 -0.6000000000011096 -1 1
26 -0.2000000000022192 -1 1
27 0.1999999999977808 -1 1
28 0.5999999999988903 -1 1
29 1 -0.6000000000011096 1
30 1 -0.2000000000022192 1
31 1 0.1999999999977808 1
32 1 0.5999999999988903 1
33 0.6000000000011096 1 1
34 0.2000000000022192 1 1
35 -0.1999999999977808 1 1
36 -0.5999999999988903 1 1
37 -1 0.6000000000011096 1
38 -1 0.2000000000022192 1
39 -1 -0.1999999999977808 1
40 -1 -0.5999999999988903 1
41 -1 -1 -0.6000000000011096
42 -1 -1 -0.2000000000022192
43 -1 -1 0.1999999999977808
44 -1 -1 0.5999999999988903
45 1 -1 -0.6000000000011096
46 1 -1 -0.2000000000022192
47 1 -1 0.1999999999977808
48 1 -1 0.5999999999988903
49 1 1 -0.6000000000011096
50 1 1 -0.2000000000022192
51 1 1 0.1999999999977808
52 1 1 0.5999999999988903
53 -1 1 -0.6000000000011096
54 -1 1 -0.2000000000022192
55 -1 1 0.1999999999977808
56 -1 1 0.5999999999988903
57 -0.01216309682771772 -0.7352479138591141 -1
58 -0.003269207042750438 0.6554773160539925 -1
59 -0.672586775903395 -0.02266982851507516 -1
60 0.670699298336304 -0.01940062147441995 -1
61 -0.3985036192828604 0.6614058246872866 -1
62 -0.2076802454466459 0.341468893679051 -1
63 0.2004031810332125 0.351037783374315 -1
64 2.927251686451329e-12 -0.03923048454045552 -1
65 -0.6612357130465309 -0.3997728467882793 -1
66 0.6611538253976047 -0.3996310132224941 -1
67 0.6293992249287922 0.378298756522107 -1
68 0.371842327040014 -0.655025440426962 -1
69 -0.6236206085817111 0.3672829768563633 -1
70 0.3889521459823602 0.6819989221535663 -1
71 -0.3684308773648383 -0.6269443713041177 -1
72 -0.3570771321516997 -0.2252385702487579 -1
73 0.3370456515190843 -0.2293502416688604 -1
74 -0.04623346201271752 -0.365177344152676 -1
75 -0.7071796769709063 0.7071796769715012 -1
76 -0.7071796769715617 -0.7071796769709668 -1
77 0.707179676971578 0.7071796769709834 -1
78 0.7071796769730438 -0.7071796769736384 -1
79 0.379393942467847 0.08359627116423975 -1
80 -0.37939394246817 0.08359627116845073 -1
81 -0.01216309682771772 -0.7352479138591141 1
82 -0.003269207042750438 0.6554773160539925 1
83 -0.672586775903395 -0.02266982851507516 1
84 0.670699298336304 -0.01940062147441995 1
85 -0.3985036192828604 0.6614058246872866 1
86 -0.2076802454466459 0.341468893679051 1
87 0.2004031810332125 0.351037783374315 1
88 2.927251686451329e-12 -0.03923048454045552 1
89 -0.6612357130465309 -0.3997728467882793 1
90 0.6611538253976047 -0.3996310132224941 1
91 0.6293992249287922 0.378298756522107 1
92 0.371842327040014 -0.655025440426962 1
93 -0.6236206085817111 0.3672829768563633 1
94 0.3889521459823602 0.6819989221535663 1
95 -0.3684308773648383 -0.6269443713041177 1
96 -0.3570771321516997 -0.2252385702487579 1
97 0.3370456515190843 -0.2293502416688604 1
98 -0.04623346201271752 -0.365177344152676 1
99 -0.7071796769709063 0.7071796769715012 1
100 -0.7071796769715617 -0.7071796769709668 1
101 0.707179676971578 0.7071796769709834 1
102 0.7071796769730438 -0.7071796769736384 1
103 0.379393942467847 0.08359627116423975 1
104 -0.37939394246817 0.08359627116845073 1
105 -0.7352479138593492 -1 0.0121630968239209
106 0.65547731605399 -1 0.003269207042748403
107 -0.02266982851892887 -1 0.6725867759029197
108 -0.01940062147442081 -1 -0.6706992983363064
109 0.6614058246870953 -1 0.39850361928283
110 0.3414688936780484 -1 0.2076802454463045
111 0.351037783374143 -1 -0.2004031810332718
112 -0.03923048454047801 -1 -2.93476081456776e-12
113 -0.3997728467920166 -1 0.6612357130465165
114 0.3782987565220888 -1 -0.629399224928799
115 -0.3996310132225157 -1 -0.6611538253977415
116 0.3672829768542501 -1 0.6236206085814837
117 0.6819989221535342 -1 -0.3889521459823715
118 -0.6269443713057538 -1 0.3684308773629602
119 -0.6550254404276215 -1 -0.37184232704269
120 -0.2252385702508528 -1 0.3570771321506158
121 -0.2293502416690537 -1 -0.3370456515200567
122 -0.3651773441532187 -1 0.04623346201004169
123 0.7071796769709834 -1 -0.707179676971578
124 0.7071796769712836 -1 0.7071796769712836
125 -0.7071796769732615 -1 -0.7071796769732615
126 -0.7071796769735758 -1 0.707179676972981
127 0.08359627116558102 -1 0.3793939424670488
128 0.08359627116423454 -1 -0.3793939424678516
129 1 0.01216309682408709 -0.7352479138593617
130 1 -0.003269207046872493 0.6554773160539243
131 1 0.6706992983357321 -0.01940062147423416
132 1 -0.6725867759035928 -0.02266982851930742
133 1 -0.3985036192864899 0.66140582468728
134 1 -0.2076802454493998 0.3414688936777143
135 1 0.2004031810306395 0.3510377833741373
136 1 -1.688868859235287e-12 -0.03923048454035749
137 1 -0.6612357130467843 -0.3997728467920546
138 1 0.6293992249280463 0.3782987565221708
139 1 0.6611538253974754 -0.399631013222486
140 1 0.3889521459799741 0.6819989221535987
141 1 0.3684191791275638 -0.6269241093673416
142 1 -0.6236206085829998 0.3672829768542618
143 1 -0.3718453721891827 -0.6550307147765373
144 1 0.3567469549089138 -0.2246666864921081
145 1 -0.337445182007573 -0.221371162497814
146 1 0.04620116422166409 -0.3648057129527418
147 1 0.7071796769713604 0.7071796769713604
148 1 -0.7071796769731986 -0.7071796769731986
149 1 -0.7071796769735098 0.707179676972915
150 1 0.7071796769730438 -0.7071796769736384
151 1 0.3793939424668231 0.08359627116535449
152 1 -0.3793939424680069 0.08359627116455974
153 0.7352479138593492 1 0.0121630968239209
154 -0.65547731605399 1 0.003269207042748403
155 0.02266982851892887 1 0.6725867759029197
156 0.01940062147442081 1 -0.6706992983363064
157 -0.6614058246870953 1 0.39850361928283
158 -0.3414688936780484 1 0.2076802454463045
159 -0.351037783374143 1 -0.2004031810332718
160 0.03923048454047801 1 -2.93476081456776e-12
161 0.3997728467920166 1 0.6612357130465165
162 -0.3782987565220888 1 -0.629399224928799
163 0.3996310132225157 1 -0.6611538253977415
164 -0.3672829768542501 1 0.6236206085814837
165 -0.6819989221535342 1 -0.3889521459823715
166 0.6269443713057538 1 0.3684308773629602
167 0.6550254404276215 1 -0.37184232704269
168 0.2252385702508528 1 0.3570771321506158
169 0.2293502416690537 1 -0.3370456515200567
170 0.3651773441532187 1 0.04623346201004169
171 -0.7071796769709834 1 -0.707179676971578
172 -0.7071796769712836 1 0.7071796769712836
173 0.7071796769732615 1 -0.7071796769732615
174 0.7071796769735758 1 0.707179676972981
175 -0.08359627116558102 1 0.3793939424670488
176 -0.08359627116423454 1 -0.3793939424678516
177 -1 0.7352479138593492 0.0121630968239209
178 -1 -0.65547731605399 0.003269207042748403
179 -1 0.02266982851892887 0.6725867759029197
180 -1 0.01940062147442081 -0.6706992983363064
181 -1 -0.6614058246870953 0.39850361928283
182 -1 -0.3414688936780484 0.2076802454463045
183 -1 -0.351037783374143 -0.2004031810332718
184 -1 0.03923048454047801 -2.93476081456776e-12
185 -1 0.3997728467920166 0.6612357130465165
186 -1 -0.3782987565220888 -0.629399224928799
187 -1 0.3996310132225157 -0.6611538253977415
188 -1 -0.3672829768542501 0.6236206085814837
189 -1 -0.6819989221535342 -0.3889521459823715
190 -1 0.6269443713057538 0.3684308773629602
191 -1 0.6550254404276215 -0.37184232704269
192 -1 0.2252385702508528 0.3570771321506158
193 -1 0.2293502416690537 -0.3370456515200567
194 -1 0.3651773441532187 0.04623346201004169
195 -1 -0.7071796769709834 -0.707179676971578
196 -1 -0.7071796769712836 0.7071796769712836
197 -1 0.7071796769732615 -0.7071796769732615
198 -1 0.7071796769735758 0.707179676972981
199 -1 -0.08359627116558102 0.3793939424670488
200 -1 -0.08359627116423454 -0.3793939424678516
201 -2.255140518769849e-15 -1.887379141862766e-15 1.325796322492679e-15
202 -0.375775235441398 -0.3719461014036555 0.3711608944218926
203 -0.3707698983026431 0.3754501983975632 0.3746598974874707
204 0.3719109223541864 0.3707290125458851 -0.3770224574648583
205 -0.3769099548137682 -0.3716740062333879 -0.3708169984097313
206 0.4011914712460837 0.3958379773548844 0.288219171476314
207 0.3755024457772729 -0.3746758480362383 0.3706071895021376
208 -0.3705682944895248 0.3765981365846393 -0.3743097814341084
209 0.372146530868194 -0.3766501979366427 -0.3712854684023132
210 0.04224337630442535 0.09597868826736572 0.5045348059048024
211 -0.5028289831084229 -0.05249661516810655 0.0004824831331610905
212 -0.0008288635710216029 -0.5007369987393071 0.05953490562483602
213 -0.002316457235649563 0.05450303026421791 -0.5029076957448337
214 -0.05503853141644112 0.5029287037145042 0.0004545231299708022
215 0.5019823620485186 -0.02512469350280581 0.03091592174138863
216 0.5417484983267835 0.02894573231164887 0.5489956734486374
217 -0.0006183597887597612 -0.547792596874165 0.5771330770572611
218 0.02972031124749975 0.5686348122695861 0.5041771750201803
219 0.5786991588299566 -0.004232417013436835 -0.548326923215253
220 -0.5583767591292562 0.002122044050039202 0.5586706163785229
221 -0.5575914551590735 0.003150648259341381 -0.558856522302936
222 0.001495796729237043 0.5614563544454069 -0.5563061117656631
223 0.5622174750507927 -0.5561848275547852 -0.0007109151013462798
224 -0.003832776289842585 -0.5792865062281811 -0.5123426306093569
225 0.5693057346616071 0.6009745914255299 -0.0606621275927974
226 -0.547711786863032 -0.5820454592139683 0.002034259552722247
227 -0.5822844421003516 0.5482014475300641 0.007352928754572597
228 0.5547960323231952 0.6095358626942029 0.6184654153022496
$EndNodes
$Elements
1064
1 2 2 2 1 1 9 76
2 2 2 2 1 24 1 76
3 2 2 2 1 12 2 78
4 2 2 2 1 2 13 78
5 2 2 2 1 16 3 77
6 2 2 2 1 3 17 77
7 2 2 2 1 20 4 75
8 2 2 2 1 4 21 75
9 2 2 2 1 9 10 71
10 2 2 2 1 9 71 76
11 2 2 2 1 10 11 57
12 2 2 2 1 10 57 71
13 2 2 2 1 11 12 68
14 2 2 2 1 57 11 68
15 2 2 2 1 68 12 78
16 2 2 2 1 13 14 66
17 2 2 2 1 13 66 78
18 2 2 2 1 14 15 60
19 2 2 2 1 14 60 66
20 2 2 2 1 15 16 67
21 2 2 2 1 60 15 67
22 2 2 2 1 67 16 77
23 2 2 2 1 17 18 70
24 2 2 2 1 17 70 77
25 2 2 2 1 18 19 58
26 2 2 2 1 18 58 70
27 2 2 2 1 19 20 61
28 2 2 2 1 58 19 61
29 2 2 2 1 61 20 75
30 2 2 2 1 21 22 69
31 2 2 2 1 21 69 75
32 2 2 2 1 22 23 59
33 2 2 2 1 22 59 69
34 2 2 2 1 23 24 65
35 2 2 2 1 59 23 65
36 2 2 2 1 65 24 76
37 2 2 2 1 57 68 74
38 2 2 2 1 71 57 74
39 2 2 2 1 58 61 62
40 2 2 2 1 58 62 63
41 2 2 2 1 58 63 70
42 2 2 2 1 59 65 72
43 2 2 2 1 69 59 80
44 2 2 2 1 59 72 80
45 2 2 2 1 66 60 73
46 2 2 2 1 60 67 79
47 2 2 2 1 73 60 79
48 2 2 2 1 62 61 69
49 2 2 2 1 69 61 75
50 2 2 2 1 63 62 64
51 2 2 2 1 64 62 80
52 2 2 2 1 62 69 80
53 2 2 2 1 63 64 79
54 2 2 2 1 63 67 70
55 2 2 2 1 67 63 79
56 2 2 2 1 64 72 74
57 2 2 2 1 72 64 80
58 2 2 2 1 73 64 74
59 2 2 2 1 64 73 79
60 2 2 2 1 65 71 72
61 2 2 2 1 71 65 76
62 2 2 2 1 68 66 73
63 2 2 2 1 66 68 78
64 2 2 2 1 70 67 77
65 2 2 2 1 68 73 74
66 2 2 2 1 72 71 74
67 2 2 1 2 5 25 100
68 2 2 1 2 40 5 100
69 2 2 1 2 28 6 102
70 2 2 1 2 6 29 102
71 2 2 1 2 32 7 101
72 2 2 1 2 7 33 101
73 2 2 1 2 36 8 99
74 2 2 1 2 8 37 99
75 2 2 1 2 25 26 95
76 2 2 1 2 25 95 100
77 2 2 1 2 26 27 81
78 2 2 1 2 26 81 95
79 2 2 1 2 27 28 92
80 2 2 1 2 81 27 92
81 2 2 1 2 92 28 102
82 2 2 1 2 29 30 90
83 2 2 1 2 29 90 102
84 2 2 1 2 30 31 84
85 2 2 1 2 30 84 90
86 2 2 1 2 31 32 91
87 2 2 1 2 84 31 91
88 2 2 1 2 91 32 101
89 2 2 1 2 33 34 94
90 2 2 1 2 33 94 101
91 2 2 1 2 34 35 82
92 2 2 1 2 34 82 94
93 2 2 1 2 35 36 85
94 2 2 1 2 82 35 85
95 2 2 1 2 85 36 99
96 2 2 1 2 37 38 93
97 2 2 1 2 37 93 99
98 2 2 1 2 38 39 83
99 2 2 1 2 38 83 93
100 2 2 1 2 39 40 89
101 2 2 1 2 83 39 89
102 2 2 1 2 89 40 100
103 2 2 1 2 81 92 98
104 2 2 1 2 95 81 98
105 2 2 1 2 82 85 86
106 2 2 1 2 82 86 87
107 2 2 1 2 82 87 94
108 2 2 1 2 83 89 96
109 2 2 1 2 93 83 104
110 2 2 1 2 83 96 104
111 2 2 1 2 90 84 97
112 2 2 1 2 84 91 103
113 2 2 1 2 97 84 103
114 2 2 1 2 86 85 93
115 2 2 1 2 93 85 99
116 2 2 1 2 87 86 88
117 2 2 1 2 88 86 104
118 2 2 1 2 86 93 104
119 2 2 1 2 87 88 103
120 2 2 1 2 87 91 94
121 2 2 1 2 91 87 103
122 2 2 1 2 88 96 98
123 2 2 1 2 96 88 104
124 2 2 1 2 97 88 98
125 2 2 1 2 88 97 103
126 2 2 1 2 89 95 96
127 2 2 1 2 95 89 100
128 2 2 1 2 92 90 97
129 2 2 1 2 90 92 102
130 2 2 1 2 94 91 101
131 2 2 1 2 92 97 98
132 2 2 1 2 96 95 98
133 2 2 2 3 1 9 125
134 2 2 2 3 41 1 125
135 2 2 2 3 12 2 123
136 2 2 2 3 2 45 123
137 2 2 2 3 25 5 126
138 2 2 2 3 5 44 126
139 2 2 2 3 6 28 124
140 2 2 2 3 48 6 124
141 2 2 2 3 9 10 115
142 2 2 2 3 9 115 125
143 2 2 2 3 10 11 108
144 2 2 2 3 10 108 115
145 2 2 2 3 11 12 114
146 2 2 2 3 108 11 114
147 2 2 2 3 114 12 123
148 2 2 2 3 26 25 113
149 2 2 2 3 113 25 126
150 2 2 2 3 27 26 107
151 2 2 2 3 107 26 113
152 2 2 2 3 28 27 116
153 2 2 2 3 27 107 116
154 2 2 2 3 28 116 124
155 2 2 2 3 42 41 119
156 2 2 2 3 119 41 125
157 2 2 2 3 43 42 105
158 2 2 2 3 105 42 119
159 2 2 2 3 44 43 118
160 2 2 2 3 43 105 118
161 2 2 2 3 44 118 126
162 2 2 2 3 45 46 117
163 2 2 2 3 45 117 123
164 2 2 2 3 46 47 106
165 2 2 2 3 46 106 117
166 2 2 2 3 47 48 109
167 2 2 2 3 106 47 109
168 2 2 2 3 109 48 124
169 2 2 2 3 118 105 122
170 2 2 2 3 105 119 122
171 2 2 2 3 106 109 110
172 2 2 2 3 106 110 111
173 2 2 2 3 106 111 117
174 2 2 2 3 107 113 120
175 2 2 2 3 116 107 127
176 2 2 2 3 107 120 127
177 2 2 2 3 108 114 128
178 2 2 2 3 115 108 121
179 2 2 2 3 121 108 128
180 2 2 2 3 110 109 116
181 2 2 2 3 116 109 124
182 2 2 2 3 111 110 112
183 2 2 2 3 112 110 127
184 2 2 2 3 110 116 127
185 2 2 2 3 111 112 128
186 2 2 2 3 111 114 117
187 2 2 2 3 114 111 128
188 2 2 2 3 112 120 122
189 2 2 2 3 120 112 127
190 2 2 2 3 121 112 122
191 2 2 2 3 112 121 128
192 2 2 2 3 113 118 120
193 2 2 2 3 118 113 126
194 2 2 2 3 117 114 123
195 2 2 2 3 119 115 121
196 2 2 2 3 115 119 125
197 2 2 2 3 120 118 122
198 2 2 2 3 119 121 122
199 2 2 2 4 2 13 148
200 2 2 2 4 45 2 148
201 2 2 2 4 16 3 150
202 2 2 2 4 3 49 150
203 2 2 2 4 29 6 149
204 2 2 2 4 6 48 149
205 2 2 2 4 7 32 147
206 2 2 2 4 52 7 147
207 2 2 2 4 13 14 143
208 2 2 2 4 13 143 148
209 2 2 2 4 14 15 129
210 2 2 2 4 14 129 143
211 2 2 2 4 15 16 141
212 2 2 2 4 129 15 141
213 2 2 2 4 141 16 150
214 2 2 2 4 30 29 133
215 2 2 2 4 133 29 149
216 2 2 2 4 31 30 130
217 2 2 2 4 130 30 133
218 2 2 2 4 32 31 140
219 2 2 2 4 31 130 140
220 2 2 2 4 32 140 147
221 2 2 2 4 46 45 137
222 2 2 2 4 137 45 148
223 2 2 2 4 47 46 132
224 2 2 2 4 132 46 137
225 2 2 2 4 48 47 142
226 2 2 2 4 47 132 142
227 2 2 2 4 48 142 149
228 2 2 2 4 49 50 139
229 2 2 2 4 49 139 150
230 2 2 2 4 50 51 131
231 2 2 2 4 50 131 139
232 2 2 2 4 51 52 138
233 2 2 2 4 131 51 138
234 2 2 2 4 138 52 147
235 2 2 2 4 129 141 146
236 2 2 2 4 143 129 146
237 2 2 2 4 130 133 134
238 2 2 2 4 130 134 135
239 2 2 2 4 130 135 140
240 2 2 2 4 131 138 151
241 2 2 2 4 139 131 144
242 2 2 2 4 144 131 151
243 2 2 2 4 132 137 145
244 2 2 2 4 142 132 152
245 2 2 2 4 132 145 152
246 2 2 2 4 134 133 142
247 2 2 2 4 142 133 149
248 2 2 2 4 135 134 136
249 2 2 2 4 136 134 152
250 2 2 2 4 134 142 152
251 2 2 2 4 135 136 151
252 2 2 2 4 135 138 140
253 2 2 2 4 138 135 151
254 2 2 2 4 144 136 146
255 2 2 2 4 136 144 151
256 2 2 2 4 136 145 146
257 2 2 2 4 145 136 152
258 2 2 2 4 137 143 145
259 2 2 2 4 143 137 148
260 2 2 2 4 140 138 147
261 2 2 2 4 141 139 144
262 2 2 2 4 139 141 150
263 2 2 2 4 141 144 146
264 2 2 2 4 145 143 146
265 2 2 2 5 3 17 173
266 2 2 2 5 49 3 173
267 2 2 2 5 20 4 171
268 2 2 2 5 4 53 171
269 2 2 2 5 33 7 174
270 2 2 2 5 7 52 174
271 2 2 2 5 8 36 172
272 2 2 2 5 56 8 172
273 2 2 2 5 17 18 163
274 2 2 2 5 17 163 173
275 2 2 2 5 18 19 156
276 2 2 2 5 18 156 163
277 2 2 2 5 19 20 162
278 2 2 2 5 156 19 162
279 2 2 2 5 162 20 171
280 2 2 2 5 34 33 161
281 2 2 2 5 161 33 174
282 2 2 2 5 35 34 155
283 2 2 2 5 155 34 161
284 2 2 2 5 36 35 164
285 2 2 2 5 35 155 164
286 2 2 2 5 36 164 172
287 2 2 2 5 50 49 167
288 2 2 2 5 167 49 173
289 2 2 2 5 51 50 153
290 2 2 2 5 153 50 167
291 2 2 2 5 52 51 166
292 2 2 2 5 51 153 166
293 2 2 2 5 52 166 174
294 2 2 2 5 53 54 165
295 2 2 2 5 53 165 171
296 2 2 2 5 54 55 154
297 2 2 2 5 54 154 165
298 2 2 2 5 55 56 157
299 2 2 2 5 154 55 157
300 2 2 2 5 157 56 172
301 2 2 2 5 166 153 170
302 2 2 2 5 153 167 170
303 2 2 2 5 154 157 158
304 2 2 2 5 154 158 159
305 2 2 2 5 154 159 165
306 2 2 2 5 155 161 168
307 2 2 2 5 164 155 175
308 2 2 2 5 155 168 175
309 2 2 2 5 156 162 176
310 2 2 2 5 163 156 169
311 2 2 2 5 169 156 176
312 2 2 2 5 158 157 164
313 2 2 2 5 164 157 172
314 2 2 2 5 159 158 160
315 2 2 2 5 160 158 175
316 2 2 2 5 158 164 175
317 2 2 2 5 159 160 176
318 2 2 2 5 159 162 165
319 2 2 2 5 162 159 176
320 2 2 2 5 160 168 170
321 2 2 2 5 168 160 175
322 2 2 2 5 169 160 170
323 2 2 2 5 160 169 176
324 2 2 2 5 161 166 168
325 2 2 2 5 166 161 174
326 2 2 2 5 165 162 171
327 2 2 2 5 167 163 169
328 2 2 2 5 163 167 173
329 2 2 2 5 168 166 170
330 2 2 2 5 167 169 170
331 2 2 2 6 24 1 195
332 2 2 2 6 1 41 195
333 2 2 2 6 4 21 197
334 2 2 2 6 53 4 197
335 2 2 2 6 5 40 196
336 2 2 2 6 44 5 196
337 2 2 2 6 37 8 198
338 2 2 2 6 8 56 198
339 2 2 2 6 21 22 187
340 2 2 2 6 21 187 197
341 2 2 2 6 22 23 180
342 2 2 2 6 22 180 187
343 2 2 2 6 23 24 186
344 2 2 2 6 180 23 186
345 2 2 2 6 186 24 195
346 2 2 2 6 38 37 185
347 2 2 2 6 185 37 198
348 2 2 2 6 39 38 179
349 2 2 2 6 179 38 185
350 2 2 2 6 40 39 188
351 2 2 2 6 39 179 188
352 2 2 2 6 40 188 196
353 2 2 2 6 41 42 189
354 2 2 2 6 41 189 195
355 2 2 2 6 42 43 178
356 2 2 2 6 42 178 189
357 2 2 2 6 43 44 181
358 2 2 2 6 178 43 181
359 2 2 2 6 181 44 196
360 2 2 2 6 54 53 191
361 2 2 2 6 191 53 197
362 2 2 2 6 55 54 177
363 2 2 2 6 177 54 191
364 2 2 2 6 56 55 190
365 2 2 2 6 55 177 190
366 2 2 2 6 56 190 198
367 2 2 2 6 190 177 194
368 2 2 2 6 177 191 194
369 2 2 2 6 178 181 182
370 2 2 2 6 178 182 183
371 2 2 2 6 178 183 189
372 2 2 2 6 179 185 192
373 2 2 2 6 188 179 199
374 2 2 2 6 179 192 199
375 2 2 2 6 180 186 200
376 2 2 2 6 187 180 193
377 2 2 2 6 193 180 200
378 2 2 2 6 182 181 188
379 2 2 2 6 188 181 196
380 2 2 2 6 183 182 184
381 2 2 2 6 184 182 199
382 2 2 2 6 182 188 199
383 2 2 2 6 183 184 200
384 2 2 2 6 183 186 189
385 2 2 2 6 186 183 200
386 2 2 2 6 184 192 194
387 2 2 2 6 192 184 199
388 2 2 2 6 193 184 194
389 2 2 2 6 184 193 200
390 2 2 2 6 185 190 192
391 2 2 2 6 190 185 198
392 2 2 2 6 189 186 195
393 2 2 2 6 191 187 193
394 2 2 2 6 187 191 197
395 2 2 2 6 192 190 194
396 2 2 2 6 191 193 194
397 4 2 3 1 133 149 90 207
398 4 2 3 1 100 113 126 202
399 4 2 3 1 100 126 196 202
400 4 2 3 1 196 89 100 202
401 4 2 3 1 181 196 126 202
402 4 2 3 1 139 173 150 204
403 4 2 3 1 115 76 125 205
404 4 2 3 1 173 77 150 204
405 4 2 3 1 76 195 125 205
406 4 2 3 1 76 65 195 205
407 4 2 3 1 189 125 195 205
408 4 2 3 1 99 185 198 203
409 4 2 3 1 99 198 172 203
410 4 2 3 1 157 172 198 203
411 4 2 3 1 85 99 172 203
412 4 2 3 1 148 66 78 209
413 4 2 3 1 149 102 90 207
414 4 2 3 1 149 124 102 207
415 4 2 3 1 148 78 123 209
416 4 2 3 1 187 75 197 208
417 4 2 3 1 171 165 197 208
418 4 2 3 1 75 171 197 208
419 4 2 3 1 124 149 109 207
420 4 2 3 1 75 61 171 208
421 4 2 3 1 186 195 65 205
422 4 2 3 1 100 95 113 202
423 4 2 3 1 118 181 126 202
424 4 2 3 1 196 188 89 202
425 4 2 3 1 71 76 115 205
426 4 2 3 1 162 171 61 208
427 4 2 3 1 198 190 157 203
428 4 2 3 1 77 67 150 204
429 4 2 3 1 99 93 185 203
430 4 2 3 1 172 164 85 203
431 4 2 3 1 114 123 78 209
432 4 2 3 1 69 75 187 208
433 4 2 3 1 149 142 109 207
434 4 2 3 1 89 95 100 202
435 4 2 3 1 118 126 113 202
436 4 2 3 1 67 141 150 204
437 4 2 3 1 77 70 67 204
438 4 2 3 1 195 186 189 205
439 4 2 3 1 71 65 76 205
440 4 2 3 1 150 141 139 204
441 4 2 3 1 196 181 188 202
442 4 2 3 1 198 185 190 203
443 4 2 3 1 117 123 114 209
444 4 2 3 1 171 162 165 208
445 4 2 3 1 202 210 96 217
446 4 2 3 1 99 85 93 203
447 4 2 3 1 172 157 164 203
448 4 2 3 1 124 109 116 207
449 4 2 3 1 149 133 142 207
450 4 2 3 1 61 75 69 208
451 4 2 3 1 125 189 119 205
452 4 2 3 1 139 167 173 204
453 4 2 3 1 165 191 197 208
454 4 2 3 1 96 210 202 220
455 4 2 3 1 66 148 143 209
456 4 2 3 1 92 102 124 207
457 4 2 3 1 90 133 207 216
458 4 2 3 1 114 78 68 209
459 4 2 3 1 167 163 173 204
460 4 2 3 1 125 119 115 205
461 4 2 3 1 163 70 204 222
462 4 2 3 1 210 211 202 220
463 4 2 3 1 116 92 124 207
464 4 2 3 1 92 90 102 207
465 4 2 3 1 66 68 78 209
466 4 2 3 1 143 148 137 209
467 4 2 3 1 197 191 187 208
468 4 2 3 1 137 209 117 223
469 4 2 3 1 201 205 213 224
470 4 2 3 1 203 211 210 220
471 4 2 3 1 202 212 210 217
472 4 2 3 1 205 201 212 224
473 4 2 3 1 201 213 209 224
474 4 2 3 1 144 215 204 219
475 4 2 3 1 209 213 73 224
476 4 2 3 1 209 212 201 224
477 4 2 3 1 96 104 210 220
478 4 2 3 1 113 202 95 217
479 4 2 3 1 164 85 203 218
480 4 2 3 1 97 210 207 217
481 4 2 3 1 201 202 210 211
482 4 2 3 1 210 212 207 217
483 4 2 3 1 89 202 188 220
484 4 2 3 1 65 186 205 221
485 4 2 3 1 203 211 192 227
486 4 2 3 1 204 215 144 225
487 4 2 3 1 87 216 206 228
488 4 2 3 1 185 203 93 220
489 4 2 3 1 204 215 213 219
490 4 2 3 1 71 205 115 224
491 4 2 3 1 192 211 203 220
492 4 2 3 1 213 215 209 219
493 4 2 3 1 201 210 203 211
494 4 2 3 1 162 208 61 222
495 4 2 3 1 169 214 204 225
496 4 2 3 1 187 69 208 221
497 4 2 3 1 202 201 210 212
498 4 2 3 1 87 210 206 216
499 4 2 3 1 206 218 87 228
500 4 2 3 1 205 213 72 221
501 4 2 3 1 181 202 118 226
502 4 2 3 1 88 210 97 217
503 4 2 3 1 109 207 142 223
504 4 2 3 1 151 144 215 225
505 4 2 3 1 104 203 210 220
506 4 2 3 1 96 104 88 210
507 4 2 3 1 201 206 204 214
508 4 2 3 1 120 202 113 217
509 4 2 3 1 206 210 87 218
510 4 2 3 1 204 206 201 215
511 4 2 3 1 190 157 203 227
512 4 2 3 1 96 202 89 220
513 4 2 3 1 86 203 85 218
514 4 2 3 1 121 212 205 226
515 4 2 3 1 193 211 208 227
516 4 2 3 1 95 89 96 202
517 4 2 3 1 192 203 185 220
518 4 2 3 1 113 120 118 202
519 4 2 3 1 205 212 121 224
520 4 2 3 1 65 205 72 221
521 4 2 3 1 199 202 211 220
522 4 2 3 1 86 104 203 210
523 4 2 3 1 72 65 71 205
524 4 2 3 1 168 214 206 218
525 4 2 3 1 73 213 209 219
526 4 2 3 1 139 141 144 204
527 4 2 3 1 190 185 192 203
528 4 2 3 1 207 210 201 212
529 4 2 3 1 72 205 71 224
530 4 2 3 1 204 214 169 222
531 4 2 3 1 141 204 67 219
532 4 2 3 1 128 212 111 224
533 4 2 3 1 207 210 97 216
534 4 2 3 1 111 212 209 224
535 4 2 3 1 90 207 97 216
536 4 2 3 1 209 213 201 215
537 4 2 3 1 208 211 193 221
538 4 2 3 1 139 204 144 225
539 4 2 3 1 90 84 133 216
540 4 2 3 1 74 73 213 224
541 4 2 3 1 139 167 204 225
542 4 2 3 1 204 201 213 215
543 4 2 3 1 200 211 205 221
544 4 2 3 1 211 213 205 221
545 4 2 3 1 79 204 213 219
546 4 2 3 1 133 134 207 216
547 4 2 3 1 80 213 208 221
548 4 2 3 1 63 67 70 204
549 4 2 3 1 183 189 186 205
550 4 2 3 1 199 202 182 211
551 4 2 3 1 208 213 211 221
552 4 2 3 1 79 67 204 219
553 4 2 3 1 176 214 208 222
554 4 2 3 1 209 215 145 219
555 4 2 3 1 186 200 205 221
556 4 2 3 1 73 209 66 219
557 4 2 3 1 163 204 169 222
558 4 2 3 1 162 159 165 208
559 4 2 3 1 114 111 117 209
560 4 2 3 1 146 215 144 219
561 4 2 3 1 70 63 204 222
562 4 2 3 1 209 212 111 223
563 4 2 3 1 188 202 199 220
564 4 2 3 1 95 202 96 217
565 4 2 3 1 202 212 120 226
566 4 2 3 1 104 93 203 220
567 4 2 3 1 183 205 200 211
568 4 2 3 1 187 208 193 221
569 4 2 3 1 152 207 215 223
570 4 2 3 1 63 79 204 213
571 4 2 3 1 84 130 133 216
572 4 2 3 1 80 62 208 213
573 4 2 3 1 162 176 208 222
574 4 2 3 1 127 207 212 217
575 4 2 3 1 66 209 143 219
576 4 2 3 1 181 182 188 202
577 4 2 3 1 192 199 211 220
578 4 2 3 1 203 214 211 227
579 4 2 3 1 117 209 111 223
580 4 2 3 1 144 204 141 219
581 4 2 3 1 151 215 206 225
582 4 2 3 1 116 207 127 217
583 4 2 3 1 121 115 205 224
584 4 2 3 1 176 159 208 214
585 4 2 3 1 183 189 205 226
586 4 2 3 1 69 80 208 221
587 4 2 3 1 183 186 200 205
588 4 2 3 1 79 67 63 204
589 4 2 3 1 138 225 206 228
590 4 2 3 1 181 182 202 226
591 4 2 3 1 134 152 207 215
592 4 2 3 1 86 93 85 203
593 4 2 3 1 211 214 208 227
594 4 2 3 1 157 158 164 203
595 4 2 3 1 61 208 62 222
596 4 2 3 1 79 213 73 219
597 4 2 3 1 109 110 207 223
598 4 2 3 1 164 82 85 218
599 4 2 3 1 127 207 110 212
600 4 2 3 1 145 209 137 223
601 4 2 3 1 80 72 213 221
602 4 2 3 1 138 166 225 228
603 4 2 3 1 159 165 208 227
604 4 2 3 1 182 199 188 202
605 4 2 3 1 109 110 116 207
606 4 2 3 1 152 142 207 223
607 4 2 3 1 189 119 205 226
608 4 2 3 1 142 133 134 207
609 4 2 3 1 69 62 61 208
610 4 2 3 1 86 104 93 203
611 4 2 3 1 159 162 176 208
612 4 2 3 1 201 205 211 213
613 4 2 3 1 128 111 114 224
614 4 2 3 1 194 192 211 227
615 4 2 3 1 158 203 157 227
616 4 2 3 1 209 215 212 223
617 4 2 3 1 69 80 62 208
618 4 2 3 1 116 110 127 207
619 4 2 3 1 118 202 120 226
620 4 2 3 1 165 191 208 227
621 4 2 3 1 91 103 87 216
622 4 2 3 1 203 201 211 214
623 4 2 3 1 201 211 208 213
624 4 2 3 1 120 212 202 217
625 4 2 3 1 152 142 134 207
626 4 2 3 1 140 135 216 228
627 4 2 3 1 151 135 206 215
628 4 2 3 1 158 214 175 218
629 4 2 3 1 208 211 201 214
630 4 2 3 1 94 155 161 218
631 4 2 3 1 158 203 214 218
632 4 2 3 1 190 203 192 227
633 4 2 3 1 206 225 166 228
634 4 2 3 1 168 170 206 214
635 4 2 3 1 201 212 209 215
636 4 2 3 1 98 88 97 217
637 4 2 3 1 82 164 155 218
638 4 2 3 1 200 193 211 221
639 4 2 3 1 145 215 209 223
640 4 2 3 1 204 214 206 225
641 4 2 3 1 151 144 136 215
642 4 2 3 1 91 216 87 228
643 4 2 3 1 176 169 214 222
644 4 2 3 1 163 167 169 204
645 4 2 3 1 212 215 207 223
646 4 2 3 1 140 130 84 216
647 4 2 3 1 111 209 114 224
648 4 2 3 1 119 121 115 205
649 4 2 3 1 206 216 135 228
650 4 2 3 1 92 207 116 217
651 4 2 3 1 169 170 214 225
652 4 2 3 1 97 90 92 207
653 4 2 3 1 114 209 68 224
654 4 2 3 1 191 193 187 208
655 4 2 3 1 73 68 66 209
656 4 2 3 1 94 82 155 218
657 4 2 3 1 132 137 117 223
658 4 2 3 1 151 206 138 225
659 4 2 3 1 163 156 70 222
660 4 2 3 1 82 86 85 218
661 4 2 3 1 213 214 204 222
662 4 2 3 1 74 72 71 224
663 4 2 3 1 168 175 160 218
664 4 2 3 1 73 68 209 224
665 4 2 3 1 87 103 210 216
666 4 2 3 1 143 137 145 209
667 4 2 3 1 201 204 213 214
668 4 2 3 1 201 211 205 212
669 4 2 3 1 86 210 203 218
670 4 2 3 1 201 210 207 215
671 4 2 3 1 57 108 114 224
672 4 2 3 1 94 218 161 228
673 4 2 3 1 110 111 212 223
674 4 2 3 1 103 97 210 216
675 4 2 3 1 205 212 211 226
676 4 2 3 1 192 199 184 211
677 4 2 3 1 110 212 207 223
678 4 2 3 1 193 194 211 227
679 4 2 3 1 58 162 61 222
680 4 2 3 1 80 72 64 213
681 4 2 3 1 206 215 204 225
682 4 2 3 1 128 112 111 212
683 4 2 3 1 65 59 186 221
684 4 2 3 1 112 212 128 224
685 4 2 3 1 207 215 210 216
686 4 2 3 1 134 215 207 216
687 4 2 3 1 140 84 91 216
688 4 2 3 1 138 206 135 228
689 4 2 3 1 64 74 73 213
690 4 2 3 1 169 170 160 214
691 4 2 3 1 112 121 212 224
692 4 2 3 1 170 206 214 225
693 4 2 3 1 112 128 121 224
694 4 2 3 1 135 138 151 206
695 4 2 3 1 206 215 135 216
696 4 2 3 1 193 194 184 211
697 4 2 3 1 153 131 138 225
698 4 2 3 1 211 212 202 226
699 4 2 3 1 182 211 202 226
700 4 2 3 1 97 207 92 217
701 4 2 3 1 91 140 216 228
702 4 2 3 1 70 156 58 222
703 4 2 3 1 117 106 132 223
704 4 2 3 1 63 213 204 222
705 4 2 3 1 58 156 162 222
706 4 2 3 1 83 89 188 220
707 4 2 3 1 154 177 165 227
708 4 2 3 1 208 214 213 222
709 4 2 3 1 166 168 206 228
710 4 2 3 1 105 189 178 226
711 4 2 3 1 181 105 178 226
712 4 2 3 1 62 208 213 222
713 4 2 3 1 168 160 214 218
714 4 2 3 1 121 122 212 226
715 4 2 3 1 153 138 166 225
716 4 2 3 1 109 142 106 223
717 4 2 3 1 179 185 93 220
718 4 2 3 1 120 127 212 217
719 4 2 3 1 201 207 212 215
720 4 2 3 1 205 211 183 226
721 4 2 3 1 175 214 160 218
722 4 2 3 1 145 143 209 219
723 4 2 3 1 169 204 167 225
724 4 2 3 1 201 210 206 214
725 4 2 3 1 31 130 84 140
726 4 2 3 1 158 214 203 227
727 4 2 3 1 201 202 211 212
728 4 2 3 1 187 180 69 221
729 4 2 3 1 146 145 215 219
730 4 2 3 1 154 157 177 227
731 4 2 3 1 79 64 73 213
732 4 2 3 1 119 121 205 226
733 4 2 3 1 210 215 206 216
734 4 2 3 1 122 120 212 226
735 4 2 3 1 159 208 214 227
736 4 2 3 1 176 169 160 214
737 4 2 3 1 201 206 210 215
738 4 2 3 1 200 193 184 211
739 4 2 3 1 193 208 191 227
740 4 2 3 1 106 142 132 223
741 4 2 3 1 59 180 186 221
742 4 2 3 1 145 152 215 223
743 4 2 3 1 168 160 170 214
744 4 2 3 1 201 203 210 214
745 4 2 3 1 81 116 107 217
746 4 2 3 1 201 213 208 214
747 4 2 3 1 138 135 140 228
748 4 2 3 1 72 74 64 213
749 4 2 3 1 194 192 184 211
750 4 2 3 1 121 122 112 212
751 4 2 3 1 19 61 58 162
752 4 2 3 1 206 214 210 218
753 4 2 3 1 67 60 129 219
754 4 2 3 1 181 118 105 226
755 4 2 3 1 146 136 144 215
756 4 2 3 1 168 218 206 228
757 4 2 3 1 135 215 134 216
758 4 2 3 1 84 90 133 30
759 4 2 3 1 94 87 218 228
760 4 2 3 1 162 58 19 156
761 4 2 3 1 179 83 188 220
762 4 2 3 1 130 84 133 30
763 4 2 3 1 90 97 84 216
764 4 2 3 1 93 83 179 220
765 4 2 3 1 140 84 31 91
766 4 2 3 1 190 177 157 227
767 4 2 3 1 88 103 97 210
768 4 2 3 1 133 130 134 216
769 4 2 3 1 67 129 141 219
770 4 2 3 1 110 111 112 212
771 4 2 3 1 69 180 59 221
772 4 2 3 1 109 47 106 142
773 4 2 3 1 82 35 164 85
774 4 2 3 1 210 214 203 218
775 4 2 3 1 182 183 211 226
776 4 2 3 1 168 170 166 206
777 4 2 3 1 142 47 106 132
778 4 2 3 1 164 35 82 155
779 4 2 3 1 87 210 86 218
780 4 2 3 1 159 214 158 227
781 4 2 3 1 62 213 63 222
782 4 2 3 1 151 136 135 215
783 4 2 3 1 136 146 145 215
784 4 2 3 1 120 113 107 217
785 4 2 3 1 94 87 82 218
786 4 2 3 1 170 166 206 225
787 4 2 3 1 154 54 165 177
788 4 2 3 1 189 42 105 178
789 4 2 3 1 57 108 11 114
790 4 2 3 1 86 88 104 210
791 4 2 3 1 168 161 218 228
792 4 2 3 1 18 163 156 70
793 4 2 3 1 156 58 18 70
794 4 2 3 1 23 186 65 59
795 4 2 3 1 144 141 146 219
796 4 2 3 1 26 107 113 81
797 4 2 3 1 34 94 82 155
798 4 2 3 1 46 117 106 132
799 4 2 3 1 155 34 94 161
800 4 2 3 1 132 46 117 137
801 4 2 3 1 57 114 68 224
802 4 2 3 1 83 96 89 220
803 4 2 3 1 115 108 10 57
804 4 2 3 1 95 96 98 217
805 4 2 3 1 65 72 59 221
806 4 2 3 1 23 186 59 180
807 4 2 3 1 136 145 152 215
808 4 2 3 1 179 192 185 220
809 4 2 3 1 22 187 180 69
810 4 2 3 1 154 55 177 157
811 4 2 3 1 105 43 181 178
812 4 2 3 1 60 73 66 219
813 4 2 3 1 151 138 131 225
814 4 2 3 1 27 107 81 116
815 4 2 3 1 134 135 136 215
816 4 2 3 1 60 66 143 219
817 4 2 3 1 39 83 89 188
818 4 2 3 1 185 179 93 38
819 4 2 3 1 120 127 112 212
820 4 2 3 1 180 59 22 69
821 4 2 3 1 165 177 191 227
822 4 2 3 1 105 119 189 226
823 4 2 3 1 83 39 179 188
824 4 2 3 1 38 179 93 83
825 4 2 3 1 184 183 200 211
826 4 2 3 1 63 64 79 213
827 4 2 3 1 73 74 68 224
828 4 2 3 1 184 199 182 211
829 4 2 3 1 176 160 159 214
830 4 2 3 1 158 160 175 214
831 4 2 3 1 187 193 180 221
832 4 2 3 1 80 64 62 213
833 4 2 3 1 122 118 120 226
834 4 2 3 1 95 26 113 81
835 4 2 3 1 71 115 10 57
836 4 2 3 1 156 163 169 222
837 4 2 3 1 58 61 62 222
838 4 2 3 1 109 106 110 223
839 4 2 3 1 159 154 165 227
840 4 2 3 1 92 116 81 217
841 4 2 3 1 60 143 129 219
842 4 2 3 1 183 184 182 211
843 4 2 3 1 190 177 55 157
844 4 2 3 1 181 118 43 105
845 4 2 3 1 181 178 182 226
846 4 2 3 1 134 136 152 215
847 4 2 3 1 132 145 137 223
848 4 2 3 1 127 110 112 212
849 4 2 3 1 63 62 64 213
850 4 2 3 1 183 178 189 226
851 4 2 3 1 158 159 160 214
852 4 2 3 1 194 190 192 227
853 4 2 3 1 117 111 106 223
854 4 2 3 1 70 58 63 222
855 4 2 3 1 153 51 138 131
856 4 2 3 1 129 67 15 60
857 4 2 3 1 158 157 154 227
858 4 2 3 1 82 87 86 218
859 4 2 3 1 140 135 130 216
860 4 2 3 1 155 168 161 218
861 4 2 3 1 51 138 166 153
862 4 2 3 1 129 15 67 141
863 4 2 3 1 121 108 115 224
864 4 2 3 1 88 86 87 210
865 4 2 3 1 79 60 67 219
866 4 2 3 1 112 122 120 212
867 4 2 3 1 175 155 164 218
868 4 2 3 1 87 103 88 210
869 4 2 3 1 114 11 57 68
870 4 2 3 1 54 191 165 177
871 4 2 3 1 189 42 119 105
872 4 2 3 1 139 131 167 225
873 4 2 3 1 186 180 200 221
874 4 2 3 1 139 131 50 167
875 4 2 3 1 66 14 60 143
876 4 2 3 1 174 138 147 228
877 4 2 3 1 107 116 127 217
878 4 2 3 1 153 50 131 167
879 4 2 3 1 14 129 60 143
880 4 2 3 1 131 153 167 225
881 4 2 3 1 162 156 176 222
882 4 2 3 1 81 92 27 116
883 4 2 3 1 68 74 57 224
884 4 2 3 1 91 84 103 216
885 4 2 3 1 139 144 131 225
886 4 2 3 1 179 188 199 220
887 4 2 3 1 166 138 174 228
888 4 2 3 1 166 161 168 228
889 4 2 3 1 57 74 71 224
890 4 2 3 1 104 83 93 220
891 4 2 3 1 108 128 114 224
892 4 2 3 1 69 59 80 221
893 4 2 3 1 152 132 142 223
894 4 2 3 1 91 87 94 228
895 4 2 3 1 98 97 92 217
896 4 2 3 1 101 147 140 228
897 4 2 3 1 101 140 91 228
898 4 2 3 1 182 178 183 226
899 4 2 3 1 107 127 120 217
900 4 2 3 1 130 135 134 216
901 4 2 3 1 174 52 147 138
902 4 2 3 1 16 150 77 67
903 4 2 3 1 145 146 143 219
904 4 2 3 1 159 158 154 227
905 4 2 3 1 84 97 103 216
906 4 2 3 1 79 73 60 219
907 4 2 3 1 133 149 29 90
908 4 2 3 1 193 191 194 227
909 4 2 3 1 119 122 121 226
910 4 2 3 1 52 174 166 138
911 4 2 3 1 16 150 67 141
912 4 2 3 1 94 161 33 174
913 4 2 3 1 117 137 45 148
914 4 2 3 1 163 17 173 70
915 4 2 3 1 62 63 58 222
916 4 2 3 1 110 106 111 223
917 4 2 3 1 149 102 29 90
918 4 2 3 1 161 174 94 228
919 4 2 3 1 104 96 83 220
920 4 2 3 1 192 179 199 220
921 4 2 3 1 170 153 166 225
922 4 2 3 1 148 66 13 78
923 4 2 3 1 139 173 49 150
924 4 2 3 1 59 72 80 221
925 4 2 3 1 180 193 200 221
926 4 2 3 1 101 94 33 174
927 4 2 3 1 77 173 17 70
928 4 2 3 1 123 117 45 148
929 4 2 3 1 156 169 176 222
930 4 2 3 1 186 195 24 65
931 4 2 3 1 20 61 162 171
932 4 2 3 1 94 174 101 228
933 4 2 3 1 151 131 144 225
934 4 2 3 1 41 125 195 189
935 4 2 3 1 171 53 197 165
936 4 2 3 1 61 20 75 171
937 4 2 3 1 195 76 24 65
938 4 2 3 1 9 76 115 71
939 4 2 3 1 113 100 25 95
940 4 2 3 1 56 190 157 198
941 4 2 3 1 181 126 44 118
942 4 2 3 1 9 76 125 115
943 4 2 3 1 196 126 44 181
944 4 2 3 1 157 172 56 198
945 4 2 3 1 126 100 25 113
946 4 2 3 1 21 187 69 75
947 4 2 3 1 40 188 89 196
948 4 2 3 1 93 37 99 185
949 4 2 3 1 109 142 149 48
950 4 2 3 1 164 36 172 85
951 4 2 3 1 21 187 75 197
952 4 2 3 1 109 149 124 48
953 4 2 3 1 36 99 172 85
954 4 2 3 1 100 40 89 196
955 4 2 3 1 198 99 37 185
956 4 2 3 1 145 132 152 223
957 4 2 3 1 81 98 92 217
958 4 2 3 1 101 32 140 147
959 4 2 3 1 32 140 91 101
960 4 2 3 1 147 138 140 228
961 4 2 3 1 129 143 146 219
962 4 2 3 1 170 169 167 225
963 4 2 3 1 141 129 146 219
964 4 2 3 1 95 98 81 217
965 4 2 3 1 191 177 194 227
966 4 2 3 1 105 122 119 226
967 4 2 3 1 155 175 168 218
968 4 2 3 1 28 124 92 102
969 4 2 3 1 173 167 139 49
970 4 2 3 1 118 122 105 226
971 4 2 3 1 143 66 13 148
972 4 2 3 1 121 128 108 224
973 4 2 3 1 124 92 116 28
974 4 2 3 1 177 190 194 227
975 4 2 3 1 29 133 90 30
976 4 2 3 1 138 166 52 51
977 4 2 3 1 67 15 16 141
978 4 2 3 1 189 41 125 119
979 4 2 3 1 165 53 197 191
980 4 2 3 1 186 24 23 65
981 4 2 3 1 19 20 61 162
982 4 2 3 1 147 101 174 228
983 4 2 3 1 115 10 9 71
984 4 2 3 1 26 113 25 95
985 4 2 3 1 44 181 118 43
986 4 2 3 1 55 190 157 56
987 4 2 3 1 187 22 21 69
988 4 2 3 1 93 37 185 38
989 4 2 3 1 188 89 39 40
990 4 2 3 1 142 109 47 48
991 4 2 3 1 36 164 35 85
992 4 2 3 1 170 167 153 225
993 4 2 3 1 106 47 46 132
994 4 2 3 1 34 82 35 155
995 4 2 3 1 30 130 84 31
996 4 2 3 1 58 18 19 156
997 4 2 3 1 18 17 163 70
998 4 2 3 1 161 34 94 33
999 4 2 3 1 137 46 117 45
1000 4 2 3 1 31 140 91 32
1001 4 2 3 1 179 38 39 83
1002 4 2 3 1 59 22 23 180
1003 4 2 3 1 195 1 76 125
1004 4 2 3 1 5 100 126 196
1005 4 2 3 1 147 101 7 174
1006 4 2 3 1 197 75 4 171
1007 4 2 3 1 198 172 8 99
1008 4 2 3 1 2 123 148 78
1009 4 2 3 1 6 149 124 102
1010 4 2 3 1 150 173 3 77
1011 4 2 3 1 166 174 161 228
1012 4 2 3 1 50 139 167 49
1013 4 2 3 1 66 13 14 143
1014 4 2 3 1 114 12 11 68
1015 4 2 3 1 92 27 116 28
1016 4 2 3 1 94 101 91 228
1017 4 2 3 1 55 54 154 177
1018 4 2 3 1 105 42 43 178
1019 4 2 3 1 41 189 42 119
1020 4 2 3 1 191 165 53 54
1021 4 2 3 1 101 33 7 174
1022 4 2 3 1 123 45 2 148
1023 4 2 3 1 173 17 3 77
1024 4 2 3 1 102 6 149 29
1025 4 2 3 1 50 51 153 131
1026 4 2 3 1 129 15 14 60
1027 4 2 3 1 148 13 2 78
1028 4 2 3 1 125 195 1 41
1029 4 2 3 1 53 197 4 171
1030 4 2 3 1 49 173 3 150
1031 4 2 3 1 108 11 10 57
1032 4 2 3 1 81 26 107 27
1033 4 2 3 1 101 7 32 147
1034 4 2 3 1 76 24 1 195
1035 4 2 3 1 20 4 75 171
1036 4 2 3 1 123 2 12 78
1037 4 2 3 1 126 44 5 196
1038 4 2 3 1 52 147 7 174
1039 4 2 3 1 56 172 8 198
1040 4 2 3 1 100 25 5 126
1041 4 2 3 1 1 9 76 125
1042 4 2 3 1 3 16 150 77
1043 4 2 3 1 100 5 40 196
1044 4 2 3 1 99 172 8 36
1045 4 2 3 1 124 149 6 48
1046 4 2 3 1 8 198 99 37
1047 4 2 3 1 75 4 21 197
1048 4 2 3 1 28 6 124 102
1049 4 2 3 1 218 158 164 175
1050 4 2 3 1 218 164 158 203
1051 4 2 3 1 224 72 213 74
1052 4 2 3 1 224 213 72 205
1053 4 2 3 1 78 114 12 123
1054 4 2 3 1 78 12 114 68
1055 4 2 3 1 115 57 224 108
1056 4 2 3 1 224 57 115 71
1057 4 2 3 1 217 88 96 98
1058 4 2 3 1 217 96 88 210
1059 4 2 3 1 113 81 217 95
1060 4 2 3 1 217 81 113 107
1061 4 2 3 1 70 173 204 77
1062 4 2 3 1 70 204 173 163
1063 4 2 3 1 117 148 209 137
1064 4 2 3 1 209 148 117 123
$EndElements
