$MeshFormat
2.2 0 8
$EndMeshFormat
$PhysicalNames
2
1 1 "Fronteira_PEC"
2 2 "Dominio_Vacuo"
$EndPhysicalNames
$Nodes
25
1 -3.141592653589793 -3.141592653589793 0
2 3.141592653589793 -3.141592653589793 0
3 3.141592653589793 3.141592653589793 0
4 -3.141592653589793 3.141592653589793 0
5 -1.570796326798627 -3.141592653589793 0
6 -7.898126597183364e-12 -3.141592653589793 0
7 1.570796326790903 -3.141592653589793 0
8 3.141592653589793 -1.570796326798627 0
9 3.141592653589793 -7.898126597183364e-12 0
10 3.141592653589793 1.570796326790903 0
11 1.570796326798627 3.141592653589793 0
12 7.898126597183364e-12 3.141592653589793 0
13 -1.570796326790903 3.141592653589793 0
14 -3.141592653589793 1.570796326798627 0
15 -3.141592653589793 7.898126597183364e-12 0
16 -3.141592653589793 -1.570796326790903 0
17 -1.570796326796696 -1.570796326792834 0
18 -1.570796326794765 3.949063298591682e-12 0
19 -1.570796326792834 1.570796326796696 0
20 -3.949063298591352e-12 -1.570796326794765 0
21 0 0 0
22 3.949063298591352e-12 1.570796326794766 0
23 1.570796326792834 -1.570796326796696 0
24 1.570796326794765 -3.949007787440451e-12 0
25 1.570796326796696 1.570796326792834 0
$EndNodes
$Elements
48
1 1 2 1 1 1 5
2 1 2 1 1 5 6
3 1 2 1 1 6 7
4 1 2 1 1 7 2
5 1 2 1 2 2 8
6 1 2 1 2 8 9
7 1 2 1 2 9 10
8 1 2 1 2 10 3
9 1 2 1 3 3 11
10 1 2 1 3 11 12
11 1 2 1 3 12 13
12 1 2 1 3 13 4
13 1 2 1 4 4 14
14 1 2 1 4 14 15
15 1 2 1 4 15 16
16 1 2 1 4 16 1
17 2 2 2 1 1 5 16
18 2 2 2 1 16 5 17
19 2 2 2 1 16 17 15
20 2 2 2 1 15 17 18
21 2 2 2 1 15 18 14
22 2 2 2 1 14 18 19
23 2 2 2 1 14 19 4
24 2 2 2 1 4 19 13
25 2 2 2 1 5 6 17
26 2 2 2 1 17 6 20
27 2 2 2 1 17 20 18
28 2 2 2 1 18 20 21
29 2 2 2 1 18 21 19
30 2 2 2 1 19 21 22
31 2 2 2 1 19 22 13
32 2 2 2 1 13 22 12
33 2 2 2 1 6 7 20
34 2 2 2 1 20 7 23
35 2 2 2 1 20 23 21
36 2 2 2 1 21 23 24
37 2 2 2 1 21 24 22
38 2 2 2 1 22 24 25
39 2 2 2 1 22 25 12
40 2 2 2 1 12 25 11
41 2 2 2 1 7 2 23
42 2 2 2 1 23 2 8
43 2 2 2 1 23 8 24
44 2 2 2 1 24 8 9
45 2 2 2 1 24 9 25
46 2 2 2 1 25 9 10
47 2 2 2 1 25 10 11
48 2 2 2 1 11 10 3
$EndElements
