$MeshFormat
2.2 0 8
$EndMeshFormat
$PhysicalNames
2
1 1 "Fronteira_PEC"
2 2 "Dominio_Vacuo"
$EndPhysicalNames
$Nodes
9
1 -3.141592653589793 -3.141592653589793 0
2 3.141592653589793 -3.141592653589793 0
3 3.141592653589793 3.141592653589793 0
4 -3.141592653589793 3.141592653589793 0
5 -7.898126597183364e-12 -3.141592653589793 0
6 3.141592653589793 -7.898126597183364e-12 0
7 7.898126597183364e-12 3.141592653589793 0
8 -3.141592653589793 7.898126597183364e-12 0
9 0 0 0
$EndNodes
$Elements
16
1 1 2 1 1 1 5
2 1 2 1 1 5 2
3 1 2 1 2 2 6
4 1 2 1 2 6 3
5 1 2 1 3 3 7
6 1 2 1 3 7 4
7 1 2 1 4 4 8
8 1 2 1 4 8 1
9 2 2 2 1 1 5 8
10 2 2 2 1 8 5 9
11 2 2 2 1 8 9 4
12 2 2 2 1 4 9 7
13 2 2 2 1 5 2 9
14 2 2 2 1 9 2 6
15 2 2 2 1 9 6 7
16 2 2 2 1 7 6 3
$EndElements
