$MeshFormat
2.2 0 8
$EndMeshFormat
$PhysicalNames
2
1 1 "Fronteira_PEC"
2 2 "Dominio_Vacuo"
$EndPhysicalNames
$Nodes
121
1 -3.141592653589793 -3.141592653589793 0
2 3.141592653589793 -3.141592653589793 0
3 3.141592653589793 3.141592653589793 0
4 -3.141592653589793 3.141592653589793 0
5 -2.513274122873067 -3.141592653589793 0
6 -1.884955592156731 -3.141592653589793 0
7 -1.256637061440524 -3.141592653589793 0
8 -0.6283185307241896 -3.141592653589793 0
9 -7.898126597183364e-12 -3.141592653589793 0
10 0.6283185307116224 -3.141592653589793 0
11 1.256637061431264 -3.141592653589793 0
12 1.884955592150543 -3.141592653589793 0
13 2.513274122870169 -3.141592653589793 0
14 3.141592653589793 -2.513274122873067 0
15 3.141592653589793 -1.884955592156731 0
16 3.141592653589793 -1.256637061440524 0
17 3.141592653589793 -0.6283185307241896 0
18 3.141592653589793 -7.898126597183364e-12 0
19 3.141592653589793 0.6283185307116224 0
20 3.141592653589793 1.256637061431264 0
21 3.141592653589793 1.884955592150543 0
22 3.141592653589793 2.513274122870169 0
23 2.513274122873067 3.141592653589793 0
24 1.884955592156731 3.141592653589793 0
25 1.256637061440524 3.141592653589793 0
26 0.6283185307241896 3.141592653589793 0
27 7.898126597183364e-12 3.141592653589793 0
28 -0.6283185307116224 3.141592653589793 0
29 -1.256637061431264 3.141592653589793 0
30 -1.884955592150543 3.141592653589793 0
31 -2.513274122870169 3.141592653589793 0
32 -3.141592653589793 2.513274122873067 0
33 -3.141592653589793 1.884955592156731 0
34 -3.141592653589793 1.256637061440524 0
35 -3.141592653589793 0.6283185307241896 0
36 -3.141592653589793 7.898126597183364e-12 0
37 -3.141592653589793 -0.6283185307116224 0
38 -3.141592653589793 -1.256637061431264 0
39 -3.141592653589793 -1.884955592150543 0
40 -3.141592653589793 -2.513274122870169 0
41 -2.513274122872778 -2.51327412287046 0
42 -2.513274122872487 -1.884955592151162 0
43 -2.513274122872198 -1.25663706143219 0
44 -2.513274122871906 -0.6283185307128791 0
45 -2.513274122871618 6.318501277746691e-12 0
46 -2.513274122871328 0.6283185307229326 0
47 -2.513274122871039 1.256637061439599 0
48 -2.513274122870749 1.884955592156112 0
49 -2.51327412287046 2.513274122872777 0
50 -1.884955592156112 -2.513274122870749 0
51 -1.884955592155493 -1.884955592151781 0
52 -1.884955592154875 -1.256637061433116 0
53 -1.884955592154256 -0.6283185307141361 0
54 -1.884955592153637 4.738875958310018e-12 0
55 -1.884955592153018 0.6283185307216761 0
56 -1.8849555921524 1.256637061438672 0
57 -1.884955592151781 1.884955592155493 0
58 -1.884955592151163 2.513274122872488 0
59 -1.256637061439599 -2.513274122871039 0
60 -1.256637061438672 -1.8849555921524 0
61 -1.256637061437746 -1.256637061434042 0
62 -1.256637061436821 -0.6283185307153928 0
63 -1.256637061435894 3.159250638873345e-12 0
64 -1.256637061434968 0.6283185307204198 0
65 -1.256637061434042 1.256637061437747 0
66 -1.256637061433116 1.884955592154875 0
67 -1.25663706143219 2.513274122872198 0
68 -0.628318530722933 -2.513274122871328 0
69 -0.6283185307216765 -1.884955592153018 0
70 -0.6283185307204197 -1.256637061434968 0
71 -0.6283185307191628 -0.6283185307166496 0
72 -0.628318530717906 1.57951429713421e-12 0
73 -0.6283185307166493 0.6283185307191627 0
74 -0.6283185307153927 1.256637061436821 0
75 -0.6283185307141359 1.884955592154256 0
76 -0.6283185307128789 2.513274122871908 0
77 -6.318501277746146e-12 -2.513274122871618 0
78 -4.738875958309417e-12 -1.884955592153637 0
79 -3.159250638873289e-12 -1.256637061435894 0
80 -1.57962531943654e-12 -0.6283185307179059 0
81 0 0 0
82 1.579625319436541e-12 0.628318530717906 0
83 3.159250638873287e-12 1.256637061435894 0
84 4.738875958309417e-12 1.884955592153637 0
85 6.318501277746146e-12 2.513274122871618 0
86 0.6283185307128788 -2.513274122871907 0
87 0.6283185307141358 -1.884955592154256 0
88 0.6283185307153929 -1.256637061436821 0
89 0.6283185307166491 -0.6283185307191627 0
90 0.628318530717906 -1.579625319436673e-12 0
91 0.6283185307191629 0.6283185307166493 0
92 0.6283185307204193 1.256637061434969 0
93 0.6283185307216763 1.884955592153018 0
94 0.6283185307229326 2.513274122871328 0
95 1.25663706143219 -2.513274122872198 0
96 1.256637061433117 -1.884955592154875 0
97 1.256637061434042 -1.256637061437746 0
98 1.256637061434968 -0.6283185307204193 0
99 1.256637061435894 -3.159306150024577e-12 0
100 1.256637061436821 0.6283185307153928 0
101 1.256637061437747 1.256637061434042 0
102 1.256637061438673 1.8849555921524 0
103 1.256637061439599 2.513274122871039 0
104 1.884955592151163 -2.513274122872487 0
105 1.884955592151781 -1.884955592155493 0
106 1.884955592152399 -1.256637061438672 0
107 1.884955592153018 -0.6283185307216762 0
108 1.884955592153637 -4.738875958310018e-12 0
109 1.884955592154256 0.6283185307141359 0
110 1.884955592154875 1.256637061433116 0
111 1.884955592155493 1.884955592151781 0
112 1.884955592156112 2.513274122870749 0
113 2.51327412287046 -2.513274122872776 0
114 2.513274122870749 -1.884955592156112 0
115 2.513274122871038 -1.256637061439599 0
116 2.513274122871328 -0.6283185307229328 0
117 2.513274122871618 -6.318529033322307e-12 0
118 2.513274122871907 0.6283185307128789 0
119 2.513274122872198 1.25663706143219 0
120 2.513274122872488 1.884955592151162 0
121 2.513274122872778 2.51327412287046 0
$EndNodes
$Elements
240
1 1 2 1 1 1 5
2 1 2 1 1 5 6
3 1 2 1 1 6 7
4 1 2 1 1 7 8
5 1 2 1 1 8 9
6 1 2 1 1 9 10
7 1 2 1 1 10 11
8 1 2 1 1 11 12
9 1 2 1 1 12 13
10 1 2 1 1 13 2
11 1 2 1 2 2 14
12 1 2 1 2 14 15
13 1 2 1 2 15 16
14 1 2 1 2 16 17
15 1 2 1 2 17 18
16 1 2 1 2 18 19
17 1 2 1 2 19 20
18 1 2 1 2 20 21
19 1 2 1 2 21 22
20 1 2 1 2 22 3
21 1 2 1 3 3 23
22 1 2 1 3 23 24
23 1 2 1 3 24 25
24 1 2 1 3 25 26
25 1 2 1 3 26 27
26 1 2 1 3 27 28
27 1 2 1 3 28 29
28 1 2 1 3 29 30
29 1 2 1 3 30 31
30 1 2 1 3 31 4
31 1 2 1 4 4 32
32 1 2 1 4 32 33
33 1 2 1 4 33 34
34 1 2 1 4 34 35
35 1 2 1 4 35 36
36 1 2 1 4 36 37
37 1 2 1 4 37 38
38 1 2 1 4 38 39
39 1 2 1 4 39 40
40 1 2 1 4 40 1
41 2 2 2 1 1 5 40
42 2 2 2 1 40 5 41
43 2 2 2 1 40 41 39
44 2 2 2 1 39 41 42
45 2 2 2 1 39 42 38
46 2 2 2 1 38 42 43
47 2 2 2 1 38 43 37
48 2 2 2 1 37 43 44
49 2 2 2 1 37 44 36
50 2 2 2 1 36 44 45
51 2 2 2 1 36 45 35
52 2 2 2 1 35 45 46
53 2 2 2 1 35 46 34
54 2 2 2 1 34 46 47
55 2 2 2 1 34 47 33
56 2 2 2 1 33 47 48
57 2 2 2 1 33 48 32
58 2 2 2 1 32 48 49
59 2 2 2 1 32 49 4
60 2 2 2 1 4 49 31
61 2 2 2 1 5 6 41
62 2 2 2 1 41 6 50
63 2 2 2 1 41 50 42
64 2 2 2 1 42 50 51
65 2 2 2 1 42 51 43
66 2 2 2 1 43 51 52
67 2 2 2 1 43 52 44
68 2 2 2 1 44 52 53
69 2 2 2 1 44 53 45
70 2 2 2 1 45 53 54
71 2 2 2 1 45 54 46
72 2 2 2 1 46 54 55
73 2 2 2 1 46 55 47
74 2 2 2 1 47 55 56
75 2 2 2 1 47 56 48
76 2 2 2 1 48 56 57
77 2 2 2 1 48 57 49
78 2 2 2 1 49 57 58
79 2 2 2 1 49 58 31
80 2 2 2 1 31 58 30
81 2 2 2 1 6 7 50
82 2 2 2 1 50 7 59
83 2 2 2 1 50 59 51
84 2 2 2 1 51 59 60
85 2 2 2 1 51 60 52
86 2 2 2 1 52 60 61
87 2 2 2 1 52 61 53
88 2 2 2 1 53 61 62
89 2 2 2 1 53 62 54
90 2 2 2 1 54 62 63
91 2 2 2 1 54 63 55
92 2 2 2 1 55 63 64
93 2 2 2 1 55 64 56
94 2 2 2 1 56 64 65
95 2 2 2 1 56 65 57
96 2 2 2 1 57 65 66
97 2 2 2 1 57 66 58
98 2 2 2 1 58 66 67
99 2 2 2 1 58 67 30
100 2 2 2 1 30 67 29
101 2 2 2 1 7 8 59
102 2 2 2 1 59 8 68
103 2 2 2 1 59 68 60
104 2 2 2 1 60 68 69
105 2 2 2 1 60 69 61
106 2 2 2 1 61 69 70
107 2 2 2 1 61 70 62
108 2 2 2 1 62 70 71
109 2 2 2 1 62 71 63
110 2 2 2 1 63 71 72
111 2 2 2 1 63 72 64
112 2 2 2 1 64 72 73
113 2 2 2 1 64 73 65
114 2 2 2 1 65 73 74
115 2 2 2 1 65 74 66
116 2 2 2 1 66 74 75
117 2 2 2 1 66 75 67
118 2 2 2 1 67 75 76
119 2 2 2 1 67 76 29
120 2 2 2 1 29 76 28
121 2 2 2 1 8 9 68
122 2 2 2 1 68 9 77
123 2 2 2 1 68 77 69
124 2 2 2 1 69 77 78
125 2 2 2 1 69 78 70
126 2 2 2 1 70 78 79
127 2 2 2 1 70 79 71
128 2 2 2 1 71 79 80
129 2 2 2 1 71 80 72
130 2 2 2 1 72 80 81
131 2 2 2 1 72 81 73
132 2 2 2 1 73 81 82
133 2 2 2 1 73 82 74
134 2 2 2 1 74 82 83
135 2 2 2 1 74 83 75
136 2 2 2 1 75 83 84
137 2 2 2 1 75 84 76
138 2 2 2 1 76 84 85
139 2 2 2 1 76 85 28
140 2 2 2 1 28 85 27
141 2 2 2 1 9 10 77
142 2 2 2 1 77 10 86
143 2 2 2 1 77 86 78
144 2 2 2 1 78 86 87
145 2 2 2 1 78 87 79
146 2 2 2 1 79 87 88
147 2 2 2 1 79 88 80
148 2 2 2 1 80 88 89
149 2 2 2 1 80 89 81
150 2 2 2 1 81 89 90
151 2 2 2 1 81 90 82
152 2 2 2 1 82 90 91
153 2 2 2 1 82 91 83
154 2 2 2 1 83 91 92
155 2 2 2 1 83 92 84
156 2 2 2 1 84 92 93
157 2 2 2 1 84 93 85
158 2 2 2 1 85 93 94
159 2 2 2 1 85 94 27
160 2 2 2 1 27 94 26
161 2 2 2 1 10 11 86
162 2 2 2 1 86 11 95
163 2 2 2 1 86 95 87
164 2 2 2 1 87 95 96
165 2 2 2 1 87 96 88
166 2 2 2 1 88 96 97
167 2 2 2 1 88 97 89
168 2 2 2 1 89 97 98
169 2 2 2 1 89 98 90
170 2 2 2 1 90 98 99
171 2 2 2 1 90 99 91
172 2 2 2 1 91 99 100
173 2 2 2 1 91 100 92
174 2 2 2 1 92 100 101
175 2 2 2 1 92 101 93
176 2 2 2 1 93 101 102
177 2 2 2 1 93 102 94
178 2 2 2 1 94 102 103
179 2 2 2 1 94 103 26
180 2 2 2 1 26 103 25
181 2 2 2 1 11 12 95
182 2 2 2 1 95 12 104
183 2 2 2 1 95 104 96
184 2 2 2 1 96 104 105
185 2 2 2 1 96 105 97
186 2 2 2 1 97 105 106
187 2 2 2 1 97 106 98
188 2 2 2 1 98 106 107
189 2 2 2 1 98 107 99
190 2 2 2 1 99 107 108
191 2 2 2 1 99 108 100
192 2 2 2 1 100 108 109
193 2 2 2 1 100 109 101
194 2 2 2 1 101 109 110
195 2 2 2 1 101 110 102
196 2 2 2 1 102 110 111
197 2 2 2 1 102 111 103
198 2 2 2 1 103 111 112
199 2 2 2 1 103 112 25
200 2 2 2 1 25 112 24
201 2 2 2 1 12 13 104
202 2 2 2 1 104 13 113
203 2 2 2 1 104 113 105
204 2 2 2 1 105 113 114
205 2 2 2 1 105 114 106
206 2 2 2 1 106 114 115
207 2 2 2 1 106 115 107
208 2 2 2 1 107 115 116
209 2 2 2 1 107 116 108
210 2 2 2 1 108 116 117
211 2 2 2 1 108 117 109
212 2 2 2 1 109 117 118
213 2 2 2 1 109 118 110
214 2 2 2 1 110 118 119
215 2 2 2 1 110 119 111
216 2 2 2 1 111 119 120
217 2 2 2 1 111 120 112
218 2 2 2 1 112 120 121
219 2 2 2 1 112 121 24
220 2 2 2 1 24 121 23
221 2 2 2 1 13 2 113
222 2 2 2 1 113 2 14
223 2 2 2 1 113 14 114
224 2 2 2 1 114 14 15
225 2 2 2 1 114 15 115
226 2 2 2 1 115 15 16
227 2 2 2 1 115 16 116
228 2 2 2 1 116 16 17
229 2 2 2 1 116 17 117
230 2 2 2 1 117 17 18
231 2 2 2 1 117 18 118
232 2 2 2 1 118 18 19
233 2 2 2 1 118 19 119
234 2 2 2 1 119 19 20
235 2 2 2 1 119 20 120
236 2 2 2 1 120 20 21
237 2 2 2 1 120 21 121
238 2 2 2 1 121 21 22
239 2 2 2 1 121 22 23
240 2 2 2 1 23 22 3
$EndElements
