$MeshFormat
2.2 0 8
$EndMeshFormat
$PhysicalNames
2
1 1 "Fronteira_PEC"
2 2 "Dominio_Vacuo"
$EndPhysicalNames
$Nodes
441
1 -3.141592653589793 -3.141592653589793 0
2 3.141592653589793 -3.141592653589793 0
3 3.141592653589793 3.141592653589793 0
4 -3.141592653589793 3.141592653589793 0
5 -2.827433388231352 -3.141592653589793 0
6 -2.513274122873067 -3.141592653589793 0
7 -2.199114857514921 -3.141592653589793 0
8 -1.884955592156731 -3.141592653589793 0
9 -1.570796326798627 -3.141592653589793 0
10 -1.256637061440524 -3.141592653589793 0
11 -0.9424777960823354 -3.141592653589793 0
12 -0.6283185307241896 -3.141592653589793 0
13 -0.3141592653660785 -3.141592653589793 0
14 -7.898126597183364e-12 -3.141592653589793 0
15 0.3141592653518268 -3.141592653589793 0
16 0.6283185307116224 -3.141592653589793 0
17 0.9424777960712794 -3.141592653589793 0
18 1.256637061431264 -3.141592653589793 0
19 1.570796326790903 -3.141592653589793 0
20 1.884955592150543 -3.141592653589793 0
21 2.199114857510529 -3.141592653589793 0
22 2.513274122870169 -3.141592653589793 0
23 2.827433388230154 -3.141592653589793 0
24 3.141592653589793 -2.827433388231352 0
25 3.141592653589793 -2.513274122873067 0
26 3.141592653589793 -2.199114857514921 0
27 3.141592653589793 -1.884955592156731 0
28 3.141592653589793 -1.570796326798627 0
29 3.141592653589793 -1.256637061440524 0
30 3.141592653589793 -0.9424777960823354 0
31 3.141592653589793 -0.6283185307241896 0
32 3.141592653589793 -0.3141592653660785 0
33 3.141592653589793 -7.898126597183364e-12 0
34 3.141592653589793 0.3141592653518268 0
35 3.141592653589793 0.6283185307116224 0
36 3.141592653589793 0.9424777960712794 0
37 3.141592653589793 1.256637061431264 0
38 3.141592653589793 1.570796326790903 0
39 3.141592653589793 1.884955592150543 0
40 3.141592653589793 2.199114857510529 0
41 3.141592653589793 2.513274122870169 0
42 3.141592653589793 2.827433388230154 0
43 2.827433388231352 3.141592653589793 0
44 2.513274122873067 3.141592653589793 0
45 2.199114857514921 3.141592653589793 0
46 1.884955592156731 3.141592653589793 0
47 1.570796326798627 3.141592653589793 0
48 1.256637061440524 3.141592653589793 0
49 0.9424777960823354 3.141592653589793 0
50 0.6283185307241896 3.141592653589793 0
51 0.3141592653660785 3.141592653589793 0
52 7.898126597183364e-12 3.141592653589793 0
53 -0.3141592653518268 3.141592653589793 0
54 -0.6283185307116224 3.141592653589793 0
55 -0.9424777960712794 3.141592653589793 0
56 -1.256637061431264 3.141592653589793 0
57 -1.570796326790903 3.141592653589793 0
58 -1.884955592150543 3.141592653589793 0
59 -2.199114857510529 3.141592653589793 0
60 -2.513274122870169 3.141592653589793 0
61 -2.827433388230154 3.141592653589793 0
62 -3.141592653589793 2.827433388231352 0
63 -3.141592653589793 2.513274122873067 0
64 -3.141592653589793 2.199114857514921 0
65 -3.141592653589793 1.884955592156731 0
66 -3.141592653589793 1.570796326798627 0
67 -3.141592653589793 1.256637061440524 0
68 -3.141592653589793 0.9424777960823354 0
69 -3.141592653589793 0.6283185307241896 0
70 -3.141592653589793 0.3141592653660785 0
71 -3.141592653589793 7.898126597183364e-12 0
72 -3.141592653589793 -0.3141592653518268 0
73 -3.141592653589793 -0.6283185307116224 0
74 -3.141592653589793 -0.9424777960712794 0
75 -3.141592653589793 -1.256637061431264 0
76 -3.141592653589793 -1.570796326790903 0
77 -3.141592653589793 -1.884955592150543 0
78 -3.141592653589793 -2.199114857510529 0
79 -3.141592653589793 -2.513274122870169 0
80 -3.141592653589793 -2.827433388230154 0
81 -2.827433388231292 -2.827433388230214 0
82 -2.827433388231232 -2.513274122870314 0
83 -2.827433388231172 -2.199114857510749 0
84 -2.827433388231112 -1.884955592150853 0
85 -2.827433388231052 -1.57079632679129 0
86 -2.827433388230991 -1.256637061431727 0
87 -2.827433388230933 -0.9424777960718322 0
88 -2.827433388230872 -0.6283185307122505 0
89 -2.827433388230812 -0.3141592653525389 0
90 -2.827433388230753 7.108535982069952e-12 0
91 -2.827433388230691 0.3141592653653658 0
92 -2.827433388230633 0.628318530723561 0
93 -2.827433388230573 0.9424777960817825 0
94 -2.827433388230513 1.256637061440061 0
95 -2.827433388230454 1.570796326798241 0
96 -2.827433388230393 1.884955592156421 0
97 -2.827433388230333 2.199114857514701 0
98 -2.827433388230273 2.513274122872922 0
99 -2.827433388230214 2.827433388231292 0
100 -2.513274122872922 -2.827433388230274 0
101 -2.513274122872778 -2.51327412287046 0
102 -2.513274122872632 -2.199114857510968 0
103 -2.513274122872487 -1.884955592151162 0
104 -2.513274122872342 -1.570796326791676 0
105 -2.513274122872198 -1.25663706143219 0
106 -2.513274122872053 -0.9424777960723848 0
107 -2.513274122871907 -0.6283185307128791 0
108 -2.513274122871763 -0.3141592653532521 0
109 -2.513274122871618 6.318501277746691e-12 0
110 -2.513274122871474 0.314159265364653 0
111 -2.513274122871328 0.6283185307229326 0
112 -2.513274122871183 0.9424777960812299 0
113 -2.513274122871039 1.256637061439599 0
114 -2.513274122870894 1.570796326797855 0
115 -2.513274122870749 1.884955592156112 0
116 -2.513274122870603 2.199114857514481 0
117 -2.51327412287046 2.513274122872777 0
118 -2.513274122870314 2.827433388231232 0
119 -2.199114857514701 -2.827433388230334 0
120 -2.199114857514481 -2.513274122870603 0
121 -2.199114857514262 -2.199114857511188 0
122 -2.199114857514043 -1.884955592151471 0
123 -2.199114857513823 -1.570796326792062 0
124 -2.199114857513603 -1.256637061432653 0
125 -2.199114857513383 -0.9424777960729381 0
126 -2.199114857513164 -0.6283185307135075 0
127 -2.199114857512944 -0.3141592653539644 0
128 -2.199114857512725 5.528688618028355e-12 0
129 -2.199114857512505 0.3141592653639407 0
130 -2.199114857512286 0.6283185307223046 0
131 -2.199114857512066 0.9424777960806769 0
132 -2.199114857511846 1.256637061439135 0
133 -2.199114857511627 1.570796326797468 0
134 -2.199114857511407 1.884955592155803 0
135 -2.199114857511188 2.199114857514261 0
136 -2.199114857510968 2.513274122872632 0
137 -2.199114857510748 2.827433388231172 0
138 -1.884955592156421 -2.827433388230394 0
139 -1.884955592156112 -2.513274122870749 0
140 -1.884955592155802 -2.199114857511408 0
141 -1.884955592155493 -1.884955592151781 0
142 -1.884955592155184 -1.570796326792448 0
143 -1.884955592154875 -1.256637061433116 0
144 -1.884955592154565 -0.94247779607349 0
145 -1.884955592154256 -0.6283185307141361 0
146 -1.884955592153946 -0.3141592653546772 0
147 -1.884955592153637 4.738875958310018e-12 0
148 -1.884955592153328 0.3141592653632279 0
149 -1.884955592153018 0.6283185307216761 0
150 -1.884955592152709 0.9424777960801239 0
151 -1.8849555921524 1.256637061438672 0
152 -1.884955592152091 1.570796326797083 0
153 -1.884955592151781 1.884955592155493 0
154 -1.884955592151472 2.199114857514043 0
155 -1.884955592151163 2.513274122872488 0
156 -1.884955592150853 2.827433388231112 0
157 -1.570796326798241 -2.827433388230453 0
158 -1.570796326797855 -2.513274122870894 0
159 -1.570796326797469 -2.199114857511626 0
160 -1.570796326797082 -1.88495559215209 0
161 -1.570796326796696 -1.570796326792834 0
162 -1.57079632679631 -1.256637061433579 0
163 -1.570796326795924 -0.9424777960740429 0
164 -1.570796326795538 -0.6283185307147645 0
165 -1.570796326795151 -0.31415926535539 0
166 -1.570796326794765 3.949063298591682e-12 0
167 -1.570796326794379 0.3141592653625151 0
168 -1.570796326793993 0.6283185307210482 0
169 -1.570796326793607 0.9424777960795716 0
170 -1.570796326793221 1.256637061438209 0
171 -1.570796326792834 1.570796326796696 0
172 -1.570796326792448 1.884955592155184 0
173 -1.570796326792061 2.199114857513822 0
174 -1.570796326791676 2.513274122872343 0
175 -1.570796326791289 2.827433388231052 0
176 -1.256637061440061 -2.827433388230513 0
177 -1.256637061439599 -2.513274122871039 0
178 -1.256637061439135 -2.199114857511847 0
179 -1.256637061438672 -1.8849555921524 0
180 -1.25663706143821 -1.570796326793221 0
181 -1.256637061437746 -1.256637061434042 0
182 -1.256637061437283 -0.9424777960745959 0
183 -1.256637061436821 -0.6283185307153929 0
184 -1.256637061436357 -0.3141592653561021 0
185 -1.256637061435894 3.159250638873345e-12 0
186 -1.256637061435431 0.3141592653618029 0
187 -1.256637061434968 0.6283185307204198 0
188 -1.256637061434505 0.9424777960790187 0
189 -1.256637061434042 1.256637061437747 0
190 -1.256637061433579 1.57079632679631 0
191 -1.256637061433116 1.884955592154875 0
192 -1.256637061432653 2.199114857513603 0
193 -1.25663706143219 2.513274122872198 0
194 -1.256637061431727 2.827433388230991 0
195 -0.9424777960817825 -2.827433388230573 0
196 -0.9424777960812298 -2.513274122871183 0
197 -0.9424777960806769 -2.199114857512067 0
198 -0.9424777960801239 -1.884955592152709 0
199 -0.9424777960795712 -1.570796326793607 0
200 -0.9424777960790183 -1.256637061434505 0
201 -0.9424777960784656 -0.9424777960751488 0
202 -0.9424777960779132 -0.6283185307160211 0
203 -0.94247779607736 -0.3141592653568149 0
204 -0.9424777960768074 2.369437979155009e-12 0
205 -0.9424777960762547 0.3141592653610901 0
206 -0.9424777960757016 0.6283185307197912 0
207 -0.9424777960751486 0.9424777960784657 0
208 -0.9424777960745961 1.256637061437283 0
209 -0.9424777960740431 1.570796326795924 0
210 -0.94247779607349 1.884955592154565 0
211 -0.9424777960729378 2.199114857513383 0
212 -0.9424777960723852 2.513274122872053 0
213 -0.9424777960718322 2.827433388230932 0
214 -0.628318530723561 -2.827433388230634 0
215 -0.6283185307229328 -2.513274122871328 0
216 -0.6283185307223048 -2.199114857512286 0
217 -0.6283185307216765 -1.884955592153019 0
218 -0.6283185307210482 -1.570796326793993 0
219 -0.6283185307204195 -1.256637061434969 0
220 -0.6283185307197912 -0.942477796075702 0
221 -0.6283185307191627 -0.6283185307166491 0
222 -0.6283185307185344 -0.3141592653575273 0
223 -0.628318530717906 1.579625319436673e-12 0
224 -0.6283185307172777 0.3141592653603776 0
225 -0.6283185307166496 0.6283185307191629 0
226 -0.628318530716021 0.9424777960779132 0
227 -0.6283185307153928 1.256637061436821 0
228 -0.6283185307147645 1.570796326795537 0
229 -0.6283185307141361 1.884955592154256 0
230 -0.6283185307135075 2.199114857513163 0
231 -0.6283185307128789 2.513274122871907 0
232 -0.6283185307122507 2.827433388230872 0
233 -0.3141592653653656 -2.827433388230692 0
234 -0.3141592653646532 -2.513274122871473 0
235 -0.3141592653639406 -2.199114857512506 0
236 -0.3141592653632282 -1.884955592153327 0
237 -0.3141592653625156 -1.570796326794379 0
238 -0.3141592653618029 -1.256637061435431 0
239 -0.3141592653610903 -0.9424777960762541 0
240 -0.3141592653603777 -0.6283185307172781 0
241 -0.3141592653596652 -0.3141592653582401 0
242 -0.3141592653589527 7.897016374158738e-13 0
243 -0.3141592653582402 0.3141592653596651 0
244 -0.3141592653575275 0.6283185307185343 0
245 -0.3141592653568148 0.9424777960773602 0
246 -0.3141592653561024 1.256637061436358 0
247 -0.3141592653553897 1.570796326795151 0
248 -0.3141592653546774 1.884955592153946 0
249 -0.3141592653539644 2.199114857512945 0
250 -0.3141592653532517 2.513274122871763 0
251 -0.3141592653525391 2.827433388230812 0
252 -7.108313937464875e-12 -2.827433388230753 0
253 -6.318501277746146e-12 -2.513274122871618 0
254 -5.528688618028027e-12 -2.199114857512724 0
255 -4.738875958309417e-12 -1.884955592153637 0
256 -3.949063298591352e-12 -1.570796326794765 0
257 -3.159250638873289e-12 -1.256637061435894 0
258 -2.369437979154681e-12 -0.9424777960768074 0
259 -1.579625319436541e-12 -0.6283185307179058 0
260 -7.898126597182697e-13 -0.3141592653589524 0
261 0 0 0
262 7.898126597182685e-13 0.3141592653589527 0
263 1.579625319436541e-12 0.628318530717906 0
264 2.369437979154681e-12 0.9424777960768074 0
265 3.159250638873287e-12 1.256637061435894 0
266 3.949063298591352e-12 1.570796326794766 0
267 4.738875958309417e-12 1.884955592153637 0
268 5.528688618028027e-12 2.199114857512725 0
269 6.318501277746146e-12 2.513274122871618 0
270 7.108313937464875e-12 2.827433388230753 0
271 0.3141592653525391 -2.827433388230813 0
272 0.3141592653532516 -2.513274122871763 0
273 0.3141592653539644 -2.199114857512945 0
274 0.3141592653546771 -1.884955592153947 0
275 0.3141592653553894 -1.570796326795151 0
276 0.3141592653561022 -1.256637061436358 0
277 0.3141592653568147 -0.9424777960773603 0
278 0.3141592653575273 -0.6283185307185345 0
279 0.31415926535824 -0.3141592653596654 0
280 0.3141592653589528 -7.898126597183364e-13 0
281 0.314159265359665 0.3141592653582398 0
282 0.3141592653603775 0.6283185307172777 0
283 0.3141592653610901 0.9424777960762546 0
284 0.3141592653618031 1.256637061435431 0
285 0.3141592653625154 1.570796326794379 0
286 0.3141592653632281 1.884955592153328 0
287 0.3141592653639407 2.199114857512505 0
288 0.3141592653646532 2.513274122871473 0
289 0.3141592653653658 2.827433388230693 0
290 0.6283185307122505 -2.827433388230872 0
291 0.6283185307128788 -2.513274122871907 0
292 0.6283185307135074 -2.199114857513164 0
293 0.6283185307141358 -1.884955592154256 0
294 0.6283185307147645 -1.570796326795538 0
295 0.6283185307153929 -1.256637061436821 0
296 0.6283185307160208 -0.9424777960779132 0
297 0.6283185307166493 -0.6283185307191624 0
298 0.6283185307172775 -0.314159265360378 0
299 0.628318530717906 -1.579625319436673e-12 0
300 0.6283185307185345 0.314159265357527 0
301 0.6283185307191629 0.6283185307166493 0
302 0.6283185307197909 0.942477796075702 0
303 0.6283185307204193 1.256637061434969 0
304 0.6283185307210479 1.570796326793992 0
305 0.6283185307216763 1.884955592153018 0
306 0.6283185307223045 2.199114857512286 0
307 0.6283185307229326 2.513274122871328 0
308 0.6283185307235613 2.827433388230633 0
309 0.9424777960718322 -2.827433388230932 0
310 0.9424777960723849 -2.513274122872053 0
311 0.9424777960729378 -2.199114857513384 0
312 0.9424777960734907 -1.884955592154565 0
313 0.9424777960740434 -1.570796326795924 0
314 0.9424777960745961 -1.256637061437284 0
315 0.9424777960751488 -0.9424777960784655 0
316 0.942477796075702 -0.6283185307197909 0
317 0.9424777960762543 -0.3141592653610903 0
318 0.9424777960768073 -2.369326956852547e-12 0
319 0.9424777960773599 0.3141592653568145 0
320 0.942477796077913 0.628318530716021 0
321 0.9424777960784657 0.9424777960751488 0
322 0.9424777960790186 1.256637061434505 0
323 0.9424777960795715 1.570796326793606 0
324 0.9424777960801238 1.884955592152709 0
325 0.9424777960806768 2.199114857512066 0
326 0.9424777960812299 2.513274122871183 0
327 0.9424777960817825 2.827433388230573 0
328 1.256637061431727 -2.827433388230992 0
329 1.25663706143219 -2.513274122872198 0
330 1.256637061432653 -2.199114857513604 0
331 1.256637061433117 -1.884955592154875 0
332 1.256637061433579 -1.57079632679631 0
333 1.256637061434042 -1.256637061437746 0
334 1.256637061434505 -0.9424777960790185 0
335 1.256637061434969 -0.6283185307204193 0
336 1.256637061435432 -0.3141592653618033 0
337 1.256637061435894 -3.159306150024577e-12 0
338 1.256637061436358 0.3141592653561021 0
339 1.256637061436821 0.6283185307153928 0
340 1.256637061437283 0.9424777960745961 0
341 1.256637061437747 1.256637061434042 0
342 1.256637061438209 1.57079632679322 0
343 1.256637061438673 1.8849555921524 0
344 1.256637061439135 2.199114857511846 0
345 1.256637061439599 2.513274122871039 0
346 1.256637061440061 2.827433388230513 0
347 1.570796326791289 -2.827433388231053 0
348 1.570796326791675 -2.513274122872343 0
349 1.570796326792061 -2.199114857513823 0
350 1.570796326792448 -1.884955592155184 0
351 1.570796326792834 -1.570796326796696 0
352 1.57079632679322 -1.25663706143821 0
353 1.570796326793606 -0.9424777960795714 0
354 1.570796326793992 -0.6283185307210479 0
355 1.570796326794379 -0.3141592653625158 0
356 1.570796326794765 -3.949007787440451e-12 0
357 1.570796326795151 0.3141592653553894 0
358 1.570796326795538 0.6283185307147646 0
359 1.570796326795924 0.9424777960740433 0
360 1.570796326796311 1.256637061433579 0
361 1.570796326796696 1.570796326792834 0
362 1.570796326797082 1.88495559215209 0
363 1.570796326797468 2.199114857511627 0
364 1.570796326797855 2.513274122870893 0
365 1.57079632679824 2.827433388230454 0
366 1.884955592150853 -2.827433388231112 0
367 1.884955592151163 -2.513274122872487 0
368 1.884955592151472 -2.199114857514043 0
369 1.884955592151781 -1.884955592155493 0
370 1.884955592152091 -1.570796326797082 0
371 1.884955592152399 -1.256637061438672 0
372 1.884955592152709 -0.9424777960801238 0
373 1.884955592153018 -0.6283185307216762 0
374 1.884955592153328 -0.3141592653632282 0
375 1.884955592153637 -4.738875958310018e-12 0
376 1.884955592153946 0.314159265354677 0
377 1.884955592154256 0.6283185307141359 0
378 1.884955592154565 0.9424777960734906 0
379 1.884955592154875 1.256637061433116 0
380 1.884955592155184 1.570796326792448 0
381 1.884955592155493 1.884955592151781 0
382 1.884955592155802 2.199114857511407 0
383 1.884955592156112 2.513274122870749 0
384 1.884955592156421 2.827433388230394 0
385 2.199114857510748 -2.827433388231173 0
386 2.199114857510968 -2.513274122872632 0
387 2.199114857511187 -2.199114857514262 0
388 2.199114857511407 -1.884955592155803 0
389 2.199114857511626 -1.570796326797468 0
390 2.199114857511846 -1.256637061439136 0
391 2.199114857512066 -0.9424777960806765 0
392 2.199114857512286 -0.6283185307223045 0
393 2.199114857512505 -0.3141592653639406 0
394 2.199114857512725 -5.528688618028355e-12 0
395 2.199114857512945 0.3141592653539646 0
396 2.199114857513163 0.6283185307135075 0
397 2.199114857513384 0.9424777960729378 0
398 2.199114857513603 1.256637061432653 0
399 2.199114857513822 1.570796326792062 0
400 2.199114857514043 1.884955592151472 0
401 2.199114857514261 2.199114857511188 0
402 2.199114857514481 2.513274122870603 0
403 2.199114857514702 2.827433388230333 0
404 2.513274122870314 -2.827433388231233 0
405 2.51327412287046 -2.513274122872776 0
406 2.513274122870603 -2.199114857514481 0
407 2.513274122870749 -1.884955592156112 0
408 2.513274122870894 -1.570796326797855 0
409 2.513274122871038 -1.256637061439599 0
410 2.513274122871183 -0.9424777960812303 0
411 2.513274122871328 -0.6283185307229326 0
412 2.513274122871474 -0.3141592653646531 0
413 2.513274122871618 -6.318529033322307e-12 0
414 2.513274122871762 0.3141592653532514 0
415 2.513274122871907 0.6283185307128789 0
416 2.513274122872053 0.9424777960723851 0
417 2.513274122872198 1.25663706143219 0
418 2.513274122872343 1.570796326791675 0
419 2.513274122872488 1.884955592151162 0
420 2.513274122872632 2.199114857510968 0
421 2.513274122872778 2.51327412287046 0
422 2.513274122872922 2.827433388230274 0
423 2.827433388230213 -2.827433388231292 0
424 2.827433388230273 -2.513274122872922 0
425 2.827433388230334 -2.199114857514702 0
426 2.827433388230394 -1.884955592156421 0
427 2.827433388230454 -1.570796326798241 0
428 2.827433388230513 -1.256637061440061 0
429 2.827433388230574 -0.9424777960817825 0
430 2.827433388230633 -0.6283185307235611 0
431 2.827433388230692 -0.3141592653653656 0
432 2.827433388230752 -7.10823067073818e-12 0
433 2.827433388230812 0.3141592653525392 0
434 2.827433388230872 0.6283185307122505 0
435 2.827433388230932 0.9424777960718322 0
436 2.827433388230992 1.256637061431727 0
437 2.827433388231052 1.570796326791289 0
438 2.827433388231112 1.884955592150853 0
439 2.827433388231172 2.199114857510748 0
440 2.827433388231232 2.513274122870314 0
441 2.827433388231292 2.827433388230214 0
$EndNodes
$Elements
880
1 1 2 1 1 1 5
2 1 2 1 1 5 6
3 1 2 1 1 6 7
4 1 2 1 1 7 8
5 1 2 1 1 8 9
6 1 2 1 1 9 10
7 1 2 1 1 10 11
8 1 2 1 1 11 12
9 1 2 1 1 12 13
10 1 2 1 1 13 14
11 1 2 1 1 14 15
12 1 2 1 1 15 16
13 1 2 1 1 16 17
14 1 2 1 1 17 18
15 1 2 1 1 18 19
16 1 2 1 1 19 20
17 1 2 1 1 20 21
18 1 2 1 1 21 22
19 1 2 1 1 22 23
20 1 2 1 1 23 2
21 1 2 1 2 2 24
22 1 2 1 2 24 25
23 1 2 1 2 25 26
24 1 2 1 2 26 27
25 1 2 1 2 27 28
26 1 2 1 2 28 29
27 1 2 1 2 29 30
28 1 2 1 2 30 31
29 1 2 1 2 31 32
30 1 2 1 2 32 33
31 1 2 1 2 33 34
32 1 2 1 2 34 35
33 1 2 1 2 35 36
34 1 2 1 2 36 37
35 1 2 1 2 37 38
36 1 2 1 2 38 39
37 1 2 1 2 39 40
38 1 2 1 2 40 41
39 1 2 1 2 41 42
40 1 2 1 2 42 3
41 1 2 1 3 3 43
42 1 2 1 3 43 44
43 1 2 1 3 44 45
44 1 2 1 3 45 46
45 1 2 1 3 46 47
46 1 2 1 3 47 48
47 1 2 1 3 48 49
48 1 2 1 3 49 50
49 1 2 1 3 50 51
50 1 2 1 3 51 52
51 1 2 1 3 52 53
52 1 2 1 3 53 54
53 1 2 1 3 54 55
54 1 2 1 3 55 56
55 1 2 1 3 56 57
56 1 2 1 3 57 58
57 1 2 1 3 58 59
58 1 2 1 3 59 60
59 1 2 1 3 60 61
60 1 2 1 3 61 4
61 1 2 1 4 4 62
62 1 2 1 4 62 63
63 1 2 1 4 63 64
64 1 2 1 4 64 65
65 1 2 1 4 65 66
66 1 2 1 4 66 67
67 1 2 1 4 67 68
68 1 2 1 4 68 69
69 1 2 1 4 69 70
70 1 2 1 4 70 71
71 1 2 1 4 71 72
72 1 2 1 4 72 73
73 1 2 1 4 73 74
74 1 2 1 4 74 75
75 1 2 1 4 75 76
76 1 2 1 4 76 77
77 1 2 1 4 77 78
78 1 2 1 4 78 79
79 1 2 1 4 79 80
80 1 2 1 4 80 1
81 2 2 2 1 1 5 80
82 2 2 2 1 80 5 81
83 2 2 2 1 80 81 79
84 2 2 2 1 79 81 82
85 2 2 2 1 79 82 78
86 2 2 2 1 78 82 83
87 2 2 2 1 78 83 77
88 2 2 2 1 77 83 84
89 2 2 2 1 77 84 76
90 2 2 2 1 76 84 85
91 2 2 2 1 76 85 75
92 2 2 2 1 75 85 86
93 2 2 2 1 75 86 74
94 2 2 2 1 74 86 87
95 2 2 2 1 74 87 73
96 2 2 2 1 73 87 88
97 2 2 2 1 73 88 72
98 2 2 2 1 72 88 89
99 2 2 2 1 72 89 71
100 2 2 2 1 71 89 90
101 2 2 2 1 71 90 70
102 2 2 2 1 70 90 91
103 2 2 2 1 70 91 69
104 2 2 2 1 69 91 92
105 2 2 2 1 69 92 68
106 2 2 2 1 68 92 93
107 2 2 2 1 68 93 67
108 2 2 2 1 67 93 94
109 2 2 2 1 67 94 66
110 2 2 2 1 66 94 95
111 2 2 2 1 66 95 65
112 2 2 2 1 65 95 96
113 2 2 2 1 65 96 64
114 2 2 2 1 64 96 97
115 2 2 2 1 64 97 63
116 2 2 2 1 63 97 98
117 2 2 2 1 63 98 62
118 2 2 2 1 62 98 99
119 2 2 2 1 62 99 4
120 2 2 2 1 4 99 61
121 2 2 2 1 5 6 81
122 2 2 2 1 81 6 100
123 2 2 2 1 81 100 82
124 2 2 2 1 82 100 101
125 2 2 2 1 82 101 83
126 2 2 2 1 83 101 102
127 2 2 2 1 83 102 84
128 2 2 2 1 84 102 103
129 2 2 2 1 84 103 85
130 2 2 2 1 85 103 104
131 2 2 2 1 85 104 86
132 2 2 2 1 86 104 105
133 2 2 2 1 86 105 87
134 2 2 2 1 87 105 106
135 2 2 2 1 87 106 88
136 2 2 2 1 88 106 107
137 2 2 2 1 88 107 89
138 2 2 2 1 89 107 108
139 2 2 2 1 89 108 90
140 2 2 2 1 90 108 109
141 2 2 2 1 90 109 91
142 2 2 2 1 91 109 110
143 2 2 2 1 91 110 92
144 2 2 2 1 92 110 111
145 2 2 2 1 92 111 93
146 2 2 2 1 93 111 112
147 2 2 2 1 93 112 94
148 2 2 2 1 94 112 113
149 2 2 2 1 94 113 95
150 2 2 2 1 95 113 114
151 2 2 2 1 95 114 96
152 2 2 2 1 96 114 115
153 2 2 2 1 96 115 97
154 2 2 2 1 97 115 116
155 2 2 2 1 97 116 98
156 2 2 2 1 98 116 117
157 2 2 2 1 98 117 99
158 2 2 2 1 99 117 118
159 2 2 2 1 99 118 61
160 2 2 2 1 61 118 60
161 2 2 2 1 6 7 100
162 2 2 2 1 100 7 119
163 2 2 2 1 100 119 101
164 2 2 2 1 101 119 120
165 2 2 2 1 101 120 102
166 2 2 2 1 102 120 121
167 2 2 2 1 102 121 103
168 2 2 2 1 103 121 122
169 2 2 2 1 103 122 104
170 2 2 2 1 104 122 123
171 2 2 2 1 104 123 105
172 2 2 2 1 105 123 124
173 2 2 2 1 105 124 106
174 2 2 2 1 106 124 125
175 2 2 2 1 106 125 107
176 2 2 2 1 107 125 126
177 2 2 2 1 107 126 108
178 2 2 2 1 108 126 127
179 2 2 2 1 108 127 109
180 2 2 2 1 109 127 128
181 2 2 2 1 109 128 110
182 2 2 2 1 110 128 129
183 2 2 2 1 110 129 111
184 2 2 2 1 111 129 130
185 2 2 2 1 111 130 112
186 2 2 2 1 112 130 131
187 2 2 2 1 112 131 113
188 2 2 2 1 113 131 132
189 2 2 2 1 113 132 114
190 2 2 2 1 114 132 133
191 2 2 2 1 114 133 115
192 2 2 2 1 115 133 134
193 2 2 2 1 115 134 116
194 2 2 2 1 116 134 135
195 2 2 2 1 116 135 117
196 2 2 2 1 117 135 136
197 2 2 2 1 117 136 118
198 2 2 2 1 118 136 137
199 2 2 2 1 118 137 60
200 2 2 2 1 60 137 59
201 2 2 2 1 7 8 119
202 2 2 2 1 119 8 138
203 2 2 2 1 119 138 120
204 2 2 2 1 120 138 139
205 2 2 2 1 120 139 121
206 2 2 2 1 121 139 140
207 2 2 2 1 121 140 122
208 2 2 2 1 122 140 141
209 2 2 2 1 122 141 123
210 2 2 2 1 123 141 142
211 2 2 2 1 123 142 124
212 2 2 2 1 124 142 143
213 2 2 2 1 124 143 125
214 2 2 2 1 125 143 144
215 2 2 2 1 125 144 126
216 2 2 2 1 126 144 145
217 2 2 2 1 126 145 127
218 2 2 2 1 127 145 146
219 2 2 2 1 127 146 128
220 2 2 2 1 128 146 147
221 2 2 2 1 128 147 129
222 2 2 2 1 129 147 148
223 2 2 2 1 129 148 130
224 2 2 2 1 130 148 149
225 2 2 2 1 130 149 131
226 2 2 2 1 131 149 150
227 2 2 2 1 131 150 132
228 2 2 2 1 132 150 151
229 2 2 2 1 132 151 133
230 2 2 2 1 133 151 152
231 2 2 2 1 133 152 134
232 2 2 2 1 134 152 153
233 2 2 2 1 134 153 135
234 2 2 2 1 135 153 154
235 2 2 2 1 135 154 136
236 2 2 2 1 136 154 155
237 2 2 2 1 136 155 137
238 2 2 2 1 137 155 156
239 2 2 2 1 137 156 59
240 2 2 2 1 59 156 58
241 2 2 2 1 8 9 138
242 2 2 2 1 138 9 157
243 2 2 2 1 138 157 139
244 2 2 2 1 139 157 158
245 2 2 2 1 139 158 140
246 2 2 2 1 140 158 159
247 2 2 2 1 140 159 141
248 2 2 2 1 141 159 160
249 2 2 2 1 141 160 142
250 2 2 2 1 142 160 161
251 2 2 2 1 142 161 143
252 2 2 2 1 143 161 162
253 2 2 2 1 143 162 144
254 2 2 2 1 144 162 163
255 2 2 2 1 144 163 145
256 2 2 2 1 145 163 164
257 2 2 2 1 145 164 146
258 2 2 2 1 146 164 165
259 2 2 2 1 146 165 147
260 2 2 2 1 147 165 166
261 2 2 2 1 147 166 148
262 2 2 2 1 148 166 167
263 2 2 2 1 148 167 149
264 2 2 2 1 149 167 168
265 2 2 2 1 149 168 150
266 2 2 2 1 150 168 169
267 2 2 2 1 150 169 151
268 2 2 2 1 151 169 170
269 2 2 2 1 151 170 152
270 2 2 2 1 152 170 171
271 2 2 2 1 152 171 153
272 2 2 2 1 153 171 172
273 2 2 2 1 153 172 154
274 2 2 2 1 154 172 173
275 2 2 2 1 154 173 155
276 2 2 2 1 155 173 174
277 2 2 2 1 155 174 156
278 2 2 2 1 156 174 175
279 2 2 2 1 156 175 58
280 2 2 2 1 58 175 57
281 2 2 2 1 9 10 157
282 2 2 2 1 157 10 176
283 2 2 2 1 157 176 158
284 2 2 2 1 158 176 177
285 2 2 2 1 158 177 159
286 2 2 2 1 159 177 178
287 2 2 2 1 159 178 160
288 2 2 2 1 160 178 179
289 2 2 2 1 160 179 161
290 2 2 2 1 161 179 180
291 2 2 2 1 161 180 162
292 2 2 2 1 162 180 181
293 2 2 2 1 162 181 163
294 2 2 2 1 163 181 182
295 2 2 2 1 163 182 164
296 2 2 2 1 164 182 183
297 2 2 2 1 164 183 165
298 2 2 2 1 165 183 184
299 2 2 2 1 165 184 166
300 2 2 2 1 166 184 185
301 2 2 2 1 166 185 167
302 2 2 2 1 167 185 186
303 2 2 2 1 167 186 168
304 2 2 2 1 168 186 187
305 2 2 2 1 168 187 169
306 2 2 2 1 169 187 188
307 2 2 2 1 169 188 170
308 2 2 2 1 170 188 189
309 2 2 2 1 170 189 171
310 2 2 2 1 171 189 190
311 2 2 2 1 171 190 172
312 2 2 2 1 172 190 191
313 2 2 2 1 172 191 173
314 2 2 2 1 173 191 192
315 2 2 2 1 173 192 174
316 2 2 2 1 174 192 193
317 2 2 2 1 174 193 175
318 2 2 2 1 175 193 194
319 2 2 2 1 175 194 57
320 2 2 2 1 57 194 56
321 2 2 2 1 10 11 176
322 2 2 2 1 176 11 195
323 2 2 2 1 176 195 177
324 2 2 2 1 177 195 196
325 2 2 2 1 177 196 178
326 2 2 2 1 178 196 197
327 2 2 2 1 178 197 179
328 2 2 2 1 179 197 198
329 2 2 2 1 179 198 180
330 2 2 2 1 180 198 199
331 2 2 2 1 180 199 181
332 2 2 2 1 181 199 200
333 2 2 2 1 181 200 182
334 2 2 2 1 182 200 201
335 2 2 2 1 182 201 183
336 2 2 2 1 183 201 202
337 2 2 2 1 183 202 184
338 2 2 2 1 184 202 203
339 2 2 2 1 184 203 185
340 2 2 2 1 185 203 204
341 2 2 2 1 185 204 186
342 2 2 2 1 186 204 205
343 2 2 2 1 186 205 187
344 2 2 2 1 187 205 206
345 2 2 2 1 187 206 188
346 2 2 2 1 188 206 207
347 2 2 2 1 188 207 189
348 2 2 2 1 189 207 208
349 2 2 2 1 189 208 190
350 2 2 2 1 190 208 209
351 2 2 2 1 190 209 191
352 2 2 2 1 191 209 210
353 2 2 2 1 191 210 192
354 2 2 2 1 192 210 211
355 2 2 2 1 192 211 193
356 2 2 2 1 193 211 212
357 2 2 2 1 193 212 194
358 2 2 2 1 194 212 213
359 2 2 2 1 194 213 56
360 2 2 2 1 56 213 55
361 2 2 2 1 11 12 195
362 2 2 2 1 195 12 214
363 2 2 2 1 195 214 196
364 2 2 2 1 196 214 215
365 2 2 2 1 196 215 197
366 2 2 2 1 197 215 216
367 2 2 2 1 197 216 198
368 2 2 2 1 198 216 217
369 2 2 2 1 198 217 199
370 2 2 2 1 199 217 218
371 2 2 2 1 199 218 200
372 2 2 2 1 200 218 219
373 2 2 2 1 200 219 201
374 2 2 2 1 201 219 220
375 2 2 2 1 201 220 202
376 2 2 2 1 202 220 221
377 2 2 2 1 202 221 203
378 2 2 2 1 203 221 222
379 2 2 2 1 203 222 204
380 2 2 2 1 204 222 223
381 2 2 2 1 204 223 205
382 2 2 2 1 205 223 224
383 2 2 2 1 205 224 206
384 2 2 2 1 206 224 225
385 2 2 2 1 206 225 207
386 2 2 2 1 207 225 226
387 2 2 2 1 207 226 208
388 2 2 2 1 208 226 227
389 2 2 2 1 208 227 209
390 2 2 2 1 209 227 228
391 2 2 2 1 209 228 210
392 2 2 2 1 210 228 229
393 2 2 2 1 210 229 211
394 2 2 2 1 211 229 230
395 2 2 2 1 211 230 212
396 2 2 2 1 212 230 231
397 2 2 2 1 212 231 213
398 2 2 2 1 213 231 232
399 2 2 2 1 213 232 55
400 2 2 2 1 55 232 54
401 2 2 2 1 12 13 214
402 2 2 2 1 214 13 233
403 2 2 2 1 214 233 215
404 2 2 2 1 215 233 234
405 2 2 2 1 215 234 216
406 2 2 2 1 216 234 235
407 2 2 2 1 216 235 217
408 2 2 2 1 217 235 236
409 2 2 2 1 217 236 218
410 2 2 2 1 218 236 237
411 2 2 2 1 218 237 219
412 2 2 2 1 219 237 238
413 2 2 2 1 219 238 220
414 2 2 2 1 220 238 239
415 2 2 2 1 220 239 221
416 2 2 2 1 221 239 240
417 2 2 2 1 221 240 222
418 2 2 2 1 222 240 241
419 2 2 2 1 222 241 223
420 2 2 2 1 223 241 242
421 2 2 2 1 223 242 224
422 2 2 2 1 224 242 243
423 2 2 2 1 224 243 225
424 2 2 2 1 225 243 244
425 2 2 2 1 225 244 226
426 2 2 2 1 226 244 245
427 2 2 2 1 226 245 227
428 2 2 2 1 227 245 246
429 2 2 2 1 227 246 228
430 2 2 2 1 228 246 247
431 2 2 2 1 228 247 229
432 2 2 2 1 229 247 248
433 2 2 2 1 229 248 230
434 2 2 2 1 230 248 249
435 2 2 2 1 230 249 231
436 2 2 2 1 231 249 250
437 2 2 2 1 231 250 232
438 2 2 2 1 232 250 251
439 2 2 2 1 232 251 54
440 2 2 2 1 54 251 53
441 2 2 2 1 13 14 233
442 2 2 2 1 233 14 252
443 2 2 2 1 233 252 234
444 2 2 2 1 234 252 253
445 2 2 2 1 234 253 235
446 2 2 2 1 235 253 254
447 2 2 2 1 235 254 236
448 2 2 2 1 236 254 255
449 2 2 2 1 236 255 237
450 2 2 2 1 237 255 256
451 2 2 2 1 237 256 238
452 2 2 2 1 238 256 257
453 2 2 2 1 238 257 239
454 2 2 2 1 239 257 258
455 2 2 2 1 239 258 240
456 2 2 2 1 240 258 259
457 2 2 2 1 240 259 241
458 2 2 2 1 241 259 260
459 2 2 2 1 241 260 242
460 2 2 2 1 242 260 261
461 2 2 2 1 242 261 243
462 2 2 2 1 243 261 262
463 2 2 2 1 243 262 244
464 2 2 2 1 244 262 263
465 2 2 2 1 244 263 245
466 2 2 2 1 245 263 264
467 2 2 2 1 245 264 246
468 2 2 2 1 246 264 265
469 2 2 2 1 246 265 247
470 2 2 2 1 247 265 266
471 2 2 2 1 247 266 248
472 2 2 2 1 248 266 267
473 2 2 2 1 248 267 249
474 2 2 2 1 249 267 268
475 2 2 2 1 249 268 250
476 2 2 2 1 250 268 269
477 2 2 2 1 250 269 251
478 2 2 2 1 251 269 270
479 2 2 2 1 251 270 53
480 2 2 2 1 53 270 52
481 2 2 2 1 14 15 252
482 2 2 2 1 252 15 271
483 2 2 2 1 252 271 253
484 2 2 2 1 253 271 272
485 2 2 2 1 253 272 254
486 2 2 2 1 254 272 273
487 2 2 2 1 254 273 255
488 2 2 2 1 255 273 274
489 2 2 2 1 255 274 256
490 2 2 2 1 256 274 275
491 2 2 2 1 256 275 257
492 2 2 2 1 257 275 276
493 2 2 2 1 257 276 258
494 2 2 2 1 258 276 277
495 2 2 2 1 258 277 259
496 2 2 2 1 259 277 278
497 2 2 2 1 259 278 260
498 2 2 2 1 260 278 279
499 2 2 2 1 260 279 261
500 2 2 2 1 261 279 280
501 2 2 2 1 261 280 262
502 2 2 2 1 262 280 281
503 2 2 2 1 262 281 263
504 2 2 2 1 263 281 282
505 2 2 2 1 263 282 264
506 2 2 2 1 264 282 283
507 2 2 2 1 264 283 265
508 2 2 2 1 265 283 284
509 2 2 2 1 265 284 266
510 2 2 2 1 266 284 285
511 2 2 2 1 266 285 267
512 2 2 2 1 267 285 286
513 2 2 2 1 267 286 268
514 2 2 2 1 268 286 287
515 2 2 2 1 268 287 269
516 2 2 2 1 269 287 288
517 2 2 2 1 269 288 270
518 2 2 2 1 270 288 289
519 2 2 2 1 270 289 52
520 2 2 2 1 52 289 51
521 2 2 2 1 15 16 271
522 2 2 2 1 271 16 290
523 2 2 2 1 271 290 272
524 2 2 2 1 272 290 291
525 2 2 2 1 272 291 273
526 2 2 2 1 273 291 292
527 2 2 2 1 273 292 274
528 2 2 2 1 274 292 293
529 2 2 2 1 274 293 275
530 2 2 2 1 275 293 294
531 2 2 2 1 275 294 276
532 2 2 2 1 276 294 295
533 2 2 2 1 276 295 277
534 2 2 2 1 277 295 296
535 2 2 2 1 277 296 278
536 2 2 2 1 278 296 297
537 2 2 2 1 278 297 279
538 2 2 2 1 279 297 298
539 2 2 2 1 279 298 280
540 2 2 2 1 280 298 299
541 2 2 2 1 280 299 281
542 2 2 2 1 281 299 300
543 2 2 2 1 281 300 282
544 2 2 2 1 282 300 301
545 2 2 2 1 282 301 283
546 2 2 2 1 283 301 302
547 2 2 2 1 283 302 284
548 2 2 2 1 284 302 303
549 2 2 2 1 284 303 285
550 2 2 2 1 285 303 304
551 2 2 2 1 285 304 286
552 2 2 2 1 286 304 305
553 2 2 2 1 286 305 287
554 2 2 2 1 287 305 306
555 2 2 2 1 287 306 288
556 2 2 2 1 288 306 307
557 2 2 2 1 288 307 289
558 2 2 2 1 289 307 308
559 2 2 2 1 289 308 51
560 2 2 2 1 51 308 50
561 2 2 2 1 16 17 290
562 2 2 2 1 290 17 309
563 2 2 2 1 290 309 291
564 2 2 2 1 291 309 310
565 2 2 2 1 291 310 292
566 2 2 2 1 292 310 311
567 2 2 2 1 292 311 293
568 2 2 2 1 293 311 312
569 2 2 2 1 293 312 294
570 2 2 2 1 294 312 313
571 2 2 2 1 294 313 295
572 2 2 2 1 295 313 314
573 2 2 2 1 295 314 296
574 2 2 2 1 296 314 315
575 2 2 2 1 296 315 297
576 2 2 2 1 297 315 316
577 2 2 2 1 297 316 298
578 2 2 2 1 298 316 317
579 2 2 2 1 298 317 299
580 2 2 2 1 299 317 318
581 2 2 2 1 299 318 300
582 2 2 2 1 300 318 319
583 2 2 2 1 300 319 301
584 2 2 2 1 301 319 320
585 2 2 2 1 301 320 302
586 2 2 2 1 302 320 321
587 2 2 2 1 302 321 303
588 2 2 2 1 303 321 322
589 2 2 2 1 303 322 304
590 2 2 2 1 304 322 323
591 2 2 2 1 304 323 305
592 2 2 2 1 305 323 324
593 2 2 2 1 305 324 306
594 2 2 2 1 306 324 325
595 2 2 2 1 306 325 307
596 2 2 2 1 307 325 326
597 2 2 2 1 307 326 308
598 2 2 2 1 308 326 327
599 2 2 2 1 308 327 50
600 2 2 2 1 50 327 49
601 2 2 2 1 17 18 309
602 2 2 2 1 309 18 328
603 2 2 2 1 309 328 310
604 2 2 2 1 310 328 329
605 2 2 2 1 310 329 311
606 2 2 2 1 311 329 330
607 2 2 2 1 311 330 312
608 2 2 2 1 312 330 331
609 2 2 2 1 312 331 313
610 2 2 2 1 313 331 332
611 2 2 2 1 313 332 314
612 2 2 2 1 314 332 333
613 2 2 2 1 314 333 315
614 2 2 2 1 315 333 334
615 2 2 2 1 315 334 316
616 2 2 2 1 316 334 335
617 2 2 2 1 316 335 317
618 2 2 2 1 317 335 336
619 2 2 2 1 317 336 318
620 2 2 2 1 318 336 337
621 2 2 2 1 318 337 319
622 2 2 2 1 319 337 338
623 2 2 2 1 319 338 320
624 2 2 2 1 320 338 339
625 2 2 2 1 320 339 321
626 2 2 2 1 321 339 340
627 2 2 2 1 321 340 322
628 2 2 2 1 322 340 341
629 2 2 2 1 322 341 323
630 2 2 2 1 323 341 342
631 2 2 2 1 323 342 324
632 2 2 2 1 324 342 343
633 2 2 2 1 324 343 325
634 2 2 2 1 325 343 344
635 2 2 2 1 325 344 326
636 2 2 2 1 326 344 345
637 2 2 2 1 326 345 327
638 2 2 2 1 327 345 346
639 2 2 2 1 327 346 49
640 2 2 2 1 49 346 48
641 2 2 2 1 18 19 328
642 2 2 2 1 328 19 347
643 2 2 2 1 328 347 329
644 2 2 2 1 329 347 348
645 2 2 2 1 329 348 330
646 2 2 2 1 330 348 349
647 2 2 2 1 330 349 331
648 2 2 2 1 331 349 350
649 2 2 2 1 331 350 332
650 2 2 2 1 332 350 351
651 2 2 2 1 332 351 333
652 2 2 2 1 333 351 352
653 2 2 2 1 333 352 334
654 2 2 2 1 334 352 353
655 2 2 2 1 334 353 335
656 2 2 2 1 335 353 354
657 2 2 2 1 335 354 336
658 2 2 2 1 336 354 355
659 2 2 2 1 336 355 337
660 2 2 2 1 337 355 356
661 2 2 2 1 337 356 338
662 2 2 2 1 338 356 357
663 2 2 2 1 338 357 339
664 2 2 2 1 339 357 358
665 2 2 2 1 339 358 340
666 2 2 2 1 340 358 359
667 2 2 2 1 340 359 341
668 2 2 2 1 341 359 360
669 2 2 2 1 341 360 342
670 2 2 2 1 342 360 361
671 2 2 2 1 342 361 343
672 2 2 2 1 343 361 362
673 2 2 2 1 343 362 344
674 2 2 2 1 344 362 363
675 2 2 2 1 344 363 345
676 2 2 2 1 345 363 364
677 2 2 2 1 345 364 346
678 2 2 2 1 346 364 365
679 2 2 2 1 346 365 48
680 2 2 2 1 48 365 47
681 2 2 2 1 19 20 347
682 2 2 2 1 347 20 366
683 2 2 2 1 347 366 348
684 2 2 2 1 348 366 367
685 2 2 2 1 348 367 349
686 2 2 2 1 349 367 368
687 2 2 2 1 349 368 350
688 2 2 2 1 350 368 369
689 2 2 2 1 350 369 351
690 2 2 2 1 351 369 370
691 2 2 2 1 351 370 352
692 2 2 2 1 352 370 371
693 2 2 2 1 352 371 353
694 2 2 2 1 353 371 372
695 2 2 2 1 353 372 354
696 2 2 2 1 354 372 373
697 2 2 2 1 354 373 355
698 2 2 2 1 355 373 374
699 2 2 2 1 355 374 356
700 2 2 2 1 356 374 375
701 2 2 2 1 356 375 357
702 2 2 2 1 357 375 376
703 2 2 2 1 357 376 358
704 2 2 2 1 358 376 377
705 2 2 2 1 358 377 359
706 2 2 2 1 359 377 378
707 2 2 2 1 359 378 360
708 2 2 2 1 360 378 379
709 2 2 2 1 360 379 361
710 2 2 2 1 361 379 380
711 2 2 2 1 361 380 362
712 2 2 2 1 362 380 381
713 2 2 2 1 362 381 363
714 2 2 2 1 363 381 382
715 2 2 2 1 363 382 364
716 2 2 2 1 364 382 383
717 2 2 2 1 364 383 365
718 2 2 2 1 365 383 384
719 2 2 2 1 365 384 47
720 2 2 2 1 47 384 46
721 2 2 2 1 20 21 366
722 2 2 2 1 366 21 385
723 2 2 2 1 366 385 367
724 2 2 2 1 367 385 386
725 2 2 2 1 367 386 368
726 2 2 2 1 368 386 387
727 2 2 2 1 368 387 369
728 2 2 2 1 369 387 388
729 2 2 2 1 369 388 370
730 2 2 2 1 370 388 389
731 2 2 2 1 370 389 371
732 2 2 2 1 371 389 390
733 2 2 2 1 371 390 372
734 2 2 2 1 372 390 391
735 2 2 2 1 372 391 373
736 2 2 2 1 373 391 392
737 2 2 2 1 373 392 374
738 2 2 2 1 374 392 393
739 2 2 2 1 374 393 375
740 2 2 2 1 375 393 394
741 2 2 2 1 375 394 376
742 2 2 2 1 376 394 395
743 2 2 2 1 376 395 377
744 2 2 2 1 377 395 396
745 2 2 2 1 377 396 378
746 2 2 2 1 378 396 397
747 2 2 2 1 378 397 379
748 2 2 2 1 379 397 398
749 2 2 2 1 379 398 380
750 2 2 2 1 380 398 399
751 2 2 2 1 380 399 381
752 2 2 2 1 381 399 400
753 2 2 2 1 381 400 382
754 2 2 2 1 382 400 401
755 2 2 2 1 382 401 383
756 2 2 2 1 383 401 402
757 2 2 2 1 383 402 384
758 2 2 2 1 384 402 403
759 2 2 2 1 384 403 46
760 2 2 2 1 46 403 45
761 2 2 2 1 21 22 385
762 2 2 2 1 385 22 404
763 2 2 2 1 385 404 386
764 2 2 2 1 386 404 405
765 2 2 2 1 386 405 387
766 2 2 2 1 387 405 406
767 2 2 2 1 387 406 388
768 2 2 2 1 388 406 407
769 2 2 2 1 388 407 389
770 2 2 2 1 389 407 408
771 2 2 2 1 389 408 390
772 2 2 2 1 390 408 409
773 2 2 2 1 390 409 391
774 2 2 2 1 391 409 410
775 2 2 2 1 391 410 392
776 2 2 2 1 392 410 411
777 2 2 2 1 392 411 393
778 2 2 2 1 393 411 412
779 2 2 2 1 393 412 394
780 2 2 2 1 394 412 413
781 2 2 2 1 394 413 395
782 2 2 2 1 395 413 414
783 2 2 2 1 395 414 396
784 2 2 2 1 396 414 415
785 2 2 2 1 396 415 397
786 2 2 2 1 397 415 416
787 2 2 2 1 397 416 398
788 2 2 2 1 398 416 417
789 2 2 2 1 398 417 399
790 2 2 2 1 399 417 418
791 2 2 2 1 399 418 400
792 2 2 2 1 400 418 419
793 2 2 2 1 400 419 401
794 2 2 2 1 401 419 420
795 2 2 2 1 401 420 402
796 2 2 2 1 402 420 421
797 2 2 2 1 402 421 403
798 2 2 2 1 403 421 422
799 2 2 2 1 403 422 45
800 2 2 2 1 45 422 44
801 2 2 2 1 22 23 404
802 2 2 2 1 404 23 423
803 2 2 2 1 404 423 405
804 2 2 2 1 405 423 424
805 2 2 2 1 405 424 406
806 2 2 2 1 406 424 425
807 2 2 2 1 406 425 407
808 2 2 2 1 407 425 426
809 2 2 2 1 407 426 408
810 2 2 2 1 408 426 427
811 2 2 2 1 408 427 409
812 2 2 2 1 409 427 428
813 2 2 2 1 409 428 410
814 2 2 2 1 410 428 429
815 2 2 2 1 410 429 411
816 2 2 2 1 411 429 430
817 2 2 2 1 411 430 412
818 2 2 2 1 412 430 431
819 2 2 2 1 412 431 413
820 2 2 2 1 413 431 432
821 2 2 2 1 413 432 414
822 2 2 2 1 414 432 433
823 2 2 2 1 414 433 415
824 2 2 2 1 415 433 434
825 2 2 2 1 415 434 416
826 2 2 2 1 416 434 435
827 2 2 2 1 416 435 417
828 2 2 2 1 417 435 436
829 2 2 2 1 417 436 418
830 2 2 2 1 418 436 437
831 2 2 2 1 418 437 419
832 2 2 2 1 419 437 438
833 2 2 2 1 419 438 420
834 2 2 2 1 420 438 439
835 2 2 2 1 420 439 421
836 2 2 2 1 421 439 440
837 2 2 2 1 421 440 422
838 2 2 2 1 422 440 441
839 2 2 2 1 422 441 44
840 2 2 2 1 44 441 43
841 2 2 2 1 23 2 423
842 2 2 2 1 423 2 24
843 2 2 2 1 423 24 424
844 2 2 2 1 424 24 25
845 2 2 2 1 424 25 425
846 2 2 2 1 425 25 26
847 2 2 2 1 425 26 426
848 2 2 2 1 426 26 27
849 2 2 2 1 426 27 427
850 2 2 2 1 427 27 28
851 2 2 2 1 427 28 428
852 2 2 2 1 428 28 29
853 2 2 2 1 428 29 429
854 2 2 2 1 429 29 30
855 2 2 2 1 429 30 430
856 2 2 2 1 430 30 31
857 2 2 2 1 430 31 431
858 2 2 2 1 431 31 32
859 2 2 2 1 431 32 432
860 2 2 2 1 432 32 33
861 2 2 2 1 432 33 433
862 2 2 2 1 433 33 34
863 2 2 2 1 433 34 434
864 2 2 2 1 434 34 35
865 2 2 2 1 434 35 435
866 2 2 2 1 435 35 36
867 2 2 2 1 435 36 436
868 2 2 2 1 436 36 37
869 2 2 2 1 436 37 437
870 2 2 2 1 437 37 38
871 2 2 2 1 437 38 438
872 2 2 2 1 438 38 39
873 2 2 2 1 438 39 439
874 2 2 2 1 439 39 40
875 2 2 2 1 439 40 440
876 2 2 2 1 440 40 41
877 2 2 2 1 440 41 441
878 2 2 2 1 441 41 42
879 2 2 2 1 441 42 43
880 2 2 2 1 43 42 3
$EndElements
